<svg width="195" height="124" viewBox="0 0 195 124" fill="none" xmlns="http://www.w3.org/2000/svg">
<mask id="mask0_1910_19798" style="mask-type:alpha" maskUnits="userSpaceOnUse" x="0" y="0" width="195" height="124">
<rect width="195" height="124" fill="#D9D9D9"/>
</mask>
<g mask="url(#mask0_1910_19798)">
<g filter="url(#filter0_d_1910_19798)">
<ellipse cx="99.0662" cy="51.1929" rx="39.0662" ry="39.1929" fill="#F43F5E"/>
</g>
<g opacity="0.1" filter="url(#filter1_d_1910_19798)">
<path fill-rule="evenodd" clip-rule="evenodd" d="M78.8053 61.5137C78.386 61.7932 78.2401 62.3433 78.4845 62.7839C79.1695 64.0188 79.9647 65.1954 80.8632 66.2985C83.2748 69.2594 86.355 71.5982 89.8442 73.1262C90.3501 73.3478 90.9307 73.0909 91.131 72.5762C91.3313 72.0615 91.0753 71.484 90.5703 71.2605C87.4129 69.8636 84.6212 67.7395 82.4283 65.0528C81.6165 64.0582 80.8967 62.9987 80.2747 61.8874C79.9815 61.3636 79.3046 61.1807 78.8053 61.5137ZM76.9754 59.5035C77.1949 60.0941 77.909 60.3052 78.4332 59.9556C78.8329 59.6891 78.9868 59.1786 78.8211 58.7277C78.4697 57.771 78.1844 56.7889 77.9682 55.7883C77.8515 55.2484 77.3377 54.8809 76.7931 54.9729C76.2485 55.0649 75.8794 55.5815 75.9941 56.1218C76.2386 57.2746 76.567 58.4047 76.9754 59.5035ZM99.4717 51.1419C99.4717 51.1419 99.4717 51.1419 99.4717 51.1419C99.4717 51.1419 99.4717 51.1419 99.4717 51.1419L99.4705 51.1421L99.4717 51.1419Z" fill="black"/>
</g>
<g opacity="0.2" filter="url(#filter2_d_1910_19798)">
<path fill-rule="evenodd" clip-rule="evenodd" d="M126.001 48.3456C126.067 48.9877 125.574 49.5418 124.929 49.5819C124.282 49.6223 123.728 49.1287 123.659 48.484C123.616 48.074 123.561 47.665 123.497 47.2574C123.422 46.7829 123.621 46.3034 124.02 46.037C124.716 45.5729 125.66 45.9503 125.794 46.7761C125.878 47.2962 125.947 47.8196 126.001 48.3456ZM124.813 42.7266C124.969 43.206 124.777 43.7263 124.358 44.0059L123.666 44.4669C123.344 44.6818 122.906 44.5148 122.796 44.1432C121.985 41.382 120.699 38.796 119.008 36.4958C118.624 35.9731 118.698 35.2348 119.201 34.8255C119.706 34.4155 120.449 34.4911 120.836 35.0133C122.576 37.3621 123.915 39.9685 124.813 42.7266ZM99.0665 51.1928C99.0665 51.1928 99.0665 51.1928 99.0666 51.1928L99.0675 51.1918L99.0664 51.1927C99.0664 51.1927 99.0664 51.1928 99.0665 51.1928Z" fill="white"/>
</g>
<g opacity="0.15" filter="url(#filter3_d_1910_19798)">
<path fill-rule="evenodd" clip-rule="evenodd" d="M99.4722 15.1419C101.031 15.1419 102.139 16.59 101.859 18.1238L101.625 19.4005C101.438 20.4256 100.514 21.1419 99.4722 21.1419C99.3517 21.1419 99.2315 21.1426 99.1114 21.144C97.5417 21.1625 96.1153 20.118 95.8224 18.5757C95.4954 16.8542 96.6982 15.205 98.4498 15.1561C98.7894 15.1466 99.1302 15.1419 99.4722 15.1419ZM99.4722 87.1419C99.1829 87.1419 98.8945 87.1385 98.6069 87.1317C96.8583 87.0904 95.6487 85.4516 95.9633 83.731C96.2461 82.184 97.6698 81.1292 99.2424 81.141C99.3189 81.1416 99.3955 81.1419 99.4722 81.1419C100.679 81.1419 101.755 81.9612 101.98 83.1463L102.106 83.8113C102.431 85.5181 101.209 87.1419 99.4722 87.1419ZM80.7482 24.2648C79.6273 22.9103 79.8898 20.8775 81.4099 19.9941C81.5526 19.9112 81.6959 19.8292 81.8399 19.7482C83.399 18.8706 85.3126 19.7176 85.8801 21.4144L85.9727 21.691C86.4076 22.9914 85.7875 24.4025 84.5973 25.0834C83.3831 25.7779 81.8268 25.5683 80.935 24.4906L80.7482 24.2648ZM117.682 78.3065C118.817 79.6782 118.533 81.7394 116.978 82.6064C116.724 82.7482 116.468 82.8869 116.21 83.0226C114.658 83.839 112.801 82.9872 112.245 81.3242L112.202 81.1969C111.728 79.7806 112.432 78.2473 113.745 77.5357C115.035 76.8366 116.659 77.0711 117.595 78.2015L117.682 78.3065ZM125.855 70.5407C127.18 71.7017 129.224 71.4935 130.148 69.9936C130.309 69.7311 130.468 69.4664 130.623 69.1996C131.512 67.6684 130.716 65.7606 129.053 65.1517L128.947 65.1128C127.548 64.6006 125.999 65.2449 125.234 66.523C124.465 67.8085 124.644 69.4795 125.771 70.4668L125.855 70.5407ZM73.6219 35.9087C74.3184 34.7294 74.1443 33.2054 73.1142 32.3028L72.8786 32.0963C71.542 30.9251 69.478 31.1474 68.5649 32.672C68.489 32.7988 68.4138 32.9261 68.3394 33.0539C67.4478 34.5852 68.2435 36.4949 69.9075 37.1043L70.2023 37.2122C71.4929 37.6848 72.923 37.0922 73.6219 35.9087ZM134.21 60.6264C134.206 60.6381 134.194 60.6445 134.183 60.6404C134.159 60.6316 134.169 60.5959 134.194 60.6006C134.205 60.6029 134.213 60.6147 134.21 60.6264ZM135.472 51.1419C135.472 51.2295 135.472 51.317 135.471 51.4045C135.459 53.1805 133.796 54.421 132.051 54.0931L131.782 54.0427C130.413 53.7854 129.472 52.5352 129.472 51.1419C129.472 51.1281 129.472 51.1142 129.472 51.1004C129.47 49.537 130.521 48.1263 132.058 47.842C133.788 47.5221 135.436 48.7433 135.467 50.5025C135.47 50.7151 135.472 50.9283 135.472 51.1419ZM63.4758 50.6256C63.5006 48.8584 65.1573 47.6307 66.8942 47.957L66.9544 47.9683C68.4498 48.2492 69.4722 49.6203 69.4722 51.1419C69.4722 52.3709 68.6349 53.4671 67.4264 53.6905L66.8201 53.8026C65.1017 54.1203 63.4722 52.8894 63.4722 51.1419C63.4722 50.9695 63.4734 50.7974 63.4758 50.6256ZM114.047 24.914C112.77 24.2028 112.105 22.6903 112.594 21.3125L112.66 21.125C113.244 19.4774 115.108 18.6584 116.644 19.4935C116.855 19.6081 117.064 19.7247 117.272 19.8434C118.829 20.7304 119.086 22.8103 117.919 24.1696L117.789 24.3212C116.863 25.3997 115.289 25.6055 114.047 24.914ZM73.3268 65.8639C72.6339 64.636 71.173 64.004 69.8451 64.4779L69.5836 64.5712C67.9297 65.1614 67.1156 67.0392 67.9672 68.575C68.0534 68.7304 68.1407 68.8851 68.2291 69.039C69.1202 70.5914 71.1989 70.8426 72.5548 69.6741L72.7639 69.4939C73.8085 68.5937 74.0045 67.0649 73.3268 65.8639ZM128.954 37.0138C130.637 36.4132 131.446 34.4868 130.542 32.9458C130.401 32.7059 130.257 32.4678 130.111 32.2315C129.191 30.7442 127.166 30.5307 125.841 31.6724L125.728 31.7699C124.6 32.7417 124.418 34.4049 125.186 35.6799C125.936 36.9242 127.443 37.5532 128.811 37.0649L128.954 37.0138ZM80.1737 77.3573C81.1148 76.2609 82.7295 76.0809 83.9659 76.8289C85.1652 77.5544 85.7689 79.0079 85.3004 80.329L85.2238 80.5449C84.624 82.2365 82.6866 83.0479 81.1426 82.1327C80.9573 82.0229 80.773 81.9114 80.5897 81.7983C79.1027 80.8804 78.8865 78.857 80.0246 77.531L80.1737 77.3573Z" fill="black"/>
</g>
<g filter="url(#filter4_d_1910_19798)">
<path fill-rule="evenodd" clip-rule="evenodd" d="M42.1289 3.26929C42.256 3.18801 42.3886 3.122 42.5288 3.06635C44.2775 2.37216 46.1648 3.68667 46.1215 5.56865L44.6623 68.9369L46.0189 117.867C46.0465 118.862 45.2448 119.683 44.2508 119.677L38.5025 119.646C37.5085 119.641 36.7181 118.811 36.7593 117.817L38.1179 85.0107C38.1815 83.475 36.9258 82.2121 35.3916 82.2687L7.88559 83.2851C6.45514 83.3379 5.25558 82.2413 5.23633 80.8085C5.13916 73.5729 5.66993 52.44 14.2327 35.1461C24.1034 15.2107 40.2076 4.49797 42.1289 3.26929Z" fill="#C2B4B4"/>
<path fill-rule="evenodd" clip-rule="evenodd" d="M19.8386 32.1613C20.6028 32.4619 20.9507 33.3483 20.6113 34.0963C19.4783 36.5938 18.3837 39.3678 17.3982 42.4204C16.4534 45.3467 15.6542 48.4171 14.9785 51.4959C14.8159 52.2364 14.1267 52.7411 13.3733 52.6628C12.4956 52.5715 11.8915 51.7355 12.0907 50.8752C12.9617 47.112 14.0067 43.3303 15.2565 39.7853C16.1365 37.2893 17.0841 34.9839 18.06 32.8671C18.3696 32.1956 19.1505 31.8906 19.8386 32.1613ZM9.62332 79.1302C10.5978 79.2315 11.4565 78.4944 11.5162 77.5155C11.7868 73.0731 12.4266 65.3399 13.8831 57.0597C14.0366 56.1874 13.4225 55.3618 12.5422 55.2703C11.7666 55.1896 11.0564 55.7129 10.9096 56.4795C9.15063 65.6665 8.37872 73.9415 8.1125 77.333C8.04083 78.2459 8.71337 79.0355 9.62332 79.1302Z" fill="white" fill-opacity="0.4"/>
</g>
<g filter="url(#filter5_d_1910_19798)">
<path fill-rule="evenodd" clip-rule="evenodd" d="M184.008 3.26929C184.135 3.18801 184.268 3.122 184.408 3.06635C186.157 2.37216 188.044 3.68667 188.001 5.56865L186.542 68.9369L187.898 117.867C187.926 118.862 187.124 119.683 186.13 119.677L180.382 119.646C179.388 119.641 178.598 118.811 178.639 117.817L179.997 85.0107C180.061 83.475 178.805 82.2121 177.271 82.2687L149.765 83.2851C148.335 83.3379 147.135 82.2413 147.116 80.8085C147.019 73.5729 147.549 52.44 156.112 35.1461C165.983 15.2107 182.087 4.49797 184.008 3.26929Z" fill="#C2B4B4"/>
<path fill-rule="evenodd" clip-rule="evenodd" d="M161.718 32.1613C162.482 32.4619 162.83 33.3483 162.491 34.0963C161.358 36.5938 160.263 39.3678 159.278 42.4204C158.333 45.3467 157.534 48.4171 156.858 51.4959C156.695 52.2364 156.006 52.7411 155.253 52.6628C154.375 52.5715 153.771 51.7355 153.97 50.8752C154.841 47.112 155.886 43.3303 157.136 39.7853C158.016 37.2893 158.963 34.9839 159.939 32.8671C160.249 32.1956 161.03 31.8906 161.718 32.1613ZM151.503 79.1302C152.477 79.2315 153.336 78.4944 153.396 77.5155C153.666 73.0731 154.306 65.3399 155.762 57.0597C155.916 56.1874 155.302 55.3618 154.422 55.2703C153.646 55.1896 152.936 55.7129 152.789 56.4795C151.03 65.6665 150.258 73.9415 149.992 77.333C149.92 78.2459 150.593 79.0355 151.503 79.1302Z" fill="white" fill-opacity="0.4"/>
</g>
</g>
<defs>
<filter id="filter0_d_1910_19798" x="59.4141" y="11.4141" width="79.3042" height="79.5576" filterUnits="userSpaceOnUse" color-interpolation-filters="sRGB">
<feFlood flood-opacity="0" result="BackgroundImageFix"/>
<feColorMatrix in="SourceAlpha" type="matrix" values="0 0 0 0 0 0 0 0 0 0 0 0 0 0 0 0 0 0 127 0" result="hardAlpha"/>
<feOffset/>
<feGaussianBlur stdDeviation="0.292969"/>
<feComposite in2="hardAlpha" operator="out"/>
<feColorMatrix type="matrix" values="0 0 0 0 0.392157 0 0 0 0 0.439216 0 0 0 0 0.403922 0 0 0 0.25 0"/>
<feBlend mode="normal" in2="BackgroundImageFix" result="effect1_dropShadow_1910_19798"/>
<feBlend mode="normal" in="SourceGraphic" in2="effect1_dropShadow_1910_19798" result="shape"/>
</filter>
<filter id="filter1_d_1910_19798" x="75.3872" y="50.5559" width="24.6704" height="23.2361" filterUnits="userSpaceOnUse" color-interpolation-filters="sRGB">
<feFlood flood-opacity="0" result="BackgroundImageFix"/>
<feColorMatrix in="SourceAlpha" type="matrix" values="0 0 0 0 0 0 0 0 0 0 0 0 0 0 0 0 0 0 127 0" result="hardAlpha"/>
<feOffset/>
<feGaussianBlur stdDeviation="0.292969"/>
<feComposite in2="hardAlpha" operator="out"/>
<feColorMatrix type="matrix" values="0 0 0 0 0.392157 0 0 0 0 0.439216 0 0 0 0 0.403922 0 0 0 0.25 0"/>
<feBlend mode="normal" in2="BackgroundImageFix" result="effect1_dropShadow_1910_19798"/>
<feBlend mode="normal" in="SourceGraphic" in2="effect1_dropShadow_1910_19798" result="shape"/>
</filter>
<filter id="filter2_d_1910_19798" x="98.4805" y="33.9769" width="28.1123" height="17.8018" filterUnits="userSpaceOnUse" color-interpolation-filters="sRGB">
<feFlood flood-opacity="0" result="BackgroundImageFix"/>
<feColorMatrix in="SourceAlpha" type="matrix" values="0 0 0 0 0 0 0 0 0 0 0 0 0 0 0 0 0 0 127 0" result="hardAlpha"/>
<feOffset/>
<feGaussianBlur stdDeviation="0.292969"/>
<feComposite in2="hardAlpha" operator="out"/>
<feColorMatrix type="matrix" values="0 0 0 0 0.392157 0 0 0 0 0.439216 0 0 0 0 0.403922 0 0 0 0.25 0"/>
<feBlend mode="normal" in2="BackgroundImageFix" result="effect1_dropShadow_1910_19798"/>
<feBlend mode="normal" in="SourceGraphic" in2="effect1_dropShadow_1910_19798" result="shape"/>
</filter>
<filter id="filter3_d_1910_19798" x="62.8862" y="14.5559" width="73.1719" height="73.1719" filterUnits="userSpaceOnUse" color-interpolation-filters="sRGB">
<feFlood flood-opacity="0" result="BackgroundImageFix"/>
<feColorMatrix in="SourceAlpha" type="matrix" values="0 0 0 0 0 0 0 0 0 0 0 0 0 0 0 0 0 0 127 0" result="hardAlpha"/>
<feOffset/>
<feGaussianBlur stdDeviation="0.292969"/>
<feComposite in2="hardAlpha" operator="out"/>
<feColorMatrix type="matrix" values="0 0 0 0 0.392157 0 0 0 0 0.439216 0 0 0 0 0.403922 0 0 0 0.25 0"/>
<feBlend mode="normal" in2="BackgroundImageFix" result="effect1_dropShadow_1910_19798"/>
<feBlend mode="normal" in="SourceGraphic" in2="effect1_dropShadow_1910_19798" result="shape"/>
</filter>
<filter id="filter4_d_1910_19798" x="4.64111" y="2.29226" width="42.0669" height="117.971" filterUnits="userSpaceOnUse" color-interpolation-filters="sRGB">
<feFlood flood-opacity="0" result="BackgroundImageFix"/>
<feColorMatrix in="SourceAlpha" type="matrix" values="0 0 0 0 0 0 0 0 0 0 0 0 0 0 0 0 0 0 127 0" result="hardAlpha"/>
<feOffset/>
<feGaussianBlur stdDeviation="0.292969"/>
<feComposite in2="hardAlpha" operator="out"/>
<feColorMatrix type="matrix" values="0 0 0 0 0.392157 0 0 0 0 0.439216 0 0 0 0 0.403922 0 0 0 0.25 0"/>
<feBlend mode="normal" in2="BackgroundImageFix" result="effect1_dropShadow_1910_19798"/>
<feBlend mode="normal" in="SourceGraphic" in2="effect1_dropShadow_1910_19798" result="shape"/>
</filter>
<filter id="filter5_d_1910_19798" x="146.521" y="2.29226" width="42.0669" height="117.971" filterUnits="userSpaceOnUse" color-interpolation-filters="sRGB">
<feFlood flood-opacity="0" result="BackgroundImageFix"/>
<feColorMatrix in="SourceAlpha" type="matrix" values="0 0 0 0 0 0 0 0 0 0 0 0 0 0 0 0 0 0 127 0" result="hardAlpha"/>
<feOffset/>
<feGaussianBlur stdDeviation="0.292969"/>
<feComposite in2="hardAlpha" operator="out"/>
<feColorMatrix type="matrix" values="0 0 0 0 0.392157 0 0 0 0 0.439216 0 0 0 0 0.403922 0 0 0 0.25 0"/>
<feBlend mode="normal" in2="BackgroundImageFix" result="effect1_dropShadow_1910_19798"/>
<feBlend mode="normal" in="SourceGraphic" in2="effect1_dropShadow_1910_19798" result="shape"/>
</filter>
</defs>
</svg>
