<svg width="191" height="125" viewBox="0 0 191 125" fill="none" xmlns="http://www.w3.org/2000/svg">
<path d="M136.905 52.3147C136.905 73.9603 119.415 91.5076 97.8392 91.5076C76.2635 91.5076 58.7729 73.9603 58.7729 52.3147C58.7729 30.6691 76.2635 13.1218 97.8392 13.1218C119.415 13.1218 136.905 30.6691 136.905 52.3147Z" fill="#F43F5E"/>
<g opacity="0.1">
<path d="M77.5782 62.6356C77.159 62.9151 77.013 63.4651 77.2574 63.9057C77.9424 65.1406 78.7376 66.3172 79.6362 67.4204C82.0478 70.3812 85.1279 72.7201 88.6171 74.2481C89.1231 74.4696 89.7037 74.2128 89.904 73.6981C90.1043 73.1834 89.8483 72.6059 89.3432 72.3824C86.1859 70.9854 83.3941 68.8614 81.2013 66.1747C80.3895 65.1801 79.6697 64.1205 79.0476 63.0092C78.7545 62.4855 78.0776 62.3026 77.5782 62.6356Z" fill="black"/>
<path d="M75.7484 60.6253C75.9679 61.2159 76.6819 61.427 77.2061 61.0775C77.6058 60.811 77.7597 60.3004 77.5941 59.8495C77.2426 58.8928 76.9573 57.9108 76.7411 56.9101C76.6245 56.3703 76.1107 56.0027 75.5661 56.0947C75.0214 56.1867 74.6524 56.7034 74.767 57.2437C75.0115 58.3964 75.3399 59.5265 75.7484 60.6253Z" fill="black"/>
</g>
<g opacity="0.2">
<path d="M124.774 49.4675C124.839 50.1096 124.346 50.6637 123.702 50.7038C123.055 50.7441 122.501 50.2505 122.432 49.6058C122.388 49.1959 122.334 48.7869 122.27 48.3792C122.195 47.9047 122.394 47.4253 122.793 47.1588C123.489 46.6947 124.433 47.0722 124.566 47.898C124.651 48.4181 124.72 48.9414 124.774 49.4675Z" fill="white"/>
<path d="M123.586 43.8485C123.742 44.3278 123.55 44.8481 123.13 45.1278L122.439 45.5888C122.117 45.8036 121.679 45.6366 121.569 45.265C120.757 42.5038 119.472 39.9178 117.781 37.6177C117.396 37.0949 117.471 36.3566 117.974 35.9473C118.478 35.5374 119.222 35.6129 119.609 36.1352C121.348 38.484 122.688 41.0904 123.586 43.8485Z" fill="white"/>
</g>
<g opacity="0.15" filter="url(#filter0_d_1910_19798)">
<path d="M98.2451 16.2637C99.8043 16.2637 100.912 17.7118 100.632 19.2456L100.398 20.5223C100.211 21.5474 99.2872 22.2637 98.2451 22.2637C98.1247 22.2637 98.0044 22.2644 97.8843 22.2658C96.3146 22.2843 94.8883 21.2398 94.5953 19.6975C94.2683 17.976 95.4711 16.3268 97.2228 16.278C97.5624 16.2685 97.9032 16.2637 98.2451 16.2637Z" fill="black"/>
<path d="M98.2451 88.2637C97.9559 88.2637 97.6675 88.2603 97.3799 88.2535C95.6312 88.2123 94.4217 86.5735 94.7362 84.8529C95.0191 83.3058 96.4428 82.2511 98.0154 82.2629C98.0919 82.2634 98.1685 82.2637 98.2451 82.2637C99.4515 82.2637 100.528 83.083 100.753 84.2682L100.879 84.9332C101.203 86.6399 99.9824 88.2637 98.2451 88.2637Z" fill="black"/>
<path d="M79.5211 25.3867C78.4002 24.0322 78.6627 21.9994 80.1829 21.116C80.3256 21.033 80.4689 20.9511 80.6128 20.8701C82.172 19.9925 84.0856 20.8394 84.6531 22.5362L84.7456 22.8128C85.1805 24.1132 84.5605 25.5243 83.3703 26.2052C82.1561 26.8998 80.5998 26.6901 79.708 25.6124L79.5211 25.3867Z" fill="black"/>
<path d="M116.454 79.4283C117.59 80.8 117.306 82.8612 115.751 83.7283C115.497 83.87 115.241 84.0087 114.983 84.1445C113.431 84.9609 111.574 84.1091 111.017 82.4461L110.975 82.3188C110.501 80.9024 111.205 79.3691 112.518 78.6576C113.808 77.9585 115.432 78.1929 116.368 79.3234L116.454 79.4283Z" fill="black"/>
<path d="M124.628 71.6626C125.953 72.8235 127.997 72.6154 128.92 71.1154C129.082 70.853 129.24 70.5883 129.396 70.3214C130.285 68.7902 129.489 66.8825 127.826 66.2736L127.72 66.2346C126.321 65.7225 124.772 66.3667 124.007 67.6449C123.238 68.9304 123.417 70.6014 124.544 71.5887L124.628 71.6626Z" fill="black"/>
<path d="M72.3949 37.0306C73.0913 35.8513 72.9172 34.3272 71.8871 33.4246L71.6515 33.2181C70.3149 32.0469 68.2509 32.2692 67.3378 33.7939C67.2619 33.9206 67.1868 34.0479 67.1124 34.1757C66.2207 35.7071 67.0165 37.6168 68.6805 38.2261L68.9753 38.334C70.2659 38.8066 71.696 38.214 72.3949 37.0306Z" fill="black"/>
<path d="M132.983 61.7482C132.979 61.7599 132.967 61.7664 132.956 61.7622C132.932 61.7535 132.942 61.7178 132.966 61.7225C132.978 61.7247 132.986 61.7366 132.983 61.7482Z" fill="black"/>
<path d="M134.245 52.2637C134.245 52.3513 134.245 52.4388 134.244 52.5263C134.231 54.3024 132.569 55.5428 130.824 55.2149L130.555 55.1645C129.186 54.9073 128.245 53.657 128.245 52.2637C128.245 52.2499 128.245 52.2361 128.245 52.2223C128.243 50.6589 129.293 49.2481 130.831 48.9639C132.561 48.644 134.209 49.8651 134.24 51.6243C134.243 51.837 134.245 52.0501 134.245 52.2637Z" fill="black"/>
<path d="M62.2487 51.7474C62.2736 49.9803 63.9302 48.7525 65.6671 49.0788L65.7273 49.0901C67.2227 49.3711 68.2451 50.7421 68.2451 52.2637C68.2451 53.4927 67.4078 54.5889 66.1993 54.8124L65.5931 54.9244C63.8747 55.2422 62.2451 54.0112 62.2451 52.2637C62.2451 52.0913 62.2463 51.9192 62.2487 51.7474Z" fill="black"/>
<path d="M112.82 26.0359C111.543 25.3246 110.878 23.8121 111.367 22.4343L111.433 22.2469C112.017 20.5992 113.881 19.7802 115.417 20.6153C115.628 20.7299 115.837 20.8466 116.045 20.9652C117.602 21.8522 117.858 23.9322 116.692 25.2914L116.562 25.443C115.636 26.5215 114.062 26.7274 112.82 26.0359Z" fill="black"/>
<path d="M72.0998 66.9857C71.4069 65.7578 69.946 65.1258 68.6181 65.5997L68.3565 65.693C66.7026 66.2832 65.8885 68.1611 66.7402 69.6968C66.8263 69.8522 66.9136 70.0069 67.002 70.1609C67.8932 71.7132 69.9718 71.9645 71.3277 70.796L71.5368 70.6158C72.5814 69.7155 72.7775 68.1867 72.0998 66.9857Z" fill="black"/>
<path d="M127.727 38.1356C129.41 37.5351 130.219 35.6087 129.315 34.0677C129.174 33.8278 129.03 33.5897 128.884 33.3534C127.964 31.866 125.939 31.6526 124.614 32.7943L124.501 32.8918C123.373 33.8636 123.191 35.5267 123.959 36.8017C124.709 38.0461 126.216 38.6751 127.584 38.1868L127.727 38.1356Z" fill="black"/>
<path d="M78.9466 78.4792C79.8878 77.3827 81.5025 77.2028 82.7388 77.9507C83.9381 78.6762 84.5418 80.1297 84.0734 81.4508L83.9968 81.6668C83.397 83.3584 81.4595 84.1697 79.9156 83.2546C79.7302 83.1447 79.5459 83.0332 79.3627 82.9201C77.8757 82.0023 77.6594 79.9789 78.7976 78.6528L78.9466 78.4792Z" fill="black"/>
</g>
<path d="M40.9017 4.3911C41.0288 4.30981 41.1614 4.2438 41.3016 4.18816C43.0503 3.49397 44.9376 4.80847 44.8943 6.69046L43.4351 70.0587L44.7917 118.989C44.8193 119.984 44.0176 120.804 43.0236 120.799L37.2753 120.768C36.2813 120.762 35.4909 119.933 35.5321 118.939L36.8907 86.1325C36.9543 84.5968 35.6985 83.3339 34.1644 83.3906L6.65838 84.4069C5.22793 84.4597 4.02837 83.3631 4.00913 81.9303C3.91196 74.6947 4.44272 53.5618 13.0055 36.2679C22.8762 16.3325 38.9804 5.61978 40.9017 4.3911Z" fill="#C2B4B4"/>
<path d="M18.6115 33.2831C19.3757 33.5837 19.7236 34.4701 19.3842 35.2181C18.2512 37.7156 17.1566 40.4896 16.1711 43.5422C15.2263 46.4685 14.4271 49.5389 13.7514 52.6177C13.5888 53.3582 12.8996 53.8629 12.1462 53.7846C11.2686 53.6933 10.6644 52.8573 10.8636 51.997C11.7346 48.2338 12.7796 44.4521 14.0294 40.9071C14.9095 38.4111 15.857 36.1057 16.8329 33.9889C17.1425 33.3174 17.9235 33.0124 18.6115 33.2831Z" fill="white" fill-opacity="0.4"/>
<path d="M8.39622 80.252C9.37068 80.3533 10.2295 79.6162 10.2891 78.6373C10.5597 74.195 11.1995 66.4617 12.656 58.1815C12.8095 57.3092 12.1954 56.4836 11.3152 56.3921C10.5395 56.3114 9.8293 56.8347 9.68253 57.6013C7.92354 66.7883 7.15162 75.0633 6.8854 78.4548C6.81374 79.3677 7.48627 80.1573 8.39622 80.252Z" fill="white" fill-opacity="0.4"/>
<path d="M182.781 4.39116C182.908 4.30988 183.041 4.24387 183.181 4.18822C184.93 3.49403 186.817 4.80854 186.774 6.69052L185.315 70.0588L186.671 118.989C186.699 119.984 185.897 120.804 184.903 120.799L179.155 120.768C178.161 120.762 177.37 119.933 177.411 118.939L178.77 86.1326C178.834 84.5969 177.578 83.3339 176.044 83.3906L148.538 84.4069C147.107 84.4598 145.908 83.3632 145.889 81.9303C145.791 74.6947 146.322 53.5619 154.885 36.268C164.756 16.3326 180.86 5.61984 182.781 4.39116Z" fill="#C2B4B4"/>
<path d="M160.491 33.2831C161.255 33.5838 161.603 34.4702 161.264 35.2182C160.131 37.7156 159.036 40.4897 158.05 43.5422C157.106 46.4686 156.307 49.539 155.631 52.6178C155.468 53.3582 154.779 53.863 154.026 53.7846C153.148 53.6933 152.544 52.8574 152.743 51.997C153.614 48.2339 154.659 44.4521 155.909 40.9072C156.789 38.4112 157.736 36.1057 158.712 33.989C159.022 33.3175 159.803 33.0125 160.491 33.2831Z" fill="white" fill-opacity="0.4"/>
<path d="M150.276 80.252C151.25 80.3534 152.109 79.6163 152.168 78.6374C152.439 74.195 153.079 66.4618 154.535 58.1816C154.689 57.3092 154.075 56.4837 153.195 56.3921C152.419 56.3114 151.709 56.8348 151.562 57.6014C149.803 66.7884 149.031 75.0633 148.765 78.4549C148.693 79.3678 149.366 80.1574 150.276 80.252Z" fill="white" fill-opacity="0.4"/>
</svg>
