<svg width="288" height="151" viewBox="0 0 288 151" fill="none" xmlns="http://www.w3.org/2000/svg">
<mask id="mask0_1910_19799" style="mask-type:alpha" maskUnits="userSpaceOnUse" x="0" y="0" width="288" height="151">
<rect width="288" height="151" fill="#D9D9D9"/>
</mask>
<g mask="url(#mask0_1910_19799)">
<g filter="url(#filter0_d_1910_19799)">
<path fill-rule="evenodd" clip-rule="evenodd" d="M58.9798 77.0134C58.9798 76.1451 59.5566 75.4015 60.3143 74.9774C62.0766 73.991 63.2319 72.34 63.2319 70.4698C63.2319 67.4489 60.2179 65 56.5001 65C52.7822 65 49.7683 67.4489 49.7683 70.4698C49.7683 72.3398 50.9233 73.9907 52.6852 74.9771C53.4428 75.4012 54.0195 76.1448 54.0195 77.013V77.5223C54.0195 78.5767 53.1991 79.445 52.1508 79.5585C30.4905 81.9023 13.6289 100.247 13.6289 122.531V126.954C13.6289 128.059 12.7335 128.954 11.6289 128.954H8.89051C5.63727 128.954 3 131.591 3 134.845C3 138.098 5.63727 140.735 8.8905 140.735H104.109C107.363 140.735 110 138.098 110 134.845C110 131.591 107.363 128.954 104.109 128.954H102.079C100.975 128.954 100.079 128.059 100.079 126.954V122.531C100.079 100.016 82.8659 81.522 60.8816 79.4907C59.8192 79.3925 58.9798 78.5184 58.9798 77.4514V77.0134Z" fill="#C2B4B4"/>
<rect x="3" y="128.954" width="107" height="11.781" rx="5.89051" fill="#B1A3A3"/>
<path fill-rule="evenodd" clip-rule="evenodd" d="M13.5066 132C13.5066 131.448 13.0589 131 12.5066 131H7C6.44772 131 6 131.448 6 132C6 132.552 6.44772 133 7 133H12.5066C13.0589 133 13.5066 132.552 13.5066 132ZM17.3306 132C17.3306 132.552 17.7783 133 18.3306 133H34.6358C35.188 133 35.6358 132.552 35.6358 132C35.6358 131.448 35.188 131 34.6358 131H18.3306C17.7783 131 17.3306 131.448 17.3306 132Z" fill="white" fill-opacity="0.15"/>
<path fill-rule="evenodd" clip-rule="evenodd" d="M51.7978 68.6219C51.8659 68.5314 51.988 68.5037 52.0915 68.5493C52.2187 68.6053 52.2762 68.7525 52.2341 68.8849C52.1673 69.0947 52.1267 69.3099 52.1132 69.5279C52.0743 70.1561 52.2628 70.7852 52.6595 71.351C52.7298 71.4512 52.8061 71.5488 52.8882 71.6435C53.0546 71.8355 53.1192 72.1017 53.0256 72.3379C52.8765 72.7143 52.408 72.8484 52.1288 72.5552C52.0242 72.4454 51.9272 72.3316 51.8384 72.2144C51.3956 71.6297 51.17 70.9775 51.1837 70.3215C51.1962 69.7236 51.4072 69.1413 51.7978 68.6219ZM54.2022 73.293C54.0947 73.5644 54.2267 73.8737 54.5057 73.9598C54.9253 74.0895 55.3654 74.181 55.8153 74.2317C56.0874 74.2625 56.3198 74.0497 56.3333 73.7763C56.3462 73.5141 56.1525 73.2891 55.8943 73.2414C55.5634 73.1802 55.2409 73.0938 54.9323 72.9835C54.6442 72.8805 54.3149 73.0086 54.2022 73.293Z" fill="black" fill-opacity="0.15"/>
<path fill-rule="evenodd" clip-rule="evenodd" d="M21.9142 109.592C21.0896 109.497 20.5169 108.719 20.7236 107.915C22.0013 102.945 24.7929 98.2932 28.8454 94.4071C29.0954 94.1674 29.3497 93.9311 29.608 93.6983C30.0775 93.2753 30.7869 93.2807 31.2658 93.693L31.8991 94.2381C32.1656 94.4675 32.1639 94.8804 31.9007 95.1136C27.6579 98.8736 24.7668 103.498 23.5138 108.454C23.3311 109.177 22.6545 109.677 21.9142 109.592ZM34.8709 91.6706C35.2979 92.0381 35.9154 92.0759 36.3943 91.7794C39.0681 90.1243 42.0192 88.8051 45.1476 87.8657C45.823 87.6629 46.2035 86.9377 45.9619 86.2752C45.7498 85.6935 45.1288 85.3675 44.5343 85.5408C41.1246 86.5351 37.9173 87.939 35.0131 89.6975C34.2997 90.1294 34.2388 91.1265 34.8709 91.6706ZM55.8904 113.51L55.8924 113.51C55.8924 113.51 55.8924 113.51 55.8924 113.51C55.8924 113.51 55.8924 113.51 55.8923 113.51L55.8904 113.51Z" fill="white" fill-opacity="0.2"/>
</g>
<g filter="url(#filter1_d_1910_19799)">
<path d="M90.6797 146.098C91.7535 146.079 92.0474 144.586 91.0678 144.145C85.7627 141.757 76.8588 137.553 72.7881 134.5C68.0596 130.954 63.9521 125.233 62.4236 122.968C62.0815 122.461 61.3694 122.36 60.9093 122.763C54.472 128.4 50.8972 132.674 45.8658 141.48C45.5608 142.014 45.8092 142.688 46.3932 142.874C48.9624 143.695 55.8082 145.61 64.7881 146C72.7564 146.346 84.3254 146.213 90.6797 146.098Z" fill="#FFEFE7"/>
</g>
<g filter="url(#filter2_d_1910_19799)">
<path fill-rule="evenodd" clip-rule="evenodd" d="M223.328 82.8776C223.328 82.0681 223.836 81.3629 224.498 80.8974C226.044 79.8104 227.053 78.022 227.053 76C227.053 72.6863 224.343 70 221 70C217.657 70 214.947 72.6863 214.947 76C214.947 78.022 215.956 79.8104 217.502 80.8974C218.164 81.3629 218.672 82.0681 218.672 82.8776V83.4838C218.672 84.3212 217.993 85 217.156 85C190.696 85 168.967 105.255 166.629 131.106C166.533 132.165 165.66 133 164.596 133H164.5C162.015 133 160 135.015 160 137.5C160 139.985 162.015 142 164.5 142H277.5C279.985 142 282 139.985 282 137.5C282 135.015 279.985 133 277.5 133C276.849 133 276.314 132.488 276.265 131.839C274.275 105.639 252.386 85 225.677 85H225.328C224.224 85 223.328 84.1046 223.328 83V82.8776Z" fill="#DFD2D2"/>
<rect x="160" y="133" width="122" height="9" rx="4.5" fill="#CFC0C0"/>
<path fill-rule="evenodd" clip-rule="evenodd" d="M268.868 139C268.868 138.448 268.42 138 267.868 138H248C247.448 138 247 138.448 247 139C247 139.552 247.448 140 248 140H267.868C268.42 140 268.868 139.552 268.868 139ZM273.058 139C273.058 139.552 273.506 140 274.058 140H278C278.552 140 279 139.552 279 139C279 138.448 278.552 138 278 138H274.058C273.506 138 273.058 138.448 273.058 139Z" fill="black" fill-opacity="0.15"/>
<path fill-rule="evenodd" clip-rule="evenodd" d="M216.752 75.3807C216.823 75.2472 216.977 75.1847 217.124 75.2195C217.32 75.2658 217.434 75.4663 217.407 75.6653C217.382 75.8387 217.377 76.0116 217.392 76.1829C217.446 76.8315 217.776 77.4338 218.348 77.9287C218.418 77.9891 218.491 78.0478 218.568 78.1044C218.851 78.3143 219.006 78.6689 218.908 79.0073C218.783 79.4406 218.301 79.6711 217.923 79.425C217.721 79.2938 217.536 79.15 217.368 78.9946C216.814 78.4801 216.477 77.8562 216.392 77.1842C216.315 76.5868 216.439 75.9697 216.752 75.3807ZM220.538 79.5705C220.431 79.9383 220.677 80.3162 221.06 80.3294C221.309 80.338 221.561 80.3346 221.813 80.3192C222.128 80.3001 222.351 80.0166 222.32 79.7032C222.291 79.4088 222.046 79.1849 221.751 79.162C221.59 79.1494 221.431 79.1325 221.274 79.1111C220.949 79.0668 220.629 79.2553 220.538 79.5705Z" fill="black" fill-opacity="0.1"/>
<path fill-rule="evenodd" clip-rule="evenodd" d="M247.3 94.7963C247.776 93.8743 247.419 92.7377 246.481 92.2952C244.863 91.5321 243.196 90.8628 241.489 90.293C240.488 89.959 239.43 90.5576 239.153 91.5757C238.882 92.5737 239.464 93.6005 240.444 93.9303C241.905 94.4215 243.336 94.9935 244.733 95.6429C245.681 96.0835 246.822 95.7251 247.3 94.7963ZM251.89 97.8701C251.457 98.7095 251.714 99.7358 252.466 100.307C253.332 100.965 254.175 101.658 254.993 102.385C258.233 105.264 261.016 108.617 263.261 112.323C263.8 113.214 264.952 113.539 265.854 113.017C266.727 112.512 267.04 111.401 266.522 110.535C263.396 105.311 259.338 100.803 254.607 97.2197C253.701 96.5334 252.41 96.8598 251.89 97.8701ZM227.246 135.358L227.246 135.36C227.246 135.36 227.246 135.36 227.246 135.36C227.246 135.36 227.246 135.36 227.246 135.36L227.246 135.358Z" fill="white" fill-opacity="0.2"/>
</g>
<g filter="url(#filter3_d_1910_19799)">
<path d="M199.625 142.048C198.551 142.03 198.315 140.659 199.33 140.309C208.67 137.09 216.638 136.121 222.534 127.317C222.815 126.898 223.361 126.734 223.819 126.943C230.448 129.967 233.505 130.581 237.845 137.899C238.159 138.428 237.915 139.102 237.33 139.286C234.995 140.021 229.136 141.621 221.5 141.953C214.828 142.242 205.248 142.145 199.625 142.048Z" fill="#FFEFE7"/>
</g>
<g filter="url(#filter4_d_1910_19799)">
<path d="M212.937 142.438C211.775 142.357 211.662 140.619 212.8 140.365C219.997 138.761 230.422 136.104 234 133.5C238.076 130.534 240.686 127.436 241.831 125.931C242.198 125.449 242.912 125.357 243.369 125.755C249.781 131.335 251.989 133.576 257.056 140.569C257.492 141.17 257.144 142.013 256.411 142.115C253.371 142.537 246.294 143.387 238 143.5C231.095 143.594 220.186 142.942 212.937 142.438Z" fill="#FFDDCA"/>
</g>
<g filter="url(#filter5_d_1910_19799)">
<path fill-rule="evenodd" clip-rule="evenodd" d="M146 59.0744C146 58.1715 146.614 57.3986 147.447 57.0503C150.178 55.9085 152 53.8498 152 51.5C152 47.9101 147.747 45 142.5 45C137.253 45 133 47.9101 133 51.5C133 53.8498 134.822 55.9085 137.553 57.0503C138.386 57.3986 139 58.1715 139 59.0744V61.2543C139 62.3087 138.178 63.1787 137.128 63.279C106.193 66.2336 82 92.2915 82 124C82 125.934 82.09 127.847 82.2661 129.735C82.3782 130.938 81.4485 132 80.2408 132H74C70.134 132 67 135.134 67 139C67 142.866 70.134 146 74 146H211C214.866 146 218 142.866 218 139C218 135.134 214.866 132 211 132H205.759C204.551 132 203.622 130.938 203.734 129.735C203.91 127.847 204 125.934 204 124C204 91.9618 179.301 65.6924 147.905 63.1944C146.842 63.1097 146 62.234 146 61.167V59.0744Z" fill="#F43F5E"/>
<rect x="67" y="132" width="151" height="14" rx="7" fill="black" fill-opacity="0.06"/>
<path fill-rule="evenodd" clip-rule="evenodd" d="M97.9032 141.5C97.9032 140.672 97.2317 140 96.4032 140H72.5C71.6716 140 71 140.672 71 141.5C71 142.328 71.6716 143 72.5 143H96.4032C97.2317 143 97.9032 142.328 97.9032 141.5ZM102.935 141.5C102.935 142.328 103.607 143 104.435 143H110.5C111.328 143 112 142.328 112 141.5C112 140.672 111.328 140 110.5 140H104.435C103.607 140 102.935 140.672 102.935 141.5Z" fill="black" fill-opacity="0.12"/>
<path fill-rule="evenodd" clip-rule="evenodd" d="M145.473 47.5371C145.612 47.1828 145.415 46.7843 145.043 46.706C144.398 46.5705 143.724 46.4886 143.039 46.463C142.714 46.451 142.454 46.718 142.457 47.0425C142.46 47.3544 142.707 47.6078 143.017 47.6377C143.583 47.6922 144.135 47.7906 144.661 47.9307C144.993 48.0192 145.347 47.8569 145.473 47.5371ZM147.269 48.4342C147.139 48.7655 147.258 49.1378 147.525 49.3737C147.633 49.4694 147.735 49.5681 147.83 49.6695C148.435 50.3136 148.751 51.047 148.748 51.795C148.747 52.0277 148.714 52.2592 148.652 52.4873C148.598 52.6864 148.697 52.9039 148.894 52.9657C149.025 53.0071 149.17 52.968 149.257 52.8599C149.771 52.2138 150.024 51.5043 149.993 50.7899C149.959 50.0107 149.588 49.2523 148.917 48.589C148.739 48.4136 148.542 48.2465 148.328 48.0886C147.954 47.8135 147.439 48.0022 147.269 48.4342Z" fill="white" fill-opacity="0.64"/>
<path fill-rule="evenodd" clip-rule="evenodd" d="M156.695 73.5288C157.01 72.4011 158.181 71.7383 159.296 72.0983C168.087 74.9387 175.996 80.0326 182.225 86.8883C182.503 87.194 182.777 87.5027 183.047 87.8143C183.833 88.7203 183.652 90.0932 182.692 90.8102L181.906 91.3965C181.427 91.7534 180.753 91.6663 180.37 91.2088C174.489 84.1934 166.78 79.0059 158.153 76.1854C157.04 75.8215 156.38 74.6564 156.695 73.5288ZM186.201 96.0156C185.321 96.6721 185.089 97.8878 185.622 98.8474C187.891 102.93 189.561 107.317 190.581 111.872C190.837 113.015 191.934 113.783 193.087 113.577C194.239 113.371 195.011 112.269 194.759 111.125C193.636 106.031 191.771 101.148 189.239 96.627C188.629 95.5384 187.201 95.2695 186.201 96.0156ZM143.002 122.526L143.001 122.531C143.001 122.531 143.001 122.531 143.001 122.531C143.001 122.531 143 122.531 143 122.531L143.002 122.526Z" fill="white" fill-opacity="0.38"/>
</g>
<g filter="url(#filter6_d_1910_19799)">
<path d="M85.3066 146.013C85.4446 146.004 85.5687 146.055 85.431 146.043C85.1692 146.019 84.4308 145.898 82.5 145.5C75.3391 144.022 59.2797 140.118 55 137C50.0516 133.395 46.8569 129.794 45.6023 128.264C45.2581 127.844 44.6457 127.748 44.2001 128.058C39.6071 131.248 34.4941 134.67 27.0113 142.278C26.5284 142.769 26.6805 143.576 27.3222 143.822C30.1952 144.925 37.6345 147.366 47.5 147.5C59.6149 147.665 82.9484 146.167 85.3066 146.013Z" fill="#FFDDCA"/>
</g>
<path opacity="0.36" d="M147 23.1906C147 29.5666 142.308 38.0679 139.462 35.5449C136.615 33.0219 142.24 29.5098 143.872 23.7219C145.371 18.4086 142.188 14.3963 139.181 9.90731C136.775 6.31615 138.659 3.53133 139.462 3C135.01 9.90731 147 12.8859 147 23.1906Z" fill="#F43F5E"/>
<path opacity="0.36" d="M173.5 44C174.565 49.3961 169 54 167.5 52.5C166 51 169.916 49.3653 171 45.5C172.331 40.7534 167.889 37.4946 165.892 34.4968C164.295 32.0985 165.116 31.0826 166.225 30C162.898 34.7466 172.169 37.2548 173.5 44Z" fill="#F43F5E"/>
<path opacity="0.36" d="M117.5 47C118.565 52.3961 113 57 111.5 55.5C110 54 113.916 52.3653 115 48.5C116.331 43.7534 111.889 40.4946 109.892 37.4968C108.295 35.0985 109.116 34.0826 110.225 33C106.898 37.7466 116.169 40.2548 117.5 47Z" fill="#F43F5E"/>
</g>
<defs>
<filter id="filter0_d_1910_19799" x="-1" y="61" width="115" height="83.7351" filterUnits="userSpaceOnUse" color-interpolation-filters="sRGB">
<feFlood flood-opacity="0" result="BackgroundImageFix"/>
<feColorMatrix in="SourceAlpha" type="matrix" values="0 0 0 0 0 0 0 0 0 0 0 0 0 0 0 0 0 0 127 0" result="hardAlpha"/>
<feOffset/>
<feGaussianBlur stdDeviation="2"/>
<feComposite in2="hardAlpha" operator="out"/>
<feColorMatrix type="matrix" values="0 0 0 0 0.392157 0 0 0 0 0.439216 0 0 0 0 0.403922 0 0 0 0.25 0"/>
<feBlend mode="normal" in2="BackgroundImageFix" result="effect1_dropShadow_1910_19799"/>
<feBlend mode="normal" in="SourceGraphic" in2="effect1_dropShadow_1910_19799" result="shape"/>
</filter>
<filter id="filter1_d_1910_19799" x="45.1489" y="121.929" width="47.1016" height="24.8793" filterUnits="userSpaceOnUse" color-interpolation-filters="sRGB">
<feFlood flood-opacity="0" result="BackgroundImageFix"/>
<feColorMatrix in="SourceAlpha" type="matrix" values="0 0 0 0 0 0 0 0 0 0 0 0 0 0 0 0 0 0 127 0" result="hardAlpha"/>
<feOffset/>
<feGaussianBlur stdDeviation="0.292969"/>
<feComposite in2="hardAlpha" operator="out"/>
<feColorMatrix type="matrix" values="0 0 0 0 0.392157 0 0 0 0 0.439216 0 0 0 0 0.403922 0 0 0 0.25 0"/>
<feBlend mode="normal" in2="BackgroundImageFix" result="effect1_dropShadow_1910_19799"/>
<feBlend mode="normal" in="SourceGraphic" in2="effect1_dropShadow_1910_19799" result="shape"/>
</filter>
<filter id="filter2_d_1910_19799" x="156" y="66" width="130" height="80" filterUnits="userSpaceOnUse" color-interpolation-filters="sRGB">
<feFlood flood-opacity="0" result="BackgroundImageFix"/>
<feColorMatrix in="SourceAlpha" type="matrix" values="0 0 0 0 0 0 0 0 0 0 0 0 0 0 0 0 0 0 127 0" result="hardAlpha"/>
<feOffset/>
<feGaussianBlur stdDeviation="2"/>
<feComposite in2="hardAlpha" operator="out"/>
<feColorMatrix type="matrix" values="0 0 0 0 0.392157 0 0 0 0 0.439216 0 0 0 0 0.403922 0 0 0 0.25 0"/>
<feBlend mode="normal" in2="BackgroundImageFix" result="effect1_dropShadow_1910_19799"/>
<feBlend mode="normal" in="SourceGraphic" in2="effect1_dropShadow_1910_19799" result="shape"/>
</filter>
<filter id="filter3_d_1910_19799" x="198.096" y="126.266" width="40.4731" height="16.4648" filterUnits="userSpaceOnUse" color-interpolation-filters="sRGB">
<feFlood flood-opacity="0" result="BackgroundImageFix"/>
<feColorMatrix in="SourceAlpha" type="matrix" values="0 0 0 0 0 0 0 0 0 0 0 0 0 0 0 0 0 0 127 0" result="hardAlpha"/>
<feOffset/>
<feGaussianBlur stdDeviation="0.292969"/>
<feComposite in2="hardAlpha" operator="out"/>
<feColorMatrix type="matrix" values="0 0 0 0 0.392157 0 0 0 0 0.439216 0 0 0 0 0.403922 0 0 0 0.25 0"/>
<feBlend mode="normal" in2="BackgroundImageFix" result="effect1_dropShadow_1910_19799"/>
<feBlend mode="normal" in="SourceGraphic" in2="effect1_dropShadow_1910_19799" result="shape"/>
</filter>
<filter id="filter4_d_1910_19799" x="211.417" y="124.919" width="46.416" height="19.1759" filterUnits="userSpaceOnUse" color-interpolation-filters="sRGB">
<feFlood flood-opacity="0" result="BackgroundImageFix"/>
<feColorMatrix in="SourceAlpha" type="matrix" values="0 0 0 0 0 0 0 0 0 0 0 0 0 0 0 0 0 0 127 0" result="hardAlpha"/>
<feOffset/>
<feGaussianBlur stdDeviation="0.292969"/>
<feComposite in2="hardAlpha" operator="out"/>
<feColorMatrix type="matrix" values="0 0 0 0 0.392157 0 0 0 0 0.439216 0 0 0 0 0.403922 0 0 0 0.25 0"/>
<feBlend mode="normal" in2="BackgroundImageFix" result="effect1_dropShadow_1910_19799"/>
<feBlend mode="normal" in="SourceGraphic" in2="effect1_dropShadow_1910_19799" result="shape"/>
</filter>
<filter id="filter5_d_1910_19799" x="63" y="41" width="159" height="109" filterUnits="userSpaceOnUse" color-interpolation-filters="sRGB">
<feFlood flood-opacity="0" result="BackgroundImageFix"/>
<feColorMatrix in="SourceAlpha" type="matrix" values="0 0 0 0 0 0 0 0 0 0 0 0 0 0 0 0 0 0 127 0" result="hardAlpha"/>
<feOffset/>
<feGaussianBlur stdDeviation="2"/>
<feComposite in2="hardAlpha" operator="out"/>
<feColorMatrix type="matrix" values="0 0 0 0 0.392157 0 0 0 0 0.439216 0 0 0 0 0.403922 0 0 0 0.25 0"/>
<feBlend mode="normal" in2="BackgroundImageFix" result="effect1_dropShadow_1910_19799"/>
<feBlend mode="normal" in="SourceGraphic" in2="effect1_dropShadow_1910_19799" result="shape"/>
</filter>
<filter id="filter6_d_1910_19799" x="26.1416" y="127.29" width="59.9351" height="20.8089" filterUnits="userSpaceOnUse" color-interpolation-filters="sRGB">
<feFlood flood-opacity="0" result="BackgroundImageFix"/>
<feColorMatrix in="SourceAlpha" type="matrix" values="0 0 0 0 0 0 0 0 0 0 0 0 0 0 0 0 0 0 127 0" result="hardAlpha"/>
<feOffset/>
<feGaussianBlur stdDeviation="0.292969"/>
<feComposite in2="hardAlpha" operator="out"/>
<feColorMatrix type="matrix" values="0 0 0 0 0.392157 0 0 0 0 0.439216 0 0 0 0 0.403922 0 0 0 0.25 0"/>
<feBlend mode="normal" in2="BackgroundImageFix" result="effect1_dropShadow_1910_19799"/>
<feBlend mode="normal" in="SourceGraphic" in2="effect1_dropShadow_1910_19799" result="shape"/>
</filter>
</defs>
</svg>
