<?xml version="1.0" encoding="utf-8"?><svg viewBox="0 0 32 32" xmlns="http://www.w3.org/2000/svg" xmlns:xlink="http://www.w3.org/1999/xlink"><style>:root>svg{display:none}:root>svg:target{display:block}</style><svg fill="currentColor" viewBox="0 0 32 32" id="alcohol" xmlns="http://www.w3.org/2000/svg"><path d="M26.956 4.093c-.133-.4-.533-.667-1.066-.667h-6.8c-.267 0-.534.267-.534.533 0 .267.267.534.534.534l6.8-.134-1.067 1.2h-12l-.667-.933h5.067c.267 0 .533-.267.533-.533 0-.267-.267-.534-.533-.534h-5.867l-.666-1.2c-.267-.266-.667-.4-.934-.266-.133.266-.266.533-.133.8l.267.533H6.023c-.4 0-.8.267-1.067.667 0 .4 0 .8.267 1.2l1.2 1.333 5.066 5.6 2.4 2.667c.4.533.667 1.2.667 1.866v4.667c0 .267.267.534.534.534.266 0 .533-.267.533-.534V16.76c0-.934-.4-1.867-.933-2.667.4.133.933.133 1.333.133.4 0 .933 0 1.333-.133-.667.666-.933 1.6-.933 2.666v9.6c0 .267 0 .4.133.534l.4.4 3.467 1.333h-8.8l3.466-1.333c.134-.133.4-.267.4-.4.134-.134.134-.4.134-.534v-3.066c0-.267-.267-.534-.534-.534-.266 0-.533.267-.533.534v2.933l-4.533 1.867c-.4.133-.667.533-.533 1.067.133.4.4.8.933.8h11.2c.4 0 .8-.267.933-.8.133-.4-.133-.934-.533-1.067l-4.4-1.733v-9.6c0-.667.267-1.334.666-1.867l2.4-2.667 4.934-5.6 1.2-1.333c.267-.4.267-.8.133-1.2Zm-20.933.533h4.667l.666 1.067H7.09L6.023 4.626Zm13.733 6.8c-.933 1.067-2.267 1.733-3.733 1.733-1.467 0-2.8-.666-3.733-1.733l-.134-.133-4.133-4.534h4.267l1.066 1.6c-.8.8-1.066 2-.4 2.8.267.534.934.8 1.734.8.4 0 .666 0 1.066-.266l.267.667c.133.133.267.266.533.266.133 0 .267 0 .267-.133.267-.133.267-.534.133-.8l-.4-.534c.267-.266.534-.666.667-1.066.133-.667.133-1.2-.267-1.734-.533-.8-1.733-1.066-2.8-.666l-.667-.934h10.267l-4 4.667Zm-3.6-1.733c-.133.266-.266.667-.666.8-.667.4-1.334.4-1.734 0-.267-.4 0-1.2.534-1.6.266-.134.666-.267.933-.267.266 0 .666.133.8.4.267.133.267.4.133.667Z" fill="#000"/></svg><svg fill="currentColor" viewBox="0 0 24 24" id="back" xmlns="http://www.w3.org/2000/svg"><path d="M6.314 12a1 1 0 0 0 1 1h12a1 1 0 0 0 0-2h-12a1 1 0 0 0-1 1Z" fill="#000"/><path d="M5.707 12.607a1 1 0 0 0 1.414 0l4.243-4.243A1 1 0 0 0 9.95 6.95l-4.243 4.242a1 1 0 0 0 0 1.415Z" fill="#000"/><path d="M5.707 11.192a1 1 0 0 0 0 1.415l4.24 4.24a1 1 0 0 0 1.414-1.415l-4.24-4.24a1 1 0 0 0-1.414 0Z" fill="#000"/></svg><svg fill="currentColor" viewBox="0 0 32 32" id="burger" xmlns="http://www.w3.org/2000/svg"><path fill-rule="evenodd" clip-rule="evenodd" d="M12.617 18.2v.002h.002l.002-.004v-.002h-.002l-.002.003Zm5.659-3.769c0-.349.255-.633.569-.633.314 0 .569.284.569.633 0 .349-.255.633-.57.633-.314 0-.568-.284-.568-.633Zm-6.236.607c0-.348.255-.632.57-.632.313 0 .568.284.568.632 0 .349-.255.633-.569.633-.314 0-.569-.284-.569-.633Zm3.414-5.061c0-.349.255-.633.569-.633.314 0 .569.284.569.633 0 .348-.255.633-.57.633-.313 0-.568-.284-.568-.633Zm6.827 2.53c0-.348.255-.632.57-.632.313 0 .568.284.568.633 0 .348-.255.632-.569.632-.314 0-.569-.284-.569-.632ZM8.626 11.9c0 .349.255.633.57.633.314 0 .568-.284.568-.633 0-.348-.254-.632-.569-.632-.314 0-.569.284-.569.632Zm13.758 7.257h-.002l-1.96 1.883c-.176.17-.069.49.164.49h5.837c.881 0 1.628-.763 1.628-1.709 0-.937-.693-1.759-1.628-1.759h-1.32c-.986 0-1.97.418-2.719 1.095ZM27.8 22.21v1.665c.043 1.333-.987 2.438-2.196 2.438h-1.585a.519.519 0 0 1 0-1.037h1.54c.742 0 1.354-.61 1.354-1.405v-1.083c0-.171-.135-.295-.28-.281-.069.006-.139.01-.21.01h-7.446a.237.237 0 0 0-.164.067l-1.245 1.195a.625.625 0 0 1-.863.003l-1.314-1.25a.237.237 0 0 0-.163-.066h-5.172a.493.493 0 0 1 0-.987h3.547c.233 0 .34-.322.163-.49l-1.87-1.779h-.001c-.75-.73-1.736-1.148-2.722-1.148H5.577c-.881 0-1.628.763-1.628 1.709 0 .945.747 1.708 1.628 1.708h2.555a.493.493 0 0 1 0 .987H5.577a2.34 2.34 0 0 1-.253-.014c-.146-.015-.282.109-.282.281v1.138c0 .795.611 1.404 1.354 1.404H22.17a.519.519 0 0 1 0 1.037H6.396c-1.255 0-2.241-1.056-2.241-2.39V22.14a.294.294 0 0 0-.104-.227 2.76 2.76 0 0 1-.989-2.142c0-.874.387-1.65.989-2.143a.293.293 0 0 0 .104-.227v-1.73c0-5.66 5.053-9.983 11.845-9.983 6.792 0 11.845 4.323 11.845 9.983v1.73c0 .092.04.175.104.227a2.76 2.76 0 0 1 .988 2.143 2.84 2.84 0 0 1-1.032 2.21.293.293 0 0 0-.105.229Zm-.842-5.402v-1.137c0-5.174-4.736-8.997-10.912-8.997-3.095 0-5.83.956-7.796 2.558-1.966 1.603-3.163 3.856-3.163 6.439v1.133c0 .17.134.294.278.281.07-.006.14-.01.212-.01h20.846c.086 0 .17.005.253.014.146.016.282-.108.282-.28Zm-9.657 5.877L21.72 18.5a.148.148 0 0 0 .015-.198c.044.056.131.06.141-.011.016-.11-.053-.23-.174-.23h-9.13c-.169 0-.236.234-.112.348l4.515 4.275a.233.233 0 0 0 .326 0Z" fill="#000"/></svg><svg fill="currentColor" viewBox="0 0 24 24" id="card-deck" xmlns="http://www.w3.org/2000/svg"><path fill-rule="evenodd" clip-rule="evenodd" d="M5 2.5h4A2.5 2.5 0 0 1 11.5 5v4A2.5 2.5 0 0 1 9 11.5H5A2.5 2.5 0 0 1 2.5 9V5A2.5 2.5 0 0 1 5 2.5Zm10 0h4A2.5 2.5 0 0 1 21.5 5v4a2.5 2.5 0 0 1-2.5 2.5h-4A2.5 2.5 0 0 1 12.5 9V5A2.5 2.5 0 0 1 15 2.5Zm-10 10h4a2.5 2.5 0 0 1 2.5 2.5v4A2.5 2.5 0 0 1 9 21.5H5A2.5 2.5 0 0 1 2.5 19v-4A2.5 2.5 0 0 1 5 12.5Zm10 0h4a2.5 2.5 0 0 1 2.5 2.5v4a2.5 2.5 0 0 1-2.5 2.5h-4a2.5 2.5 0 0 1-2.5-2.5v-4a2.5 2.5 0 0 1 2.5-2.5ZM5 4a1 1 0 0 0-1 1v4a1 1 0 0 0 1 1h4a1 1 0 0 0 1-1V5a1 1 0 0 0-1-1H5Zm10 0a1 1 0 0 0-1 1v4a1 1 0 0 0 1 1h4a1 1 0 0 0 1-1V5a1 1 0 0 0-1-1h-4ZM4 15a1 1 0 0 1 1-1h4a1 1 0 0 1 1 1v4a1 1 0 0 1-1 1H5a1 1 0 0 1-1-1v-4Zm11-1a1 1 0 0 0-1 1v4a1 1 0 0 0 1 1h4a1 1 0 0 0 1-1v-4a1 1 0 0 0-1-1h-4Z" fill="#000"/></svg><svg fill="currentColor" viewBox="0 0 24 24" id="close" xmlns="http://www.w3.org/2000/svg"><path d="M18.295 7.115a.997.997 0 1 0-1.41-1.41l-4.178 4.178a1 1 0 0 1-1.414 0L7.115 5.705a.997.997 0 0 0-1.41 1.41l4.178 4.178a1 1 0 0 1 0 1.414l-4.178 4.178a.997.997 0 0 0 1.41 1.41l4.178-4.178a1 1 0 0 1 1.414 0l4.178 4.178a.997.997 0 1 0 1.41-1.41l-4.178-4.178a1 1 0 0 1 0-1.414l4.178-4.178Z" fill="#000"/></svg><svg fill="currentColor" viewBox="0 0 32 32" id="desserts" xmlns="http://www.w3.org/2000/svg"><path d="m29.054 15.157-6.394-3.678a.555.555 0 1 0-.554.963l4.582 2.635H3.813c.328-3.776 2.615-7.103 6.207-8.98a1.14 1.14 0 0 1 1.085.02l.09.05a.556.556 0 0 0 .543-.968l-.087-.05a2.23 2.23 0 0 0-2.147-.036C5.432 7.24 2.813 11.266 2.667 15.619v11.064c0 .92.749 1.666 1.667 1.666h23.333c.919 0 1.666-.747 1.666-1.666V15.636a.554.554 0 0 0-.28-.48Zm-4.533 1.892a1.977 1.977 0 0 0-1.977 1.972v2.845a.865.865 0 0 1-1.728 0v-1.422a1.98 1.98 0 0 0-1.978-1.978 1.977 1.977 0 0 0-1.972 1.978.868.868 0 0 1-.867.866.866.866 0 0 1-.86-.866V19.02a1.975 1.975 0 0 0-3.95 0v.6c0 .232-.09.45-.25.61a.88.88 0 0 1-.617.257.875.875 0 0 1-.867-.874 1.985 1.985 0 0 0-1.972-1.954 1.98 1.98 0 0 0-1.978 1.978v1.65a.865.865 0 0 1-1.473.613.86.86 0 0 1-.253-.602v-5.105H28.22v3.427a.865.865 0 1 1-1.727 0v-.6a1.974 1.974 0 0 0-1.973-1.972ZM4.645 23.266a1.977 1.977 0 0 0 1.972-1.978v-1.65c0-.478.389-.867.867-.867.468 0 .854.385.86.875a1.988 1.988 0 0 0 1.979 1.953 1.978 1.978 0 0 0 1.977-1.978v-.6a.865.865 0 0 1 1.728 0v1.423c0 .527.205 1.025.58 1.398.373.373.868.58 1.392.58a1.98 1.98 0 0 0 1.978-1.978.865.865 0 1 1 1.727 0v1.422c0 .524.206 1.02.576 1.389a1.939 1.939 0 0 0 1.396.583 1.978 1.978 0 0 0 1.978-1.972V19.02a.865.865 0 0 1 1.728 0v.6c0 1.428 1.495 2.433 2.84 1.77v3.625H3.779v-1.96c.27.132.561.21.866.21Zm23.578 3.417c0 .306-.25.555-.556.555H4.335a.556.556 0 0 1-.556-.555v-.556h24.444v.556Z" fill="#000"/><path d="M21.95 5.519a2.921 2.921 0 0 0-3.771-1.674c-.72.278-1.3.83-1.615 1.534a2.924 2.924 0 0 0-2.228-.054 2.921 2.921 0 0 0-1.672 3.772c1.235 3.208 6.356 3.936 6.574 3.965a.556.556 0 0 0 .5-.192c.14-.168 3.449-4.144 2.213-7.351Zm-2.87 6.39c-1.058-.197-4.53-1.003-5.38-3.211a1.809 1.809 0 0 1 1.036-2.336 1.82 1.82 0 0 1 1.801.292.557.557 0 0 0 .902-.346 1.815 1.815 0 0 1 1.834-1.548c.237.006.471.059.688.155a1.795 1.795 0 0 1 .953 1.003c.85 2.202-1.183 5.135-1.834 5.991Z" fill="#000"/><path d="M19.224 5.878c-.03 0-.108.006-.139.01-.302.051-.528.34-.478.642.03.18.137.327.283.405.024.235-.006.62-.22 1.222a.556.556 0 1 0 1.045.375c.325-.906.38-1.652.163-2.213a.682.682 0 0 0-.654-.441ZM5.905 12.293a1.68 1.68 0 1 0 2.87-1.191 1.688 1.688 0 0 0-1.191-.495 1.684 1.684 0 0 0-1.679 1.686Zm2.253 0a.572.572 0 0 1-1.142 0c0-.317.255-.575.568-.575.316 0 .574.258.574.575Zm1.873-2.695a.558.558 0 1 0 0-1.116.558.558 0 0 0 0 1.117Zm1.901 2.012a.56.56 0 0 0 .559-.558.56.56 0 0 0-.559-.558.56.56 0 0 0-.558.558.56.56 0 0 0 .558.559Zm-1.074 2.362a.561.561 0 0 0 .558-.56.56.56 0 0 0-.558-.558.56.56 0 0 0-.558.559c0 .306.251.559.558.559Zm2.381-1.117a.56.56 0 0 0-.559.558c0 .306.252.559.559.559a.561.561 0 0 0 .558-.56.56.56 0 0 0-.558-.557Zm2.381 1.113a.558.558 0 1 0 0-1.116.558.558 0 0 0 0 1.116Zm4.769-.238a.56.56 0 0 0 .558.558.56.56 0 0 0 .558-.559.56.56 0 0 0-.558-.558.56.56 0 0 0-.558.558Z" fill="#000"/></svg><svg fill="currentColor" viewBox="0 0 32 32" id="drinks" xmlns="http://www.w3.org/2000/svg"><path d="M20.95 29.85h-7.733c-.267 0-.534-.133-.667-.267-.133-.133-.267-.4-.4-.666l-1.333-11.734c-2.8 0-4.934-2.266-4.934-5.066S8.15 7.05 10.95 7.05c2.533 0 4.667 1.867 5.067 4.4h3.2v-6.4c0-.133 0-.267.133-.4s.133-.267.4-.267l4.4-2.133a.85.85 0 0 1 .8 0c.267.133.533.267.667.533l.4 1.067a.85.85 0 0 1 0 .8c-.134.267-.267.533-.534.667L22.55 6.65v4.8h.267c.266 0 .666.133.8.4.133.267.266.533.266.8l-.8 7.067c0 .266-.266.533-.666.533-.267 0-.534-.267-.534-.667l.267-2.4c-.267 0-.4.134-.667.267-.4.133-.8.4-1.733.4s-1.333-.267-1.733-.4c-.267-.133-.534-.267-1.2-.267-.534 0-.8.134-1.2.267-.4.133-.8.4-1.734.4-.8 0-1.333-.267-1.733-.4.267-.133.133-.267-.133-.267l1.333 11.6h7.733l.534-4.4c0-.266.266-.533.533-.533s.533.267.533.533l-.533 4.4a.733.733 0 0 1-.4.667c-.267.267-.533.4-.8.4Zm-3.867-13.867c.8 0 1.334.267 1.734.4.266.134.533.267 1.2.267.666 0 .8-.133 1.2-.267.266-.133.666-.4 1.333-.4l.4-3.466H11.617l.266 3.466c.667 0 .934.267 1.334.4.266.134.533.267 1.2.267.666 0 .8-.133 1.2-.267.133-.133.666-.4 1.466-.4ZM10.95 8.117c-2.267 0-4 1.733-4 4 0 2.133 1.733 3.866 3.733 4v-1.2c-1.466-.134-2.533-1.467-2.533-2.934 0-1.6 1.333-2.933 2.933-2.933 1.334 0 2.534.933 2.8 2.267h1.067c-.4-1.734-2-3.2-4-3.2Zm0 2.133c-1.067 0-1.867.8-1.867 1.867 0 .8.534 1.6 1.334 1.733v-1.2c0-.267 0-.667.266-.8.267-.267.534-.4.8-.4h1.2c-.266-.667-.933-1.2-1.733-1.2Zm9.333 1.2h1.2v-5.2c0-.267.134-.4.267-.533l3.2-1.6-.4-1.067-4.267 2v6.4Zm-2.266 16.533c-.267 0-.4-.133-.534-.266l-1.466-1.467c-.134-.133-.267-.4-.267-.533 0-.267.133-.4.267-.534l1.466-1.466c.267-.267.8-.267 1.2 0l1.467 1.466c.133.134.267.4.267.534 0 .266-.134.4-.267.533l-1.467 1.467c-.266.133-.4.266-.666.266Zm-1.067-2.266 1.067 1.066 1.066-1.066-1.066-1.067-1.067 1.067Zm-1.2-2.4c-.267 0-.4-.134-.533-.267l-1.467-1.467c-.133-.133-.267-.4-.267-.533 0-.267.134-.4.267-.533l1.467-1.467c.266-.267.8-.267 1.2 0l1.466 1.467c.134.133.267.4.267.533s-.133.4-.267.533l-1.466 1.467c-.267.133-.534.267-.667.267Zm-1.067-2.267 1.067 1.067 1.067-1.067-1.067-1.067-1.067 1.067Z" fill="#000"/></svg><svg fill="currentColor" viewBox="0 0 24 24" id="drop-down" xmlns="http://www.w3.org/2000/svg"><path d="M8.367 10.64A1 1 0 0 1 9.135 9h5.73a1 1 0 0 1 .768 1.64l-2.865 3.438a1 1 0 0 1-1.536 0L8.367 10.64Z" fill="#000"/></svg><svg fill="currentColor" viewBox="0 0 32 32" id="fish" xmlns="http://www.w3.org/2000/svg"><path fill-rule="evenodd" clip-rule="evenodd" d="m28.029 16.72-.008.005.008-.004Z" fill="#000"/><path fill-rule="evenodd" clip-rule="evenodd" d="M20.553 7.084a.542.542 0 0 1 .022.009c2.77 1.064 5.05 2.833 6.3 5.028a10.039 10.039 0 0 0 1.88 2.381c.249.233.434.501.557.752.118.24.203.509.203.747 0 .239-.086.508-.204.747-.124.25-.309.517-.557.75a10.121 10.121 0 0 0-1.877 2.38c-1.253 2.202-3.544 3.975-6.324 5.04-1.376.527-2.88.884-4.451 1.034-.554.053-1.117.08-1.685.08-.642-.027-2.056-.105-2.584-.196a16.319 16.319 0 0 1-3.172-.815.531.531 0 0 1-.117-.936 5.002 5.002 0 0 0 2.175-4.126c0-.368-.044-.726-.124-1.071-.046-.199-.3-.24-.43-.084a6.8 6.8 0 0 1-5.248 2.478h-1.9a.531.531 0 0 1-.532-.531 6.78 6.78 0 0 1 1.779-4.573c.09-.1.09-.254 0-.354a6.78 6.78 0 0 1-1.779-4.573.53.53 0 0 1 .532-.531h1.9a6.8 6.8 0 0 1 5.247 2.477c.13.157.385.115.431-.083.08-.346.124-.703.124-1.072 0-1.711-.861-3.22-2.175-4.126a.531.531 0 0 1 .117-.936 16.318 16.318 0 0 1 3.172-.814 17.043 17.043 0 0 1 2.583-.197c.559-.01 1.357.05 1.686.081 1.572.15 3.075.507 4.451 1.034Zm-8.559 17.702c.782.12 1.592.183 2.423.183.534 0 1.064-.025 1.584-.075a15.905 15.905 0 0 0 4.172-.969c2.61-.999 4.677-2.634 5.78-4.572.577-.807 1.789-2.45 2.068-2.628l.008-.004c.145-.136.256-.297.33-.445.036-.074.061-.14.076-.192a.42.42 0 0 0 .017-.083l-.002-.021a1.166 1.166 0 0 0-.09-.256 1.564 1.564 0 0 0-.33-.445 11.101 11.101 0 0 1-2.078-2.632c-1.104-1.938-3.17-3.572-5.779-4.57A15.93 15.93 0 0 0 16 7.107a16.532 16.532 0 0 0-1.722-.074 15.974 15.974 0 0 0-3.94.53c-.185.049-.243.281-.115.424a6.04 6.04 0 0 1 1.558 4.055c0 .944-.231 1.82-.608 2.605a.531.531 0 0 1-.479.302h-.322c-.19 0-.364-.1-.46-.264-1.008-1.733-2.858-2.903-4.995-2.903h-1.07a.241.241 0 0 0-.243.272 5.794 5.794 0 0 0 1.947 3.547.531.531 0 0 1 0 .8 5.795 5.795 0 0 0-1.947 3.546.241.241 0 0 0 .243.273h1.07c2.137 0 3.987-1.17 4.996-2.903a.531.531 0 0 1 .459-.264h.322c.205 0 .39.117.48.301.376.785.607 1.662.607 2.605a6.04 6.04 0 0 1-1.558 4.056c-.128.142-.07.375.114.424a15.48 15.48 0 0 0 1.633.343l.024.004Z" fill="#000"/><path fill-rule="evenodd" clip-rule="evenodd" d="M20.831 24.674a.531.531 0 0 1-.95-.476l.006-.013a18.35 18.35 0 0 0 1.915-8.184c0-2.938-.69-5.717-1.915-8.184a.532.532 0 1 1 .96-.455A19.411 19.411 0 0 1 22.866 16c0 3.101-.727 6.038-2.02 8.646l-.01.018a.421.421 0 0 1-.004.009Zm-8.553 1.024A13.167 13.167 0 0 0 16.53 16c0-3.83-1.64-7.285-4.253-9.697a.531.531 0 1 0-.725.777A12.105 12.105 0 0 1 15.468 16a12.105 12.105 0 0 1-3.931 8.934.532.532 0 0 0 .74.763Z" fill="#000"/><path d="M16.478 6.263a16.275 16.275 0 0 1 3.218 9.488.247.247 0 0 1-.248.25h-.813c0-3.409-1.119-6.559-3.01-9.105a.531.531 0 1 1 .853-.633Z" fill="#000"/><path d="M19.504 18.522a.531.531 0 0 1-.606.443l-.444-.606.181-2.358h.813c.138 0 .25.112.248.25-.011.76-.075 1.519-.192 2.27Z" fill="#000"/><path d="M18.898 18.965a.531.531 0 0 1-.444-.606l.444.606Z" fill="#000"/><path d="M18.454 18.359c.121-.78.182-1.569.181-2.358l-.18 2.358Z" fill="#000"/><path fill-rule="evenodd" clip-rule="evenodd" d="M15.734 25.849a.531.531 0 0 0 .744-.11c.594-.8 1.114-1.651 1.553-2.545a.531.531 0 0 0-.953-.469 15.343 15.343 0 0 1-1.453 2.38.531.531 0 0 0 .11.744Z" fill="#000"/><path d="M26.563 16a.75.75 0 1 0-1.501.001.75.75 0 0 0 1.5 0Zm-8.135 5.279a.528.528 0 1 0 0-1.056.528.528 0 0 0 0 1.056Z" fill="#000"/></svg><svg fill="currentColor" viewBox="0 0 32 32" id="fruit" xmlns="http://www.w3.org/2000/svg"><path fill-rule="evenodd" clip-rule="evenodd" d="M15.51 7.05c.084.536-.438.897-.882 1.202-4.111 2.91-10.288-.112-11.455-5.645a.501.501 0 0 1 .641-.58c1.264.403 2.758.262 4.251.12 3.296-.31 6.596-.622 7.446 4.902ZM6.606 5.675c.223-.054.262-.36.062-.473-.41-.232-.81-.476-1.199-.73-.214-.14-.47.082-.342.303.192.331.407.65.645.955a.243.243 0 0 0 .251.086l.583-.141Zm2.142.561a.252.252 0 0 0-.159-.013l-1.457.353c-.196.048-.255.294-.094.415 1.629 1.224 4.115 1.829 6.161.928.219-.096.154-.397-.082-.43-1.49-.208-2.963-.65-4.369-1.253Zm2.99-.152c.027.08.093.141.176.16a13.88 13.88 0 0 0 2.181.346.24.24 0 0 0 .252-.296c-.544-2.278-1.607-3.115-3.315-3.27a.24.24 0 0 0-.245.322l.95 2.738Zm-1.61-.376c.194.07.38-.117.312-.313L9.678 3.2a.248.248 0 0 0-.251-.167c-.391.028-.791.068-1.196.109-.616.061-1.245.124-1.875.148-.249.01-.351.339-.141.473a20.021 20.021 0 0 0 3.913 1.945ZM22.243 25.03a.562.562 0 1 1-.071 1.123.562.562 0 0 1 .07-1.123Zm-.771 1.571a.56.56 0 0 1 .469.81.563.563 0 1 1-.469-.81Zm-.48-21.375c-.797.91-2.044 2.575-2.062 3.92-.002.128.108.225.236.229 5.356.137 9.671 4.536 9.671 9.925v.766c0 5.475-4.454 9.93-9.929 9.93h-.766c-5.475 0-9.93-4.455-9.93-9.93V19.3c0-4.643 3.205-8.552 7.519-9.632.144-.036.235-.19.228-.34-.045-1.068.855-3.78 2.818-5.5a.5.5 0 0 1 .538-.079l1.51.693a.5.5 0 0 1 .166.784Zm-1.367.105a.253.253 0 0 0-.095-.383l-.162-.074a.245.245 0 0 0-.281.053c-.637.678-1.935 2.28-2.095 4.225a.244.244 0 0 0 .27.258c.122-.01.243-.02.365-.025.153-.008.267-.148.264-.302-.028-1.202.966-2.738 1.734-3.752Zm-.717 23.664c4.924 0 8.93-4.005 8.93-8.929V19.3c0-4.133-2.823-7.618-6.642-8.631-.24-.064-.394.234-.223.415 1.32 1.392 2.267 3.105 2.785 5.061.67 2.535.58 5.332-.255 7.876a.5.5 0 1 1-.95-.312c1.376-4.191.718-10.059-3.877-13.293a.25.25 0 0 0-.144-.045c-5.926.039-9.32 4.444-9.32 8.93v.765c0 4.924 4.007 8.93 8.93 8.93h.766Z" fill="#000"/></svg><svg fill="currentColor" viewBox="0 0 32 32" id="hot-dish" xmlns="http://www.w3.org/2000/svg"><path d="M28.868 28.813h-15.87a.422.422 0 1 1 0-.845h15.87a.705.705 0 0 0 .704-.704.14.14 0 0 0-.14-.14H2.568a.14.14 0 0 0-.14.14c0 .388.315.704.703.704h8.177a.423.423 0 0 1 0 .845H3.132a1.55 1.55 0 0 1-1.549-1.55c0-.4.24-.745.584-.9.17-1.343 1.345-2.205 2.556-2.35.12-.676.35-1.54.734-2.504h-.84c-.291.24-.952.724-1.547.724-.449 0-.824-.18-1.087-.519-.265-.343-.4-.838-.4-1.472 0-.633.135-1.129.4-1.472a1.324 1.324 0 0 1 1.087-.518c.595 0 1.256.483 1.547.723h1.477c.233 0 .544-.153.893-.375 1.342-1.994 3.604-4.29 7.135-4.96-.604-.51-.922-1.313-.922-2.374a.423.423 0 0 1 .422-.423c1.237 0 2.121.432 2.603 1.245.482-.813 1.367-1.245 2.604-1.245a.422.422 0 0 1 .422.423c0 1.95-1.075 3.025-3.026 3.025-2.958 0-5.136 1.175-6.694 2.613.847-.46 1.812-.808 2.926-.808 2.032 0 3.713 1.075 4.385 2.805a4.168 4.168 0 0 1-.119 3.335c1.029-.261 2.163-.257 2.913-.212 1.071.066 2.18.258 3.12.527a6.088 6.088 0 0 1-.846-3.11.973.973 0 0 1 1.662-.69l.824.824a.422.422 0 1 1-.597.597l-.824-.824a.12.12 0 0 0-.14-.028.123.123 0 0 0-.08.121 5.245 5.245 0 0 0 1.553 3.739l1.03 1.03a.422.422 0 1 1-.598.597l-.988-.988c-.97-.477-2.632-.858-4.167-.951-1.821-.112-3.255.18-3.934.803a.706.706 0 0 0-.237.523 1.08 1.08 0 0 0 .329.759l1.325 1.325h1.753c-.473-.51-.72-1.245-.72-2.18a.422.422 0 0 1 .422-.423c1.805 0 2.86.92 3.008 2.603h5.315a1.25 1.25 0 0 0 1.17-.782 1.31 1.31 0 0 0 .097-.485v-.085a1.23 1.23 0 0 0-.37-.81l-2.761-2.761a.422.422 0 1 1 .597-.598l2.436 2.436c-.237-2.087-.899-3.827-1.975-5.19-1.425-1.804-3.595-2.965-6.451-3.449a.423.423 0 0 1 .141-.833c5.982 1.015 9.17 4.858 9.227 11.117a2.189 2.189 0 0 1-.418 1.44h.892c.543 0 .986.442.986.986a1.55 1.55 0 0 1-1.549 1.549Zm-18.793-2.535h5.799l-.728-.728a1.952 1.952 0 0 1-.56-1.093 4.84 4.84 0 0 0-1.802.015c-1.095.224-2.003.83-2.709 1.806Zm-3.343 0h.271c-.473-.51-.72-1.245-.72-2.18a.422.422 0 0 1 .422-.423c1.522 0 2.51.653 2.872 1.866.805-1.002 1.84-1.651 3.037-1.896a5.662 5.662 0 0 1 2.07-.03c.088-.215.222-.408.394-.565l.003-.003c1.122-1.027 1.495-2.498.974-3.84-.544-1.398-1.922-2.266-3.598-2.266-1.69 0-3.068.992-4.174 1.788-.847.61-1.515 1.09-2.189 1.09H4.461a.423.423 0 0 1-.283-.108c-.285-.255-.817-.615-1.108-.615-.426 0-.642.386-.642 1.146 0 .76.216 1.146.642 1.146.29 0 .823-.36 1.109-.615a.423.423 0 0 1 .282-.108h1.633c.888 0 1.466.551 2.077 1.135.5.479 1.068 1.02 1.935 1.426a.42.42 0 0 1 .205.561.422.422 0 0 1-.562.204c-.993-.464-1.64-1.083-2.161-1.58-.497-.475-.834-.78-1.23-.872-.657 1.555-.893 2.834-.893 3.472 0 .699.568 1.267 1.267 1.267Zm-3.69 0h2.001a2.101 2.101 0 0 1-.421-1.393c-.726.15-1.394.648-1.58 1.393Zm15.927-1.735c.116 1.041.67 1.596 1.712 1.712-.117-1.041-.67-1.595-1.712-1.712Zm-11.818 0c.117 1.041.67 1.596 1.712 1.712-.117-1.041-.67-1.595-1.712-1.712Zm11.232-12.832c-1.041.117-1.595.67-1.712 1.712 1.041-.116 1.595-.67 1.712-1.712Zm-4.315 0c.116 1.042.67 1.596 1.712 1.712-.117-1.041-.671-1.595-1.712-1.712Zm7.226-.803a.422.422 0 0 1-.299-.124c-1.301-1.301-1.301-2.734 0-4.035.969-.97.969-1.872 0-2.84a.422.422 0 0 1 .597-.598c1.301 1.301 1.301 2.734 0 4.035-.969.97-.969 1.872 0 2.84a.422.422 0 0 1-.298.722Zm-5.069 0a.423.423 0 0 1-.298-.124c-1.301-1.301-1.301-2.734 0-4.035.969-.97.969-1.872 0-2.84a.422.422 0 0 1 .597-.598c1.3 1.301 1.3 2.734 0 4.035-.969.97-.969 1.872 0 2.84a.422.422 0 0 1-.299.722Zm-5.068 0a.423.423 0 0 1-.299-.124c-1.3-1.301-1.3-2.734 0-4.035.97-.97.97-1.872 0-2.84a.422.422 0 0 1 .598-.598c1.3 1.301 1.3 2.734 0 4.035-.97.97-.97 1.872 0 2.84a.422.422 0 0 1-.3.722Z" fill="#000"/></svg><svg fill="currentColor" viewBox="0 0 24 24" id="info" xmlns="http://www.w3.org/2000/svg"><path d="M12.9 12v4a.9.9 0 0 1-1.8 0v-4a.9.9 0 1 1 1.8 0ZM12 8.9a.9.9 0 1 1 0-1.8.9.9 0 0 1 0 1.8Z" fill="#000"/><path fill-rule="evenodd" clip-rule="evenodd" d="M2.1 12c0-5.465 4.435-9.9 9.9-9.9 5.465 0 9.9 4.435 9.9 9.9 0 5.465-4.435 9.9-9.9 9.9-5.465 0-9.9-4.435-9.9-9.9Zm1.8 0c0 4.465 3.635 8.1 8.1 8.1s8.1-3.635 8.1-8.1-3.635-8.1-8.1-8.1S3.9 7.535 3.9 12Z" fill="#000"/></svg><svg fill="currentColor" viewBox="0 0 24 24" id="list" xmlns="http://www.w3.org/2000/svg"><path fill-rule="evenodd" clip-rule="evenodd" d="M5 2.499h14a2.5 2.5 0 0 1 2.5 2.5v4a2.5 2.5 0 0 1-2.5 2.5H5a2.5 2.5 0 0 1-2.5-2.5v-4a2.5 2.5 0 0 1 2.5-2.5ZM5 12.5h14a2.5 2.5 0 0 1 2.5 2.5v4a2.5 2.5 0 0 1-2.5 2.5H5A2.5 2.5 0 0 1 2.5 19v-4A2.5 2.5 0 0 1 5 12.5ZM5 4a1 1 0 0 0-1 1v4a1 1 0 0 0 1 1h14a1 1 0 0 0 1-1V5a1 1 0 0 0-1-1H5Zm0 10a1 1 0 0 0-1 1v4a1 1 0 0 0 1 1h14a1 1 0 0 0 1-1v-4a1 1 0 0 0-1-1H5Z" fill="#000"/></svg><svg fill="currentColor" viewBox="0 0 32 32" id="meat" xmlns="http://www.w3.org/2000/svg"><path fill-rule="evenodd" clip-rule="evenodd" d="M29.333 11.653v3.997c-.047 3.369-2.825 6.085-6.184 6.066-2.313-.009-4.444.922-6.067 2.454a8.511 8.511 0 0 1-5.867 2.332c-4.723 0-8.602-3.925-8.548-8.648v-3.808c-.001-4.741 3.84-8.548 8.547-8.548h11.964c3.444 0 6.155 2.797 6.155 6.155Zm-3.988-4.538v9.067l.34-.2c2.85-1.667 3.356-5.522 1.062-7.848a5.041 5.041 0 0 0-1.063-.822l-.339-.197Zm-1.143 9.446V6.743l-.189-.032c-.456-.076-.772-.074-1.368-.07a46.18 46.18 0 0 1-1.06 0l-.228-.002v10.184l.261-.041a8.502 8.502 0 0 1 1.34-.115h.09c.298-.004.577-.007.966-.074l.188-.032Zm-7.976-9.92H13.38v14.494l.301-.107a7.378 7.378 0 0 0 2.469-1.464l.075-.067V6.64Zm3.988 0h-2.845v11.893l.35-.232a9.995 9.995 0 0 1 2.34-1.14l.155-.052V6.641Zm-7.976 5.036V6.641h-1.024c-4.034 0-7.355 3.28-7.404 7.313-.053 4.349 3.767 7.944 8.226 7.45l.202-.022v-4.968l-.34.197c-.45.262-.961.4-1.482.4a2.968 2.968 0 0 1-2.964-2.965 2.968 2.968 0 0 1 2.965-2.965c.52 0 1.031.137 1.481.399l.34.197ZM4.33 19.081l-.404.175c.605 3.348 3.592 6.103 7.288 6.103a7.375 7.375 0 0 0 5.082-2.02c1.822-1.72 4.18-2.76 6.88-2.766 2.648 0 4.833-2.098 5.003-4.684l.043-.659-.438.494c-1.145 1.292-2.76 2.084-4.677 2.084-2.093 0-3.537.645-4.694 1.43-.526.357-.993.742-1.43 1.103l-.121.1c-.476.392-.914.744-1.372 1.01-3.65 2.119-8.467 1.271-11.16-2.37Zm6.085-3.214a1.823 1.823 0 0 0 1.822-1.821 1.823 1.823 0 0 0-1.822-1.822 1.823 1.823 0 0 0-1.82 1.822c0 1.004.816 1.82 1.82 1.82Z"/></svg><svg fill="currentColor" viewBox="0 0 24 24" id="minus" xmlns="http://www.w3.org/2000/svg"><path d="M19 12a1 1 0 0 1-1 1H6a1 1 0 0 1 0-2h12a1 1 0 0 1 1 1Z" fill="#000"/></svg><svg fill="currentColor" viewBox="0 0 24 24" id="notification" xmlns="http://www.w3.org/2000/svg"><path d="m19.847 15.72-1.169-1.184a.87.87 0 0 1-.253-.616v-3.58c0-2.89-1.941-5.337-4.595-6.122.024-.12.037-.24.037-.363A1.863 1.863 0 0 0 12 2a1.863 1.863 0 0 0-1.831 2.218c-2.653.786-4.594 3.232-4.594 6.122v3.58a.87.87 0 0 1-.253.616l-1.17 1.184a2.203 2.203 0 0 0-.47 2.442 2.226 2.226 0 0 0 2.083 1.377h3.446A2.807 2.807 0 0 0 12 22a2.808 2.808 0 0 0 2.79-2.46h3.445c.927 0 1.725-.529 2.083-1.378a2.203 2.203 0 0 0-.47-2.442ZM11.51 3.854a.49.49 0 1 1 .968.116 6.655 6.655 0 0 0-.954 0 .472.472 0 0 1-.014-.116ZM12 20.633a1.435 1.435 0 0 1-1.395-1.094h2.79A1.435 1.435 0 0 1 12 20.633Zm7.05-3a.867.867 0 0 1-.815.539H5.765a.868.868 0 0 1-.815-.539.859.859 0 0 1 .184-.956l1.17-1.184c.417-.422.647-.98.647-1.573v-3.58c0-2.768 2.265-5.02 5.049-5.02 2.784 0 5.05 2.252 5.05 5.02v3.58c0 .592.23 1.15.647 1.573l1.169 1.184c.382.387.238.83.184.956Z" fill="#000"/></svg><svg fill="currentColor" viewBox="0 0 32 32" id="pasta" xmlns="http://www.w3.org/2000/svg"><path d="M20.198 8.402a2.48 2.48 0 0 1 1.705-.676h6.534a.375.375 0 0 0 .375-.375V5.796a.376.376 0 0 0-.375-.375h-6.534c-.634 0-1.244-.24-1.705-.675-1.223-1.15-2.601-.823-3.047-.88a.727.727 0 0 0-.724-.678h-.854a.722.722 0 0 0-.386.111.821.821 0 0 0-.415-.111h-.654a.827.827 0 0 0-.812.678h-2.742a1.154 1.154 0 0 0 0 2.305h1.174v.805h-1.174c-.635 0-1.153.517-1.153 1.152 0 .636.518 1.153 1.153 1.153h1.174v5.843a1.154 1.154 0 0 0 1.555 1.08v2.25c-.21.215-.396.45-.557.703-3.661-1.484-7.73 1.07-7.982 5.018H4.34a1.154 1.154 0 0 0-.356 2.25 2.711 2.711 0 0 0 2.688 2.387H20.38a.375.375 0 1 0 0-.75H6.672a1.96 1.96 0 0 1-1.92-1.582h22.496a1.96 1.96 0 0 1-1.92 1.582h-3.313a.375.375 0 1 0 0 .75h3.313a2.711 2.711 0 0 0 2.688-2.388 1.154 1.154 0 0 0-.357-2.249h-2.07a5.821 5.821 0 0 0-3.722-4.316c1.216-1.005 1.211-2.673 1.21-2.756a.375.375 0 0 0-.375-.37c-1.043 0-1.882.321-2.493.955a3.328 3.328 0 0 0-.641.974 4.266 4.266 0 0 0-2.415-1.404V9.281c.452-.058 1.821.272 3.045-.88Zm-.514-3.11c.603.568 1.391.88 2.219.88h6.159v.804h-6.16c-.827 0-1.615.312-2.218.879-.97.913-2.064.621-2.531.675V4.617c.472.055 1.561-.237 2.531.676Zm-9.522-.273c0-.222.18-.402.402-.402h2.729v.808h-1.127a.374.374 0 0 0-.053-.004h-1.549a.402.402 0 0 1-.402-.402Zm.402 3.511a.402.402 0 0 1 0-.804h1.174v.804h-1.174Zm2.327 6.996a.402.402 0 0 1-.402-.402V6.175h.804v8.95c0 .221-.18.401-.402.401Zm9.446 8.65c-.974-2.07-3.927-2.07-4.9 0h-.868a3.524 3.524 0 0 1 3.318-2.36c1.506 0 2.834.968 3.317 2.36h-.867Zm-.87 0h-3.162a1.958 1.958 0 0 1 3.163 0Zm-5.957-2.68a5.792 5.792 0 0 0-.848-1.069 1.958 1.958 0 0 1 2.962-.459 5.876 5.876 0 0 0-2.114 1.529Zm-4.951-2.011a5.073 5.073 0 0 1 5.052 4.69h-.806c-.247-2.81-3.133-4.62-5.775-3.604a.375.375 0 1 0 .27.7c2.15-.826 4.507.622 4.75 2.904h-.81a2.711 2.711 0 0 0-2.681-2.332 2.711 2.711 0 0 0-2.682 2.332h-.81a3.49 3.49 0 0 1 .994-2.093.375.375 0 0 0-.533-.528 4.233 4.233 0 0 0-1.215 2.621h-.806a5.073 5.073 0 0 1 5.052-4.69Zm1.92 4.69H8.64a1.96 1.96 0 0 1 1.92-1.581c.95 0 1.745.681 1.92 1.581Zm15.583 1.153c0 .221-.18.402-.402.402H4.34a.402.402 0 0 1 0-.804h23.32c.221 0 .402.18.402.402Zm-3.241-1.153h-.83a4.276 4.276 0 0 0-4.104-3.11 4.279 4.279 0 0 0-3.676 2.105 5.756 5.756 0 0 0-.323-.953c2.64-3.383 7.978-2.14 8.933 1.958Zm-2.529-6.67a3.51 3.51 0 0 1-.165.669c-.242.68-.662 1.157-1.25 1.422a5.843 5.843 0 0 0-.738-.08 5.683 5.683 0 0 0-.047-.09c.228-.84.8-1.77 2.2-1.921Zm-3.002 2.037c-.283.03-.578.081-.88.16a2.704 2.704 0 0 0-2.075-.968 2.71 2.71 0 0 0-2.245 1.194 5.824 5.824 0 0 0-.671-.443c1.407-2.1 4.508-2.062 5.871.057Zm-3.692-2.3v-4.31a.375.375 0 1 0-.75 0v4.514a4.166 4.166 0 0 0-.805.4V4.013c0-.041.034-.075.075-.075h.654c.042 0 .075.034.075.075v7.283a.375.375 0 1 0 .751 0V4.013c0-.02 0-.04-.002-.06l.001-.015h.805V17.18a4.29 4.29 0 0 0-.804.063Z" fill="#000"/></svg><svg fill="currentColor" viewBox="0 0 32 32" id="pizza" xmlns="http://www.w3.org/2000/svg"><path fill-rule="evenodd" clip-rule="evenodd" d="M11.797 14.925c.314.313.74.49 1.183.489 1.481 0 2.239-1.801 1.184-2.856a1.661 1.661 0 0 0-1.184-.49c-1.487 0-2.23 1.809-1.183 2.857Zm.708-.708a.673.673 0 1 1 .952-.952.673.673 0 1 1-.952.952Zm-.939 5.876c-1.056 1.055-.297 2.855 1.183 2.855s2.238-1.801 1.184-2.855a1.676 1.676 0 0 0-2.367 0Zm.708 1.659a.673.673 0 1 1 .952-.952.673.673 0 0 1-.952.952Zm5-3.328c-1.48 0-2.24-1.8-1.184-2.856a1.673 1.673 0 1 1 1.184 2.856Zm0-2.346a.673.673 0 1 0 0 1.345.673.673 0 0 0 0-1.345Z" fill="#000"/><path d="m13.176 18.791-.001-.005a.5.5 0 0 1 .401-.58l1-.183a.5.5 0 0 1 .206.979l-.024.004-1 .188a.5.5 0 0 1-.582-.403Zm6.207-.416a.5.5 0 0 1 .4-.583l1-.183a.5.5 0 1 1 .182.983l-1 .184a.5.5 0 0 1-.582-.401ZM10.5 16.703a.5.5 0 0 1 .4-.581l1-.184a.5.5 0 0 1 .182.984l-1 .183a.501.501 0 0 1-.583-.402Zm4.993-2.81a.5.5 0 0 1 .4-.582l1-.184a.5.5 0 1 1 .181.984l-1 .187a.5.5 0 0 1-.58-.4v-.005Zm-3.231-2.955a.5.5 0 0 1 .402-.582l1-.187a.5.5 0 0 1 .18.984l-.999.183a.5.5 0 0 1-.583-.398ZM8.678 23.286a.5.5 0 0 1 .402-.582l1-.184a.5.5 0 0 1 .18.984l-1 .183a.5.5 0 0 1-.582-.401Zm-2.866 1.523v-.002a.5.5 0 0 1 .4-.582l1-.183a.5.5 0 1 1 .21.977l-.006.002h-.003c-.006.001-.013.003-.02.003l-1 .188a.5.5 0 0 1-.58-.403Z" fill="#000"/><path fill-rule="evenodd" clip-rule="evenodd" d="M11.41 27.617c0 .936.76 1.695 1.695 1.695a1.7 1.7 0 0 0 1.697-1.697v-3.18c0-.18.11-.342.279-.407l1.239-.482a.526.526 0 0 0 .11-.043l4.354-1.692c.024-.01.05-.016.075-.023a.506.506 0 0 0 .094-.037.636.636 0 0 1 .07-.033l1.719-.668c.03-.012.063-.02.095-.028a.508.508 0 0 0 .119-.046c.029-.016.058-.032.088-.044l3.66-1.422a.507.507 0 0 0 .047-.019l2.09-.812.005-.001.002-.002a.5.5 0 0 0 .278-.65c-1.927-4.798-5.03-8.902-9.072-12.017-.26-.2-.516-.39-.766-.57a.432.432 0 0 0-.61.111l-.063.092a.443.443 0 0 0 .11.609c3.657 2.64 7.008 6.536 9.102 11.267a.432.432 0 0 1-.241.577l-.393.153a.443.443 0 0 1-.559-.225 28.563 28.563 0 0 0-.922-1.773.432.432 0 0 0-.588-.163l-.109.061a.443.443 0 0 0-.166.605c.352.622.627 1.162.831 1.584.11.228 0 .499-.235.59l-1.958.761c-.259.101-.533-.064-.528-.341.002-.13.009-.28.02-.459.1-1.596-.104-2.114-1.718-2.918-.402-.198-.782-.387-.954-.625-.203-.282-.27-.754-.336-1.21-.227-1.583-.54-2.052-2.294-2.508-1.073-.278-1.197-.33-1.646-1.56-.524-1.433-.902-1.892-2.84-1.975a.347.347 0 0 1-.301-.494l.564-1.283a.432.432 0 0 1 .594-.211c4.895 2.547 8.044 6.304 9.9 9.165a.44.44 0 0 0 .585.146l.11-.061a.432.432 0 0 0 .155-.613c-2.776-4.277-6.518-7.564-10.384-9.571a.444.444 0 0 1-.204-.572l.16-.362a.43.43 0 0 1 .574-.22 22.26 22.26 0 0 1 2.34 1.269.444.444 0 0 0 .602-.125l.063-.093a.432.432 0 0 0-.126-.61c-1.932-1.208-3.29-1.712-3.366-1.74a.501.501 0 0 0-.63.27l-.881 2.002a.541.541 0 0 0-.027.06L7.914 16.42a.532.532 0 0 0-.016.034l-2.17 4.928a.521.521 0 0 0-.012.032L2.88 27.855a.5.5 0 0 0 .639.668l2.758-1.072c.27-.105.565.082.688.343a1.695 1.695 0 0 0 3.229-.717v-.85c0-.18.11-.342.278-.407l.342-.133c.287-.112.596.1.596.408v1.522Zm-4.585-5.335a.484.484 0 0 0-.518.268l-1.601 3.637a.437.437 0 0 0 .558.584l1.861-.722a.5.5 0 0 1 .464.054c.236.162.226.4.216.662a2.32 2.32 0 0 0 0 .312.696.696 0 1 0 1.391 0v-1.49a.5.5 0 0 1 .32-.467l2.215-.86a.5.5 0 0 1 .679.464v2.893a.696.696 0 1 0 1.39 0v-3.821a.5.5 0 0 1 .32-.466l1.148-.447a.486.486 0 0 0 .294-.484 2.947 2.947 0 0 1 .853-2.216c1.257-1.257 3.27-1.08 4.33.2.133.16.35.235.545.16l.388-.151c.208-.081.32-.306.296-.527-.038-.358-.015-.727.007-1.069.03-.48.057-.908-.095-1.174-.18-.312-.597-.518-1.05-.743-.49-.243-1.023-.507-1.342-.95-.346-.48-.438-1.12-.52-1.683-.068-.476-.129-.898-.329-1.122-.241-.272-.699-.391-1.193-.52-.53-.138-1.102-.288-1.495-.646-.451-.414-.681-1.04-.88-1.582-.162-.44-.303-.825-.526-.99-.334-.247-.85-.27-1.384-.295-.184-.009-.37-.017-.553-.035a.476.476 0 0 0-.486.271l-2.977 6.764a.484.484 0 0 0 .151.563c1.398 1.149 1.605 3.342.226 4.72a3.173 3.173 0 0 1-2.703.908Zm2.163-4.532c-.179-.219-.509-.134-.622.124L7.09 20.772c-.113.257.045.557.326.542 1.73-.087 2.676-2.219 1.572-3.564Zm10.45 3.512c.276-.107.364-.453.118-.617a1.928 1.928 0 0 0-2.944 1.145c-.07.287.228.482.503.375l2.324-.903Z" fill="#000"/></svg><svg fill="currentColor" viewBox="0 0 24 24" id="plus" xmlns="http://www.w3.org/2000/svg"><path d="M19 12a1 1 0 0 1-1 1h-4a1 1 0 0 0-1 1v4a1 1 0 0 1-2 0v-4a1 1 0 0 0-1-1H6a1 1 0 0 1 0-2h4a1 1 0 0 0 1-1V6a1 1 0 1 1 2 0v4a1 1 0 0 0 1 1h4a1 1 0 0 1 1 1Z" fill="#000"/></svg><svg fill="currentColor" viewBox="0 0 32 32" id="salads" xmlns="http://www.w3.org/2000/svg"><path d="M28.813 14.391h-.039c.333-.439.531-.986.531-1.578 0-.636-.233-1.248-.647-1.723.08-.367.143-.738.188-1.111a9.84 9.84 0 0 0 .077-1.416.52.52 0 0 0-.5-.5 9.616 9.616 0 0 0-1.29.063c-.172.018-.35.042-.536.07a3.198 3.198 0 0 0-2.151-2.367 2.78 2.78 0 0 0-2.736-2.337 2.778 2.778 0 0 0-2.736 2.338c-.487.155-.93.425-1.29.788a9.088 9.088 0 0 0-1.251-1.51.52.52 0 0 0-.707 0c-.076.07-1.44 1.352-2.123 3.191a2.747 2.747 0 0 0-3.46-.534 2.73 2.73 0 0 0-3.344-.74 2.397 2.397 0 0 0-3.051.275 2.397 2.397 0 0 0-.274 3.05 2.731 2.731 0 0 0 .736 3.337c-.135.22-.239.456-.308.704h-.715a.52.52 0 0 0-.52.52v3.299c0 4.106 3.277 7.461 7.353 7.588v1.162a1.55 1.55 0 0 0 1.548 1.548h8.35a1.55 1.55 0 0 0 1.548-1.548v-1.162c4.36-.125 7.867-3.71 7.867-8.1v-2.787a.52.52 0 0 0-.52-.52Zm-.549-1.578a1.58 1.58 0 0 1-.987 1.463 7.508 7.508 0 0 0 .957-1.767c.02.1.03.202.03.304Zm-1.02-3.653c.242-.026.456-.04.631-.05a10.374 10.374 0 0 1-.299 2.034c-.266 1.059-.752 2.212-1.636 3.096l-.054.054-.046.045-.005.005-.012.012-.038.035h-1.038a4.852 4.852 0 0 0-1.999-3.348c1.363-1.36 3.402-1.764 4.497-1.883ZM16.33 14.391a2.684 2.684 0 0 0-.762-1.384 2.687 2.687 0 0 0-1.882-.764c-.707 0-1.375.271-1.882.764a2.68 2.68 0 0 0-.761 1.384H9.896a3.82 3.82 0 0 1 .254-.888.51.51 0 0 0 .043-.1 3.821 3.821 0 0 1 3.493-2.233l.055.002a3.83 3.83 0 0 1 2.634 1.086.516.516 0 0 0 .11.112 3.811 3.811 0 0 1 .992 2.021H16.33Zm-1.077 0H12.12a1.65 1.65 0 0 1 1.567-1.107 1.65 1.65 0 0 1 1.567 1.107Zm3.275 0a4.85 4.85 0 0 0-.048-.298 1.67 1.67 0 0 1 1.425-.81c.727 0 1.341.459 1.567 1.108h-2.944Zm4.02 0a2.685 2.685 0 0 0-.76-1.384 2.687 2.687 0 0 0-1.883-.764 2.71 2.71 0 0 0-1.8.69 4.853 4.853 0 0 0-.58-.936 3.8 3.8 0 0 1 2.38-.826 3.87 3.87 0 0 1 1.538.316.52.52 0 0 0 .117.052l.101.05c.03.021.063.038.097.052a3.814 3.814 0 0 1 1.938 2.75h-1.147Zm-2.995-7.635a.52.52 0 0 0 .428-.508 1.733 1.733 0 0 1 1.729-1.715c.946 0 1.721.77 1.729 1.715a.52.52 0 0 0 .428.508 2.148 2.148 0 0 1 1.71 1.646c-1.127.285-2.347.795-3.347 1.7v-2.51a.52.52 0 0 0-1.04 0v2.71a4.898 4.898 0 0 0-2.253-.077c-.019-.982-.316-1.89-.7-2.66a2.133 2.133 0 0 1 1.316-.809Zm-3.473-.513c.615.695 1.817 2.281 1.817 4.078v.137l-.004.103c-.396.18-.765.41-1.098.688a4.842 4.842 0 0 0-2.51-1.082c.001-.074 0-.149-.005-.223.15-1.64 1.228-3.056 1.8-3.701ZM5.485 13.468a.52.52 0 0 0-.29-.382 1.69 1.69 0 0 1-.662-2.489.52.52 0 0 0-.057-.662 1.352 1.352 0 0 1 .008-1.9 1.352 1.352 0 0 1 1.9-.007.52.52 0 0 0 .662.057 1.69 1.69 0 0 1 2.491.66.52.52 0 0 0 .834.15 1.7 1.7 0 0 1 2.379.014 1.7 1.7 0 0 1 .486 1.03c-.006.07-.01.141-.012.213a4.851 4.851 0 0 0-2.94 1.358c-.27.264-.51.558-.714.876l-1.764-1.764a.52.52 0 0 0-.736.736l2.017 2.016c-.117.33-.199.67-.243 1.017H5.008c.082-.17.193-.327.333-.467a.52.52 0 0 0 .144-.456Zm14.433 14h-8.35a.508.508 0 0 1-.508-.508v-1.158h9.365v1.158c0 .28-.227.507-.507.507Zm8.375-9.77a7.07 7.07 0 0 1-7.063 7.064H10.259a6.56 6.56 0 0 1-6.552-6.552v-2.778h24.586v2.267Z" fill="#000"/><path d="M11.529 23.183h1.092a.52.52 0 0 0 0-1.04H11.53a5.147 5.147 0 0 1-5.116-4.545.52.52 0 0 0-1.033.12 6.188 6.188 0 0 0 6.149 5.465Zm3.173.017a.52.52 0 1 0 0-1.04.52.52 0 0 0 0 1.04Z" fill="#000"/></svg><svg fill="currentColor" viewBox="0 0 32 32" id="sandwich" xmlns="http://www.w3.org/2000/svg"><path fill-rule="evenodd" clip-rule="evenodd" d="M28.51 20.308c0 .718-.278 1.394-.782 1.905a2.721 2.721 0 0 1 1.09 2.173 2.717 2.717 0 0 1-2.714 2.714h-.032c-.695 1.184-1.933 1.9-3.348 1.9H7.078a3.9 3.9 0 0 1-3.896-3.895v-1.533a.38.38 0 1 1 .762 0v1.533a3.137 3.137 0 0 0 3.134 3.133h15.646c1.291 0 2.4-.74 2.895-1.934a3.085 3.085 0 0 0-.679-3.415L9.293 7.242a3.085 3.085 0 0 0-3.414-.679 3.085 3.085 0 0 0-1.935 2.895v12.337a.381.381 0 0 1-.762 0V9.458c0-1.304.609-2.46 1.633-3.176a2.717 2.717 0 0 1 4.517-2.504 2.695 2.695 0 0 1 1.9-.778c.725 0 1.406.282 1.918.795a2.72 2.72 0 0 1 .785 1.694 2.725 2.725 0 0 1 2.663.69c.456.456.73 1.061.784 1.694a2.725 2.725 0 0 1 2.663.69 2.71 2.71 0 0 1 .786 2.144 2.711 2.711 0 0 1 2.804 3.45 2.728 2.728 0 0 1 1.694.785c.705.705.954 1.733.69 2.663a2.725 2.725 0 0 1 1.694.784c.513.513.795 1.194.795 1.919ZM11.682 8.555l5.16 5.16a4.91 4.91 0 0 0-5.16-5.159ZM25.48 22.351c1.063 1.063 1.414 2.556.95 3.96a1.954 1.954 0 0 0 1.627-1.924c0-.763-.45-1.46-1.145-1.777a.382.382 0 0 1-.05-.666 1.94 1.94 0 0 0 .886-1.635c0-.522-.203-1.012-.571-1.38a1.96 1.96 0 0 0-1.673-.55.382.382 0 0 1-.39-.563 1.958 1.958 0 0 0-.321-2.335 1.936 1.936 0 0 0-1.674-.55.382.382 0 0 1-.389-.563 1.953 1.953 0 0 0-2.267-2.823.38.38 0 0 1-.473-.478 1.947 1.947 0 0 0-.482-1.965 1.958 1.958 0 0 0-2.334-.322.38.38 0 0 1-.563-.39 1.96 1.96 0 0 0-.55-1.672 1.958 1.958 0 0 0-2.335-.323.38.38 0 0 1-.563-.389 1.96 1.96 0 0 0-.55-1.673 1.954 1.954 0 0 0-2.964.242.381.381 0 0 1-.613.008 1.938 1.938 0 0 0-1.557-.774 1.954 1.954 0 0 0-1.947 2.075l.02-.009.036-.015a3.835 3.835 0 0 1 4.245.844l1.163 1.163a5.673 5.673 0 0 1 6.537 6.537l.254.254c.313-.053.632-.08.95-.08 1.749 0 3.373.79 4.455 2.165a.38.38 0 1 1-.599.471 4.878 4.878 0 0 0-4.117-1.867l5.159 5.159a4.911 4.911 0 0 0-.256-1.85.38.38 0 0 1 .72-.246 5.653 5.653 0 0 1 .225 2.785l1.156 1.155ZM8.489 11.579 5.428 14.64a.38.38 0 0 1-.643-.344.381.381 0 0 1 .104-.195l3.063-3.062a.38.38 0 0 1 .539.539Zm-3.477 6.72a.38.38 0 0 1-.235-.352.38.38 0 0 1 .111-.27l5.84-5.839a.38.38 0 0 1 .54.539l-5.841 5.84a.381.381 0 0 1-.415.082Zm.146 3.604a.38.38 0 0 1-.381-.381c0-.101.04-.198.111-.27l8.35-8.349a.381.381 0 0 1 .538.539l-8.35 8.35a.38.38 0 0 1-.268.11Zm0 3.575a.38.38 0 0 1-.381-.381c0-.101.04-.198.111-.27l10.137-10.136a.382.382 0 0 1 .65.27c0 .1-.04.197-.11.268L5.426 25.366a.38.38 0 0 1-.27.112Zm1.395 1.26 10.26-10.26a.38.38 0 0 1 .539.54l-10.26 10.26a.379.379 0 0 1-.481.046.38.38 0 0 1-.058-.586Zm3.559.018 8.489-8.49a.38.38 0 0 1 .539.539l-8.49 8.49a.379.379 0 0 1-.48.046.382.382 0 0 1-.058-.585Zm3.575 0 5.873-5.874a.38.38 0 0 1 .539.539l-5.873 5.873a.379.379 0 0 1-.481.047.382.382 0 0 1-.058-.585Zm3.47.194a.382.382 0 0 1 .105-.195l2.637-2.636a.38.38 0 0 1 .538.538L17.8 27.294a.379.379 0 0 1-.48.047.38.38 0 0 1-.163-.39Z" fill="#000"/></svg><svg fill="currentColor" viewBox="0 0 24 24" id="search" xmlns="http://www.w3.org/2000/svg"><path d="M13.254 2.25a8.25 8.25 0 0 0-6.33 13.537l-4.702 4.68a.75.75 0 0 0 .532 1.283.748.748 0 0 0 .533-.218l4.717-4.687a8.25 8.25 0 1 0 5.25-14.595Zm0 15a6.75 6.75 0 1 1 0-13.5 6.75 6.75 0 0 1 0 13.5Z" fill="#000"/></svg><svg fill="currentColor" viewBox="0 0 32 32" id="soup" xmlns="http://www.w3.org/2000/svg"><path fill-rule="evenodd" clip-rule="evenodd" d="M16 29.813c-2.089 0-3.58-.44-4.551-.884a2.631 2.631 0 0 1-1.54-2.394v-.28a12.401 12.401 0 0 1-6.284-10.798c0-1.915 1.538-3.526 3.743-4.631C9.601 9.706 12.653 9.028 16 9.028c1.826 0 3.562.202 5.123.566a.457.457 0 0 1-.206.89A21.81 21.81 0 0 0 16 9.942c-3.236 0-6.143.658-8.224 1.7-2.105 1.056-3.236 2.428-3.24 3.809v.025c.006.785.37 1.561 1.082 2.288.72.735 1.777 1.399 3.1 1.93a.457.457 0 0 1-.34.848c-1.4-.563-2.577-1.287-3.41-2.138a5.68 5.68 0 0 1-.069-.071C6.173 23.285 10.66 26.944 16 26.944c5.34 0 9.828-3.659 11.101-8.612-.64.674-1.488 1.265-2.469 1.757-2.233 1.118-5.285 1.797-8.632 1.797-2.084 0-4.05-.263-5.775-.73a.457.457 0 0 1 .238-.882c1.642.444 3.528.698 5.537.698 3.236 0 6.143-.658 8.224-1.7 2.105-1.055 3.236-2.428 3.24-3.808v-.009c-.002-.849-.421-1.689-1.247-2.466-.827-.78-2.037-1.469-3.535-1.995a.457.457 0 0 1 .302-.862c1.577.554 2.91 1.3 3.857 2.191.949.893 1.534 1.959 1.534 3.134v.008a12.401 12.401 0 0 1-6.285 10.79v.28a2.631 2.631 0 0 1-1.539 2.394c-.97.443-2.462.884-4.551.884Zm5.168-3.085a1.718 1.718 0 0 1-.995 1.37c-.853.39-2.217.8-4.173.8s-3.32-.41-4.173-.8a1.718 1.718 0 0 1-.995-1.37A12.307 12.307 0 0 0 16 27.858c1.845 0 3.595-.405 5.168-1.13ZM16 20.258c-2.944 0-5.825-.584-7.905-1.626-.845-.423-1.541-.915-2.034-1.44-.487-.52-.81-1.114-.81-1.735 0-.852.605-1.66 1.463-2.322a.457.457 0 0 1 .556.724c-.787.607-1.108 1.18-1.108 1.598 0 .198.071.433.237.694.144-.251.33-.493.547-.723.443-.469 1.037-.908 1.743-1.293 1.925-1.047 4.59-1.632 7.311-1.632s5.386.585 7.31 1.632c.707.385 1.3.824 1.744 1.293.217.23.403.472.547.723.166-.261.237-.496.237-.694 0-.298-.16-.68-.564-1.11-.398-.425-.998-.857-1.777-1.247-1.921-.963-4.654-1.53-7.497-1.53-2.696 0-5.296.51-7.197 1.386a.456.456 0 1 1-.381-.83c2.048-.943 4.783-1.469 7.578-1.469 2.945 0 5.826.584 7.905 1.625.845.424 1.541.915 2.034 1.44.487.52.81 1.114.81 1.735s-.323 1.216-.81 1.735c-.493.525-1.19 1.017-2.034 1.44-2.08 1.042-4.96 1.625-7.905 1.625Zm-8.392-4.202c-.277.294-.456.574-.55.826.374.321.858.639 1.445.933 1.921.962 4.654 1.529 7.497 1.529s5.576-.567 7.497-1.53a7.144 7.144 0 0 0 1.445-.932c-.094-.252-.273-.532-.55-.826-.363-.383-.873-.768-1.516-1.118-1.76-.957-4.267-1.522-6.876-1.522-2.61 0-5.116.565-6.876 1.522-.643.35-1.153.735-1.516 1.118Zm2.401 1.366c.597.265 1.413.392 2.199.392.784 0 1.508-.115 2.074-.378.574-.267 1.024-.71 1.138-1.357l.008-.049c.038-.023.08-.05.124-.08a1.86 1.86 0 0 0 .573-.592.455.455 0 1 0-.792-.453.674.674 0 0 1-.117.147 1.541 1.541 0 0 0-.634-.53c-.587-.277-1.393-.28-2.298.012-.472.152-.894.231-1.294.306-.18.034-.357.067-.532.106-.489.108-1.099.286-1.33.89-.139.36-.087.712.114 1.003.184.265.471.45.767.583Zm-.03-1.258c.039-.102.152-.21.676-.326.126-.028.274-.056.437-.086.42-.08.942-.177 1.472-.349.775-.25 1.324-.2 1.63-.055.277.13.37.332.328.573-.047.268-.231.504-.624.687-.402.186-.98.293-1.69.293-.711 0-1.389-.119-1.829-.314-.222-.1-.339-.199-.388-.27-.031-.044-.041-.079-.013-.153Zm7.607.12c.28.184.64.282 1.015.282.374 0 .734-.098 1.014-.281.276-.18.525-.482.525-.882s-.249-.703-.525-.882c-.28-.183-.64-.28-1.014-.28-.375 0-.735.097-1.015.28-.276.18-.525.481-.525.882 0 .4.249.702.525.882Zm.388-.876-.001-.004v-.006a.094.094 0 0 1 .011-.02.334.334 0 0 1 .099-.091.97.97 0 0 1 .518-.133.97.97 0 0 1 .517.133.332.332 0 0 1 .099.09.085.085 0 0 1 .011.024v.007a.085.085 0 0 1-.011.02.33.33 0 0 1-.099.09.97.97 0 0 1-.517.134.97.97 0 0 1-.518-.133.334.334 0 0 1-.099-.09.089.089 0 0 1-.01-.021Zm4.04 2.189c-.375 0-.735-.098-1.015-.28-.276-.18-.525-.482-.525-.883 0-.4.25-.702.525-.882.28-.182.64-.28 1.015-.28.374 0 .734.098 1.014.28.276.18.525.482.525.882 0 .401-.249.703-.525.883-.28.182-.64.28-1.014.28Zm-.628-1.163.001.005.01.02a.331.331 0 0 0 .099.091.97.97 0 0 0 .518.133.97.97 0 0 0 .518-.133.334.334 0 0 0 .098-.09.089.089 0 0 0 .01-.02l.002-.006-.002-.005a.089.089 0 0 0-.01-.02.334.334 0 0 0-.098-.09.97.97 0 0 0-.518-.134.97.97 0 0 0-.518.133.334.334 0 0 0-.098.09.085.085 0 0 0-.01.021l-.002.005Zm-5.48 2.185c.28.183.64.281 1.015.281.374 0 .734-.098 1.015-.28.276-.18.524-.482.524-.883 0-.4-.248-.702-.524-.882-.28-.182-.64-.28-1.015-.28-.374 0-.734.098-1.015.28-.276.18-.524.482-.524.882 0 .401.248.703.524.882Zm.388-.877v-.01a.085.085 0 0 1 .01-.02.331.331 0 0 1 .1-.09.97.97 0 0 1 .517-.134.97.97 0 0 1 .518.133.331.331 0 0 1 .098.09c.007.011.01.018.01.021l.002.005-.001.005a.085.085 0 0 1-.01.02.333.333 0 0 1-.1.091.97.97 0 0 1-.517.133.97.97 0 0 1-.518-.133.333.333 0 0 1-.098-.09.085.085 0 0 1-.01-.02Zm.379-9.668a.456.456 0 1 1-.912 0c0-.206-.05-.286-.143-.43l-.002-.003c-.123-.193-.289-.454-.289-.925 0-.471.166-.732.289-.925l.002-.003c.092-.144.143-.224.143-.43 0-.205-.05-.284-.143-.428l-.002-.004c-.123-.193-.289-.453-.289-.925 0-.47.166-.731.289-.924l.002-.004c.092-.144.143-.223.143-.429a.456.456 0 1 1 .912 0c0 .472-.166.732-.289.925l-.002.004c-.092.144-.143.223-.143.428 0 .206.05.286.143.43l.002.003c.123.193.289.453.289.925 0 .471-.166.731-.289.925l-.002.003c-.092.144-.143.223-.143.43 0 .205.05.284.143.428l.002.004c.123.193.289.453.289.925Zm2.524.456a.456.456 0 0 0 .455-.456c0-.472-.165-.732-.288-.925l-.003-.004c-.091-.144-.142-.223-.142-.429s.05-.285.142-.429l.003-.003c.123-.194.288-.454.288-.925 0-.472-.165-.732-.288-.925l-.003-.004c-.091-.143-.142-.223-.142-.429a.456.456 0 1 0-.912 0c0 .472.165.732.289.925l.002.004c.092.144.143.223.143.429 0 .205-.051.285-.143.429l-.002.003a1.547 1.547 0 0 0-.289.925c0 .471.165.732.289.925l.002.004c.092.143.143.223.143.429 0 .252.204.456.456.456Zm-5.558-.456a.456.456 0 1 1-.912 0c0-.206-.05-.286-.143-.43l-.002-.003c-.123-.193-.289-.454-.289-.925 0-.471.166-.732.29-.925l.001-.003c.092-.144.143-.224.143-.43 0-.205-.05-.284-.143-.428l-.002-.004c-.123-.193-.289-.453-.289-.925a.456.456 0 1 1 .912 0c0 .206.05.286.143.43l.002.003c.123.193.289.453.289.925 0 .471-.165.731-.289.925l-.002.003c-.092.144-.143.223-.143.43 0 .205.05.284.143.428l.002.004c.123.193.289.453.289.925Z" fill="#000"/></svg><svg fill="currentColor" viewBox="0 0 32 32" id="sushi" xmlns="http://www.w3.org/2000/svg"><path fill-rule="evenodd" clip-rule="evenodd" d="M7.149 5.391c-2.512 1.415-3.837 3.306-3.837 5.303v10.612c0 1.997 1.325 3.888 3.837 5.303l.074.041c.254.141.57.027.689-.238a.526.526 0 0 0-.23-.67l-.034-.018c-2.092-1.179-3.32-2.737-3.32-4.418v-6.99a.25.25 0 0 1 .436-.168c.61.674 1.409 1.298 2.385 1.848 1.673.943 3.64 1.555 5.699 1.857a.5.5 0 0 0 .568-.439.521.521 0 0 0-.444-.575c-1.947-.29-3.791-.864-5.324-1.728-2.168-1.221-3.32-2.79-3.32-4.42.002-1.63 1.157-3.196 3.32-4.415C9.963 4.972 12.988 4.327 16 4.327c3.012 0 6.037.645 8.352 1.95 2.168 1.22 3.32 2.789 3.32 4.419-.002 1.63-1.157 3.197-3.32 4.415-2.315 1.304-5.34 1.95-8.352 1.95-.418 0-.836-.013-1.253-.038a.52.52 0 0 0-.549.453.5.5 0 0 0 .464.563 22 22 0 0 0 3.388-.062c3.79-.362 7.26-1.702 9.186-3.83a.25.25 0 0 1 .435.169v6.99c0 1.68-1.227 3.239-3.319 4.418-2.315 1.304-5.34 1.949-8.352 1.949-2.383 0-4.775-.404-6.817-1.219a.523.523 0 0 0-.673.267.494.494 0 0 0 .262.663c2.16.867 4.69 1.305 7.227 1.305 3.205 0 6.399-.698 8.852-2.08 2.512-1.415 3.837-3.306 3.837-5.303V10.694c0-1.997-1.325-3.888-3.837-5.303-2.452-1.382-5.645-2.08-8.85-2.08s-6.399.698-8.852 2.08Zm4.3 7.057a.25.25 0 0 0 .297-.344l-1.182-2.6a.25.25 0 0 0-.331-.124c-.43.196-.768.406-1.004.615-.223.198-.403.439-.403.699 0 .186.093.358.214.505.125.15.302.3.52.443.438.287 1.073.572 1.89.806Zm1.274 1.32h-.007c-1.41-.238-2.654-.63-3.54-1.164-.887-.534-1.366-1.177-1.366-1.91 0-.909.742-1.683 2.06-2.269 1.303-.58 3.08-.931 4.947-1.036l.099-.005A20.07 20.07 0 0 1 16 7.356c1.295 0 2.555.124 3.5.302 1.358.247 2.548.641 3.39 1.166.845.527 1.3 1.155 1.3 1.87 0 .886-.706 1.645-1.969 2.227-1.248.575-2.959.936-4.772 1.06l-.004.001h-.003c-1.123.11-3.479.03-4.719-.213Zm-1.011-4.9a.25.25 0 0 0-.164.344l1.582 3.482a.25.25 0 0 0 .193.144c.958.135 1.943.186 2.898.177a.25.25 0 0 0 .225-.354l-1.853-4.078a.25.25 0 0 0-.248-.146 15.334 15.334 0 0 0-2.633.43Zm8.937 3.254a.25.25 0 0 1-.16.344c-.73.205-1.605.372-2.619.466a.25.25 0 0 1-.25-.146l-1.846-4.06A.25.25 0 0 1 16 8.371c1.092 0 2.066.08 2.916.213a.25.25 0 0 1 .19.143l1.542 3.394Zm.163-3.104a.25.25 0 0 0-.303.342l1.108 2.437a.25.25 0 0 0 .34.12c.368-.184.661-.379.866-.573.195-.185.35-.409.35-.65 0-.177-.083-.34-.193-.48a2.17 2.17 0 0 0-.47-.421c-.394-.273-.965-.544-1.698-.775Zm-12.14 10.62a.758.758 0 1 1-1.516 0 .758.758 0 0 1 1.516 0Zm4.852 4.448a.758.758 0 1 1-1.517 0 .758.758 0 0 1 1.517 0Zm4.498-2.476a.758.758 0 1 0 0-1.517.758.758 0 0 0 0 1.517Zm6.014 1.263a.758.758 0 1 1-1.517 0 .758.758 0 0 1 1.517 0Z" fill="#000"/></svg><svg fill="currentColor" viewBox="0 0 24 24" id="time" xmlns="http://www.w3.org/2000/svg"><path fill-rule="evenodd" clip-rule="evenodd" d="M2.1 12c0-5.465 4.425-9.9 9.89-9.9 5.475 0 9.91 4.435 9.91 9.9 0 5.465-4.435 9.9-9.91 9.9-5.465 0-9.89-4.435-9.89-9.9Zm1.8 0c0 4.475 3.625 8.1 8.1 8.1s8.1-3.625 8.1-8.1-3.625-8.1-8.1-8.1A8.098 8.098 0 0 0 3.9 12Z" fill="#000"/><path d="M12.5 7.75a.75.75 0 0 0-1.5 0v4.684a1 1 0 0 0 .486.857l4.152 2.492a.719.719 0 1 0 .737-1.234L12.99 12.54a1 1 0 0 1-.49-.86V7.75Z" fill="#000"/></svg><svg fill="currentColor" viewBox="0 0 24 24" id="trash" xmlns="http://www.w3.org/2000/svg"><path d="M21.266 7a2.143 2.143 0 0 0-2.143-2.143h-2.857v-.714A2.143 2.143 0 0 0 14.123 2H9.837a2.143 2.143 0 0 0-2.142 2.143v.714H4.837a2.143 2.143 0 0 0-.65 4.172l1.236 11.12A2.143 2.143 0 0 0 7.552 22h8.857a2.143 2.143 0 0 0 2.143-1.85l1.235-11.12A2.142 2.142 0 0 0 21.266 7ZM9.123 4.143a.714.714 0 0 1 .714-.714h4.286a.714.714 0 0 1 .714.714v.714H9.123v-.714Zm7.993 15.85a.714.714 0 0 1-.714.578h-8.85a.714.714 0 0 1-.715-.578l-1.2-10.85h12.686l-1.207 10.85Zm2.007-12.279H4.837a.714.714 0 0 1 0-1.428h14.286a.714.714 0 1 1 0 1.428Z" fill="#000"/><path d="M9.837 18.428a.714.714 0 0 0 .715-.714v-6.428a.714.714 0 1 0-1.429 0v6.428a.714.714 0 0 0 .714.715Zm4.286 0a.714.714 0 0 0 .714-.714v-6.428a.714.714 0 1 0-1.428 0v6.428a.714.714 0 0 0 .714.715Z" fill="#000"/></svg><svg fill="currentColor" viewBox="0 0 32 32" id="vegetables" xmlns="http://www.w3.org/2000/svg"><path fill-rule="evenodd" clip-rule="evenodd" d="M27.425 12.114a4.21 4.21 0 0 0-2.282-3.834.68.68 0 0 1-.344-.439 3.401 3.401 0 0 0-2.407-2.437.765.765 0 0 1-.522-.528 2.364 2.364 0 0 0-1.96-1.671 2.345 2.345 0 0 0-1.292.212.782.782 0 0 1-.664.006 2.51 2.51 0 0 0-1.059-.235 2.55 2.55 0 0 0-2.503 2.075.139.139 0 0 1-.1.108.057.057 0 0 1-.067-.033 3.955 3.955 0 0 0-.116-.253c-.65-1.287-1.801-2.035-2.867-1.864-.53.086-.992.38-1.332.83a.795.795 0 0 1-.81.29 2.248 2.248 0 0 0-1.379.087c-.252.102-.29.421-.113.627l.078.09c.103.118.275.14.423.089.445-.157.977-.048 1.5.303.254.17.599.043.68-.25.184-.671.583-1.104 1.096-1.186.668-.114 1.46.461 1.928 1.385.034.07.067.14.097.211.004.01 0 .021-.008.027l-.014.01a3.083 3.083 0 0 0-.509.377 3.18 3.18 0 0 0-.475.535l-.015.022-.015.022c-.079.116-.15.238-.212.363l-.01.019a2.452 2.452 0 0 0-.179.45v.002c-.017.054-.034.108-.048.163a2.992 2.992 0 0 0-.073.4 3.111 3.111 0 0 0-.024.371c0 .14-.096.264-.231.298a3.581 3.581 0 0 0-2.527 4.607.722.722 0 0 1-.1.642 2.742 2.742 0 0 0-.504 1.587c0 .932.475 1.787 1.23 2.29.18.12.304.313.307.53a16.127 16.127 0 0 0 .015.477l.005.087c.008.15.017.302.03.449.004.057.01.113.016.17l.009.08a10.742 10.742 0 0 0 .289 1.623l.006.024.054.207a10.212 10.212 0 0 0 .135.437l.043.135a10.098 10.098 0 0 0 .184.494l.024.065a10.838 10.838 0 0 0 .285.637l.03.061a12.03 12.03 0 0 0 .278.535l.031.057a12.472 12.472 0 0 0 .307.524l.017.027a15.2 15.2 0 0 0 .56.85 15.912 15.912 0 0 0 .398.547l.025.034.027.037.118.155c.083.108.169.217.255.326l.012.015.058.073c.035.045.07.09.108.136.003.004-.002.01-.007.007-1.626-.909-2.777-2.015-3.782-3.985a.446.446 0 0 0-.4-.243h-.012c-.702 0-1.422-.425-1.796-1.062-.272-.464-.327-.97-.153-1.389a.445.445 0 0 0-.149-.531 3.913 3.913 0 0 1-1.082-1.205c-.477-.83-.603-1.739-.344-2.495a1.948 1.948 0 0 1 1.123-1.205.445.445 0 0 0 .188-.676 4.443 4.443 0 0 1-.41-.665c-.457-.925-.565-1.957-.286-2.763.185-.534.523-.931.977-1.147a.445.445 0 0 0 .218-.573l-.02-.042c-.391-.925-.435-1.907-.116-2.634a.324.324 0 0 0-.042-.342l-.084-.097c-.198-.23-.559-.213-.682.063a2.699 2.699 0 0 0-.009.019c-.327.747-.37 1.68-.136 2.6a.71.71 0 0 1-.21.682c-.325.311-.576.71-.739 1.18-.36 1.042-.24 2.298.33 3.449a.534.534 0 0 1-.133.63 2.887 2.887 0 0 0-.813 1.235c-.341.998-.19 2.174.415 3.225.22.383.497.738.816 1.047a.72.72 0 0 1 .204.576c-.04.5.085 1.025.368 1.508a3.081 3.081 0 0 0 2.005 1.445c.184.038.35.146.443.31 1.44 2.56 3.229 3.7 5.934 4.846l.06.031c.386.234.824.34 1.257.34.263 0 .523-.041.768-.11l.012-.003.01-.005c.207-.06.404-.14.579-.242.846-.494 1.189-1.336.894-2.199-.845-2.476-.776-4.336.205-5.527.156-.189.33-.357.52-.505a.493.493 0 0 0 .166-.57c-.104-.255-.413-.36-.635-.194a4.28 4.28 0 0 0-.738.7c-1.193 1.445-1.314 3.592-.362 6.382.21.619-.223.982-.5 1.143-.011.007-.023.012-.035.017a.03.03 0 0 1-.039-.015c-.865-2.13-1.406-4.027-1.698-5.71l-.002-.014a17.554 17.554 0 0 1-.271-3.523.463.463 0 0 1 .082-.26c.685-.947 2.382-.987 2.4-.987a.446.446 0 0 0-.006-.89h-.006a5.45 5.45 0 0 0-1.245.19c-.46.125-.994-.25-.88-.715.093-.382.201-.741.322-1.08.021-.06.057-.115.087-.171a.431.431 0 0 0 .035-.092c.018-.068.027-.138.054-.203.277-.677.6-1.26.94-1.76a.523.523 0 0 1 .342-.223c1.89-.329 3.29.252 3.323.265a.439.439 0 0 0 .422-.035.445.445 0 0 0-.064-.78c-.043-.02-.645-.276-1.598-.39-.512-.06-.78-.695-.362-.997.338-.244.575-.37.634-.4.648-.31 1.594.09 1.905.27a.44.44 0 0 0 .447.004.445.445 0 0 0 .005-.77 4.202 4.202 0 0 0-1.277-.46c-.386-.069-.693-.44-.48-.767a1.05 1.05 0 0 1 .06-.087.445.445 0 0 0-.708-.54c-.026.032-.481.635-.59 1.388a.7.7 0 0 1-.287.486c-.766.52-2.196 1.708-3.232 3.844-.102.21-.367.288-.53.122-.83-.844-.67-2.027-.66-2.091a.445.445 0 0 0-.37-.508.444.444 0 0 0-.51.369c-.118.735.025 2.18 1.183 3.108a.658.658 0 0 1 .236.693c-.26.87-.451 1.878-.52 3.035-.002.027-.006.054-.009.08a.44.44 0 0 0 0 .088c-.032.65-.022 1.347.036 2.091.036.46-.446.75-.694.36a.819.819 0 0 1-.03-.05.447.447 0 0 0-.787.418 3.16 3.16 0 0 0 1.47 1.292.64.64 0 0 1 .384.454c.28 1.415.727 2.97 1.382 4.67.093.244-.092.504-.336.415a1.38 1.38 0 0 1-.26-.128v-.001a1.826 1.826 0 0 1-.127-.09l-.012-.01a1.066 1.066 0 0 1-.129-.117l-.007-.006-.187-.213c-2.791-3.208-4.189-5.555-4.077-9.48a.445.445 0 0 0-.298-.432 1.866 1.866 0 0 1-1.244-1.754c0-.56.249-1.085.682-1.44a.445.445 0 0 0 .103-.567 2.695 2.695 0 0 1 2.227-4.046.446.446 0 0 0 .415-.549 2.276 2.276 0 0 1-.066-.531 2.13 2.13 0 0 1 .053-.462l.008-.037a2.291 2.291 0 0 1 .294-.715l.003-.005a2.33 2.33 0 0 1 .538-.584c.019-.015.039-.028.059-.042l.03-.02a2.31 2.31 0 0 1 .369-.21c.235-.105.488-.178.756-.198a.446.446 0 0 0 .412-.445v-.035c.015-.9.752-1.628 1.656-1.628.404 0 .796.153 1.105.43a.446.446 0 0 0 .612-.013c.314-.31.747-.46 1.194-.406a1.46 1.46 0 0 1 1.208 1.037c.054.183.07.37.048.553a.457.457 0 0 0 .455.497 2.498 2.498 0 0 1 2.486 2.319c.013.177.13.33.298.389a3.324 3.324 0 0 1 2.232 3.211c-.027 1.296-.862 2.477-2.129 3.012a3.1 3.1 0 0 1-1.977.155l-.073-.012a.232.232 0 0 0-.09.003l-.045.01a.464.464 0 0 0-.359.43l-.009.186a.448.448 0 0 0 .424.469c.549.028.957.206 1.248.542.185.214.303.471.377.723.097.328-.192.615-.534.613-.789-.006-1.876.065-2.929.4a.424.424 0 0 0-.255.57.477.477 0 0 0 .583.264c1.723-.527 3.607-.285 3.634-.28.25.034.48-.146.504-.398.006-.06.138-1.494-.7-2.469-.062-.072-.029-.19.063-.216a4.02 4.02 0 0 0 .485-.17c1.59-.671 2.64-2.168 2.674-3.814Z" fill="#000"/></svg></svg>