<svg width="110" height="110" fill="none" xmlns="http://www.w3.org/2000/svg"><path fill="#F5F5F5" d="M0 0h110v110H0z"/><mask id="a" style="mask-type:alpha" maskUnits="userSpaceOnUse" x="0" y="0" width="110" height="110"><path fill="#D9D9D9" d="M0 0h110v110H0z"/></mask><g mask="url(#a)"><g filter="url(#b)"><rect width="54.22" height="54.317" rx=".879" transform="rotate(-28.176 82.895 -39.943) skewX(-.154)" fill="#DEA382"/></g><g filter="url(#c)"><rect width="54.284" height="54.253" rx=".879" transform="matrix(.63876 -.7694 .76728 .64132 24.313 43.767)" fill="#E7B698"/></g><g filter="url(#d)"><ellipse cx="49.593" cy="58.954" rx="39.066" ry="39.193" fill="#F43F5E"/></g><g opacity=".1" filter="url(#e)"><path fill-rule="evenodd" clip-rule="evenodd" d="M18.187 74.284a1.113 1.113 0 0 0-.378 1.441 36.032 36.032 0 0 0 3.94 5.982 35.924 35.924 0 0 0 13.758 10.389 1.117 1.117 0 0 0 1.478-.636 1.177 1.177 0 0 0-.645-1.5 33.635 33.635 0 0 1-12.562-9.387 33.737 33.737 0 0 1-3.91-5.845c-.323-.612-1.104-.828-1.68-.444Zm-1.995-2.093c.262.666 1.072.902 1.668.505.46-.306.634-.896.433-1.411a33.81 33.81 0 0 1-1.648-5.587 1.174 1.174 0 0 0-1.337-.933 1.115 1.115 0 0 0-.918 1.313 36.122 36.122 0 0 0 1.802 6.113Zm33.4-13.237-.002.007.002-.007Z" fill="#000"/></g><g opacity=".2" filter="url(#f)"><path fill-rule="evenodd" clip-rule="evenodd" d="M70.94 31.866c.648-.432.692-1.368.067-1.834a35.862 35.862 0 0 0-12.395-5.952 1.118 1.118 0 0 0-1.367.849c-.14.617.249 1.228.86 1.389a33.566 33.566 0 0 1 11.473 5.506c.401.297.946.32 1.361.042Zm3.14.734a1.111 1.111 0 0 0-1.376-.104c-.625.417-.68 1.315-.132 1.83.464.435.916.884 1.354 1.345.437.46 1.16.503 1.633.08.47-.42.514-1.142.08-1.6a35.986 35.986 0 0 0-1.559-1.55ZM49.592 58.954Z" fill="#fff"/></g><g filter="url(#g)"><path fill-rule="evenodd" clip-rule="evenodd" d="M50.547 51.559c-.412-.961-1.688-.9-1.828.137-.328 2.416.013 5.094 1.121 7.677 2.097 4.886 6.328 8.005 10.481 8.18 1.308.055 2.617.698 3.091 1.919l12.471 32.073a2.629 2.629 0 0 0 3.495 1.462l.144-.062a2.645 2.645 0 0 0 1.343-3.552L66.21 68.263c-.558-1.186-.124-2.581.734-3.572 2.727-3.148 3.375-8.375 1.279-13.26-1.108-2.582-2.812-4.67-4.786-6.092-.848-.61-1.769.277-1.356 1.239l2.749 6.405a1.15 1.15 0 1 1-2.114.91l-4.28-9.973c-.17-.395-.542-.672-.972-.676a8.523 8.523 0 0 0-.947.042c-.71.072-1.075.832-.794 1.488l4.397 10.244a1.15 1.15 0 1 1-2.114.91L53.61 45.687c-.28-.656-1.082-.911-1.622-.444a8.551 8.551 0 0 0-.682.66c-.292.317-.347.779-.178 1.174l4.282 9.975a1.15 1.15 0 1 1-2.114.91l-2.749-6.403Z" fill="#DFD2D2"/></g><path fill-rule="evenodd" clip-rule="evenodd" d="M68.143 60.387a11.09 11.09 0 0 1-1.807 3.432.468.468 0 0 1-.59.126.503.503 0 0 1-.161-.743 9.94 9.94 0 0 0 1.537-3.06c.284-.969.39-1.943.317-2.887a.597.597 0 0 1 .442-.633.53.53 0 0 1 .663.467 8.922 8.922 0 0 1-.4 3.298ZM56.867 59.28l.002.002-.002-.001v-.001Z" fill="#fff" fill-opacity=".4"/><g filter="url(#h)" fill-rule="evenodd" clip-rule="evenodd"><path d="M39.153 33.808a.563.563 0 0 0-1.053.135l-8.03 37.721a.014.014 0 0 0 .01.016c.007.002.01.01.009.017L22.612 99.75a1.76 1.76 0 0 0 1.303 2.169l1.925.446a1.755 1.755 0 0 0 2.118-1.378l4.886-25.216a2.632 2.632 0 0 1 3.427-1.996l.452.153c1.451.49 3.003-.357 3.328-1.856.952-4.39 2.611-13.262 2.433-21.09-.237-10.356-3.045-16.567-3.33-17.174Z" fill="#DFD2D2"/><path d="M40.846 55.381a.518.518 0 0 0-.624.475c-.018.273-.038.547-.06.82a.52.52 0 0 0 .409.55c.306.066.6-.153.622-.466.02-.283.039-.567.056-.851a.51.51 0 0 0-.403-.528ZM38.998 68.19a.593.593 0 0 1-.455-.703c.395-1.872 1.018-5.123 1.413-8.66a.531.531 0 0 1 .638-.462.524.524 0 0 1 .412.565 98.88 98.88 0 0 1-1.313 8.806.581.581 0 0 1-.695.454Z" fill="#fff" fill-opacity=".4"/></g></g><defs><filter id="b" x="28.407" y="8.531" width="73.866" height="74.101" filterUnits="userSpaceOnUse" color-interpolation-filters="sRGB"><feFlood flood-opacity="0" result="BackgroundImageFix"/><feColorMatrix in="SourceAlpha" values="0 0 0 0 0 0 0 0 0 0 0 0 0 0 0 0 0 0 127 0" result="hardAlpha"/><feOffset/><feGaussianBlur stdDeviation=".293"/><feComposite in2="hardAlpha" operator="out"/><feColorMatrix values="0 0 0 0 0.392157 0 0 0 0 0.439216 0 0 0 0 0.403922 0 0 0 0.25 0"/><feBlend in2="BackgroundImageFix" result="effect1_dropShadow_1910_19800"/><feBlend in="SourceGraphic" in2="effect1_dropShadow_1910_19800" result="shape"/></filter><filter id="c" x="24.085" y="1.774" width="76.756" height="77.013" filterUnits="userSpaceOnUse" color-interpolation-filters="sRGB"><feFlood flood-opacity="0" result="BackgroundImageFix"/><feColorMatrix in="SourceAlpha" values="0 0 0 0 0 0 0 0 0 0 0 0 0 0 0 0 0 0 127 0" result="hardAlpha"/><feOffset/><feGaussianBlur stdDeviation=".293"/><feComposite in2="hardAlpha" operator="out"/><feColorMatrix values="0 0 0 0 0.392157 0 0 0 0 0.439216 0 0 0 0 0.403922 0 0 0 0.25 0"/><feBlend in2="BackgroundImageFix" result="effect1_dropShadow_1910_19800"/><feBlend in="SourceGraphic" in2="effect1_dropShadow_1910_19800" result="shape"/></filter><filter id="d" x="9.94" y="19.175" width="79.304" height="79.558" filterUnits="userSpaceOnUse" color-interpolation-filters="sRGB"><feFlood flood-opacity="0" result="BackgroundImageFix"/><feColorMatrix in="SourceAlpha" values="0 0 0 0 0 0 0 0 0 0 0 0 0 0 0 0 0 0 127 0" result="hardAlpha"/><feOffset/><feGaussianBlur stdDeviation=".293"/><feComposite in2="hardAlpha" operator="out"/><feColorMatrix values="0 0 0 0 0.392157 0 0 0 0 0.439216 0 0 0 0 0.403922 0 0 0 0.25 0"/><feBlend in2="BackgroundImageFix" result="effect1_dropShadow_1910_19800"/><feBlend in="SourceGraphic" in2="effect1_dropShadow_1910_19800" result="shape"/></filter><filter id="e" x="13.782" y="58.368" width="36.397" height="34.402" filterUnits="userSpaceOnUse" color-interpolation-filters="sRGB"><feFlood flood-opacity="0" result="BackgroundImageFix"/><feColorMatrix in="SourceAlpha" values="0 0 0 0 0 0 0 0 0 0 0 0 0 0 0 0 0 0 127 0" result="hardAlpha"/><feOffset/><feGaussianBlur stdDeviation=".293"/><feComposite in2="hardAlpha" operator="out"/><feColorMatrix values="0 0 0 0 0.392157 0 0 0 0 0.439216 0 0 0 0 0.403922 0 0 0 0.25 0"/><feBlend in2="BackgroundImageFix" result="effect1_dropShadow_1910_19800"/><feBlend in="SourceGraphic" in2="effect1_dropShadow_1910_19800" result="shape"/></filter><filter id="f" x="49.006" y="23.459" width="27.519" height="36.081" filterUnits="userSpaceOnUse" color-interpolation-filters="sRGB"><feFlood flood-opacity="0" result="BackgroundImageFix"/><feColorMatrix in="SourceAlpha" values="0 0 0 0 0 0 0 0 0 0 0 0 0 0 0 0 0 0 127 0" result="hardAlpha"/><feOffset/><feGaussianBlur stdDeviation=".293"/><feComposite in2="hardAlpha" operator="out"/><feColorMatrix values="0 0 0 0 0.392157 0 0 0 0 0.439216 0 0 0 0 0.403922 0 0 0 0.25 0"/><feBlend in2="BackgroundImageFix" result="effect1_dropShadow_1910_19800"/><feBlend in="SourceGraphic" in2="effect1_dropShadow_1910_19800" result="shape"/></filter><filter id="g" x="48.014" y="42.657" width="33.69" height="61.152" filterUnits="userSpaceOnUse" color-interpolation-filters="sRGB"><feFlood flood-opacity="0" result="BackgroundImageFix"/><feColorMatrix in="SourceAlpha" values="0 0 0 0 0 0 0 0 0 0 0 0 0 0 0 0 0 0 127 0" result="hardAlpha"/><feOffset/><feGaussianBlur stdDeviation=".293"/><feComposite in2="hardAlpha" operator="out"/><feColorMatrix values="0 0 0 0 0.392157 0 0 0 0 0.439216 0 0 0 0 0.403922 0 0 0 0.25 0"/><feBlend in2="BackgroundImageFix" result="effect1_dropShadow_1910_19800"/><feBlend in="SourceGraphic" in2="effect1_dropShadow_1910_19800" result="shape"/></filter><filter id="h" x="21.966" y="32.91" width="21.117" height="70.085" filterUnits="userSpaceOnUse" color-interpolation-filters="sRGB"><feFlood flood-opacity="0" result="BackgroundImageFix"/><feColorMatrix in="SourceAlpha" values="0 0 0 0 0 0 0 0 0 0 0 0 0 0 0 0 0 0 127 0" result="hardAlpha"/><feOffset/><feGaussianBlur stdDeviation=".293"/><feComposite in2="hardAlpha" operator="out"/><feColorMatrix values="0 0 0 0 0.392157 0 0 0 0 0.439216 0 0 0 0 0.403922 0 0 0 0.25 0"/><feBlend in2="BackgroundImageFix" result="effect1_dropShadow_1910_19800"/><feBlend in="SourceGraphic" in2="effect1_dropShadow_1910_19800" result="shape"/></filter></defs></svg>