<svg width="110" height="111" fill="none" xmlns="http://www.w3.org/2000/svg"><mask id="a" style="mask-type:alpha" maskUnits="userSpaceOnUse" x="0" y="0" width="110" height="111"><path fill="#D9D9D9" d="M0 .513h110v110H0z"/></mask><g mask="url(#a)"><path d="M29.096 35.697a.882.882 0 0 1 .362-1.191L75.703 9.734a.876.876 0 0 1 1.188.361l24.693 46.398a.882.882 0 0 1-.362 1.19L54.977 82.456a.876.876 0 0 1-1.187-.36l-24.694-46.4Z" fill="#DEA382"/><path d="M24.986 44.843a.882.882 0 0 1-.113-1.24L58.425 3.19a.875.875 0 0 1 1.236-.113l40.278 33.666a.882.882 0 0 1 .113 1.24L66.5 78.396a.875.875 0 0 1-1.235.113L24.986 44.843Z" fill="#E7B698"/><path d="M88.659 59.467c0 21.645-17.49 39.193-39.066 39.193-21.576 0-39.067-17.548-39.067-39.193 0-21.646 17.49-39.193 39.067-39.193 21.575 0 39.066 17.547 39.066 39.193Z" fill="#F43F5E"/><path d="M18.187 74.797a1.113 1.113 0 0 0-.378 1.441 36.036 36.036 0 0 0 3.94 5.982 35.924 35.924 0 0 0 13.758 10.388 1.117 1.117 0 0 0 1.478-.636 1.177 1.177 0 0 0-.645-1.5 33.636 33.636 0 0 1-12.562-9.386 33.742 33.742 0 0 1-3.91-5.845c-.323-.613-1.104-.829-1.68-.444Zm-1.995-2.093c.262.665 1.072.902 1.668.505.46-.307.634-.897.433-1.411a33.815 33.815 0 0 1-1.648-5.587 1.174 1.174 0 0 0-1.337-.934 1.115 1.115 0 0 0-.918 1.314 36.122 36.122 0 0 0 1.802 6.113Z" opacity=".1" fill="#000"/><path d="M70.94 32.379c.648-.432.692-1.369.067-1.834a35.862 35.862 0 0 0-12.395-5.952 1.118 1.118 0 0 0-1.368.849c-.138.617.25 1.228.861 1.388a33.566 33.566 0 0 1 11.473 5.506c.401.298.946.32 1.361.043Zm3.14.734a1.111 1.111 0 0 0-1.376-.105c-.625.417-.68 1.316-.132 1.83.464.435.915.884 1.354 1.346.437.459 1.16.502 1.633.08.47-.42.514-1.143.08-1.601a36.045 36.045 0 0 0-1.559-1.55ZM49.592 59.467Z" opacity=".2" fill="#fff"/><path d="M50.549 52.072c-.413-.962-1.688-.9-1.829.137-.328 2.416.014 5.094 1.122 7.677 2.096 4.885 6.327 8.005 10.48 8.18 1.308.055 2.617.697 3.091 1.918l12.472 32.074a2.63 2.63 0 0 0 3.494 1.462l.144-.063a2.644 2.644 0 0 0 1.343-3.552l-14.655-31.13c-.558-1.185-.124-2.58.734-3.572 2.727-3.147 3.376-8.374 1.28-13.26-1.109-2.581-2.813-4.67-4.786-6.091-.848-.611-1.77.277-1.357 1.238l2.75 6.406a1.15 1.15 0 1 1-2.114.91l-4.281-9.974c-.17-.395-.542-.671-.972-.676a8.497 8.497 0 0 0-.947.043c-.709.072-1.075.832-.793 1.487L60.12 55.53a1.15 1.15 0 1 1-2.114.91L53.612 46.2c-.282-.656-1.083-.912-1.622-.445-.24.208-.467.428-.682.661a1.09 1.09 0 0 0-.178 1.173l4.281 9.976a1.15 1.15 0 1 1-2.114.91l-2.748-6.404Z" fill="#DFD2D2"/><path d="M68.144 60.9a11.112 11.112 0 0 1-1.807 3.432.468.468 0 0 1-.59.125.503.503 0 0 1-.162-.743 9.936 9.936 0 0 0 1.537-3.06 8.022 8.022 0 0 0 .318-2.886.596.596 0 0 1 .442-.633.53.53 0 0 1 .662.467 8.922 8.922 0 0 1-.4 3.298Z" fill="#fff" fill-opacity=".4"/><path d="M39.153 34.32a.563.563 0 0 0-1.053.135l-8.03 37.722a.014.014 0 0 0 .01.016c.007.002.01.01.009.016l-7.477 28.053a1.762 1.762 0 0 0 1.303 2.17l1.925.445a1.755 1.755 0 0 0 2.118-1.378l4.886-25.216a2.632 2.632 0 0 1 3.427-1.995l.452.153c1.451.49 3.003-.358 3.328-1.856.952-4.39 2.611-13.263 2.433-21.09-.237-10.356-3.045-16.567-3.33-17.174Z" fill="#DFD2D2"/><path d="M40.846 55.894a.518.518 0 0 0-.624.474c-.017.274-.037.547-.059.82a.52.52 0 0 0 .408.55c.306.066.6-.153.623-.465.02-.283.038-.567.055-.852a.51.51 0 0 0-.403-.527Zm-1.848 12.807a.593.593 0 0 1-.454-.702c.394-1.872 1.017-5.123 1.413-8.66a.531.531 0 0 1 .637-.462.524.524 0 0 1 .412.565 98.887 98.887 0 0 1-1.312 8.805.581.581 0 0 1-.696.454Z" fill="#fff" fill-opacity=".4"/></g></svg>