<svg width="195" height="124" fill="none" xmlns="http://www.w3.org/2000/svg"><mask id="a" style="mask-type:alpha" maskUnits="userSpaceOnUse" x="0" y="0" width="195" height="124"><path fill="#D9D9D9" d="M0 0h195v124H0z"/></mask><g mask="url(#a)"><g filter="url(#b)"><ellipse cx="99.066" cy="51.193" rx="39.066" ry="39.193" fill="#F43F5E"/></g><g opacity=".1" filter="url(#c)"><path fill-rule="evenodd" clip-rule="evenodd" d="M78.805 61.514a.966.966 0 0 0-.32 1.27 23.995 23.995 0 0 0 11.36 10.342.968.968 0 0 0 1.286-.55 1.037 1.037 0 0 0-.56-1.316 21.999 21.999 0 0 1-10.296-9.373c-.294-.523-.97-.706-1.47-.373Zm-1.83-2.01c.22.59.934.801 1.458.452.4-.267.554-.777.388-1.228a22.004 22.004 0 0 1-.853-2.94 1.037 1.037 0 0 0-1.175-.815.968.968 0 0 0-.799 1.149c.245 1.153.573 2.283.981 3.382Zm22.497-8.362h-.001Z" fill="#000"/></g><g opacity=".2" filter="url(#d)"><path fill-rule="evenodd" clip-rule="evenodd" d="M126.001 48.346c.066.642-.427 1.196-1.072 1.236-.647.04-1.201-.453-1.27-1.098-.043-.41-.098-.819-.162-1.227a1.232 1.232 0 0 1 .523-1.22c.696-.464 1.64-.087 1.774.74.084.52.153 1.043.207 1.569Zm-1.188-5.62c.156.48-.036 1-.455 1.28l-.692.46a.578.578 0 0 1-.87-.323 24.63 24.63 0 0 0-3.788-7.647c-.384-.523-.31-1.261.193-1.67.505-.41 1.248-.335 1.635.187a26.997 26.997 0 0 1 3.977 7.714Zm-25.746 8.467v-.001Z" fill="#fff"/></g><g opacity=".15" filter="url(#e)"><path fill-rule="evenodd" clip-rule="evenodd" d="M99.472 15.142c1.559 0 2.667 1.448 2.387 2.982l-.234 1.277c-.187 1.025-1.111 1.74-2.153 1.74l-.36.003c-1.57.019-2.997-1.026-3.29-2.568-.327-1.722.876-3.371 2.628-3.42.34-.01.68-.014 1.022-.014Zm0 72c-.29 0-.578-.004-.865-.01-1.749-.042-2.958-1.68-2.644-3.401.283-1.547 1.707-2.602 3.28-2.59h.23c1.206 0 2.282.82 2.507 2.005l.126.665c.325 1.707-.897 3.33-2.634 3.33ZM80.748 24.265c-1.12-1.355-.858-3.387.662-4.27.143-.084.286-.166.43-.247 1.559-.877 3.473-.03 4.04 1.666l.093.277c.435 1.3-.186 2.712-1.376 3.392-1.214.695-2.77.485-3.662-.592l-.187-.226Zm36.934 54.041c1.135 1.372.851 3.433-.704 4.3-.254.142-.51.28-.768.417-1.552.816-3.409-.036-3.965-1.699l-.043-.127c-.474-1.416.23-2.95 1.543-3.661 1.29-.7 2.914-.465 3.85.665l.087.106Zm8.173-7.765c1.325 1.16 3.369.953 4.293-.547.161-.263.32-.528.475-.794.889-1.532.093-3.44-1.57-4.048l-.106-.04c-1.399-.511-2.948.133-3.713 1.411-.769 1.285-.59 2.957.537 3.944l.084.074ZM73.622 35.909c.696-1.18.522-2.704-.508-3.606l-.235-.207c-1.337-1.17-3.401-.949-4.314.576l-.226.382c-.891 1.531-.096 3.44 1.569 4.05l.294.108c1.29.473 2.721-.12 3.42-1.303Zm60.588 24.717c-.004.012-.016.019-.027.014-.024-.008-.014-.044.011-.04a.021.021 0 0 1 .016.026Zm1.262-9.484-.001.262c-.012 1.776-1.675 3.017-3.42 2.69l-.269-.051c-1.369-.258-2.31-1.508-2.31-2.901V51.1c-.002-1.563 1.049-2.974 2.586-3.258 1.73-.32 3.378.901 3.409 2.66.003.213.005.426.005.64Zm-71.996-.516c.025-1.768 1.681-2.995 3.418-2.669l.06.011c1.496.281 2.518 1.652 2.518 3.174 0 1.229-.837 2.325-2.046 2.548l-.606.113c-1.718.317-3.348-.914-3.348-2.661 0-.173.001-.345.004-.516Zm50.571-25.712c-1.277-.711-1.942-2.224-1.453-3.602l.066-.187c.584-1.648 2.448-2.467 3.984-1.631.211.114.42.23.628.35 1.557.886 1.814 2.966.647 4.326l-.13.151c-.926 1.079-2.5 1.284-3.742.593Zm-40.72 40.95c-.693-1.228-2.154-1.86-3.482-1.386l-.261.093c-1.654.59-2.468 2.468-1.617 4.004.086.155.174.31.262.464.891 1.552 2.97 1.804 4.326.635l.209-.18c1.044-.9 1.24-2.43.563-3.63Zm55.627-28.85c1.683-.6 2.492-2.527 1.588-4.068a37.78 37.78 0 0 0-.431-.715c-.92-1.487-2.945-1.7-4.27-.559l-.113.098c-1.128.972-1.31 2.635-.542 3.91.75 1.244 2.257 1.873 3.625 1.385l.143-.051Zm-48.78 40.343c.94-1.096 2.555-1.276 3.792-.528 1.2.725 1.803 2.179 1.334 3.5l-.076.216c-.6 1.692-2.537 2.503-4.081 1.588a33.82 33.82 0 0 1-.553-.335c-1.487-.918-1.704-2.941-.565-4.267l.149-.174Z" fill="#000"/></g><g filter="url(#f)" fill-rule="evenodd" clip-rule="evenodd"><path d="M42.129 3.27c.127-.082.26-.148.4-.204 1.748-.694 3.636.62 3.592 2.503l-1.459 63.368 1.357 48.93a1.76 1.76 0 0 1-1.768 1.81l-5.748-.031a1.755 1.755 0 0 1-1.744-1.829l1.359-32.806a2.632 2.632 0 0 0-2.726-2.742L7.886 83.285c-1.43.053-2.63-1.044-2.65-2.477-.097-7.235.434-28.368 8.997-45.662C24.103 15.211 40.208 4.498 42.129 3.27Z" fill="#C2B4B4"/><path d="M19.839 32.161c.764.3 1.112 1.187.772 1.935a78.576 78.576 0 0 0-3.213 8.324c-.945 2.927-1.744 5.997-2.42 9.076a1.49 1.49 0 0 1-1.605 1.167 1.467 1.467 0 0 1-1.282-1.788c.87-3.763 1.916-7.545 3.166-11.09a80.266 80.266 0 0 1 2.803-6.918 1.392 1.392 0 0 1 1.779-.706ZM9.623 79.131a1.723 1.723 0 0 0 1.893-1.615c.27-4.443.91-12.176 2.367-20.456a1.53 1.53 0 0 0-1.34-1.79 1.502 1.502 0 0 0-1.633 1.21c-1.76 9.187-2.531 17.462-2.797 20.853-.072.913.6 1.703 1.51 1.797Z" fill="#fff" fill-opacity=".4"/></g><g filter="url(#g)" fill-rule="evenodd" clip-rule="evenodd"><path d="M184.008 3.27c.127-.082.26-.148.4-.204 1.749-.694 3.636.62 3.593 2.503l-1.459 63.368 1.356 48.93a1.76 1.76 0 0 1-1.768 1.81l-5.748-.031a1.755 1.755 0 0 1-1.743-1.829l1.358-32.806a2.632 2.632 0 0 0-2.726-2.742l-27.506 1.016c-1.43.053-2.63-1.044-2.649-2.477-.097-7.235.433-28.368 8.996-45.662 9.871-19.935 25.975-30.648 27.896-31.877Z" fill="#C2B4B4"/><path d="M161.718 32.161a1.44 1.44 0 0 1 .773 1.935 78.468 78.468 0 0 0-3.213 8.324c-.945 2.927-1.744 5.997-2.42 9.076a1.49 1.49 0 0 1-1.605 1.167 1.468 1.468 0 0 1-1.283-1.788c.871-3.763 1.916-7.545 3.166-11.09a80.236 80.236 0 0 1 2.803-6.918 1.393 1.393 0 0 1 1.779-.706Zm-10.215 46.97a1.724 1.724 0 0 0 1.893-1.615c.27-4.443.91-12.176 2.366-20.456a1.529 1.529 0 0 0-1.34-1.79 1.502 1.502 0 0 0-1.633 1.21c-1.759 9.187-2.531 17.462-2.797 20.853a1.677 1.677 0 0 0 1.511 1.797Z" fill="#fff" fill-opacity=".4"/></g></g><defs><filter id="b" x="59.414" y="11.414" width="79.304" height="79.558" filterUnits="userSpaceOnUse" color-interpolation-filters="sRGB"><feFlood flood-opacity="0" result="BackgroundImageFix"/><feColorMatrix in="SourceAlpha" values="0 0 0 0 0 0 0 0 0 0 0 0 0 0 0 0 0 0 127 0" result="hardAlpha"/><feOffset/><feGaussianBlur stdDeviation=".293"/><feComposite in2="hardAlpha" operator="out"/><feColorMatrix values="0 0 0 0 0.392157 0 0 0 0 0.439216 0 0 0 0 0.403922 0 0 0 0.25 0"/><feBlend in2="BackgroundImageFix" result="effect1_dropShadow_1910_19798"/><feBlend in="SourceGraphic" in2="effect1_dropShadow_1910_19798" result="shape"/></filter><filter id="c" x="75.387" y="50.556" width="24.67" height="23.236" filterUnits="userSpaceOnUse" color-interpolation-filters="sRGB"><feFlood flood-opacity="0" result="BackgroundImageFix"/><feColorMatrix in="SourceAlpha" values="0 0 0 0 0 0 0 0 0 0 0 0 0 0 0 0 0 0 127 0" result="hardAlpha"/><feOffset/><feGaussianBlur stdDeviation=".293"/><feComposite in2="hardAlpha" operator="out"/><feColorMatrix values="0 0 0 0 0.392157 0 0 0 0 0.439216 0 0 0 0 0.403922 0 0 0 0.25 0"/><feBlend in2="BackgroundImageFix" result="effect1_dropShadow_1910_19798"/><feBlend in="SourceGraphic" in2="effect1_dropShadow_1910_19798" result="shape"/></filter><filter id="d" x="98.481" y="33.977" width="28.112" height="17.802" filterUnits="userSpaceOnUse" color-interpolation-filters="sRGB"><feFlood flood-opacity="0" result="BackgroundImageFix"/><feColorMatrix in="SourceAlpha" values="0 0 0 0 0 0 0 0 0 0 0 0 0 0 0 0 0 0 127 0" result="hardAlpha"/><feOffset/><feGaussianBlur stdDeviation=".293"/><feComposite in2="hardAlpha" operator="out"/><feColorMatrix values="0 0 0 0 0.392157 0 0 0 0 0.439216 0 0 0 0 0.403922 0 0 0 0.25 0"/><feBlend in2="BackgroundImageFix" result="effect1_dropShadow_1910_19798"/><feBlend in="SourceGraphic" in2="effect1_dropShadow_1910_19798" result="shape"/></filter><filter id="e" x="62.886" y="14.556" width="73.172" height="73.172" filterUnits="userSpaceOnUse" color-interpolation-filters="sRGB"><feFlood flood-opacity="0" result="BackgroundImageFix"/><feColorMatrix in="SourceAlpha" values="0 0 0 0 0 0 0 0 0 0 0 0 0 0 0 0 0 0 127 0" result="hardAlpha"/><feOffset/><feGaussianBlur stdDeviation=".293"/><feComposite in2="hardAlpha" operator="out"/><feColorMatrix values="0 0 0 0 0.392157 0 0 0 0 0.439216 0 0 0 0 0.403922 0 0 0 0.25 0"/><feBlend in2="BackgroundImageFix" result="effect1_dropShadow_1910_19798"/><feBlend in="SourceGraphic" in2="effect1_dropShadow_1910_19798" result="shape"/></filter><filter id="f" x="4.641" y="2.292" width="42.067" height="117.971" filterUnits="userSpaceOnUse" color-interpolation-filters="sRGB"><feFlood flood-opacity="0" result="BackgroundImageFix"/><feColorMatrix in="SourceAlpha" values="0 0 0 0 0 0 0 0 0 0 0 0 0 0 0 0 0 0 127 0" result="hardAlpha"/><feOffset/><feGaussianBlur stdDeviation=".293"/><feComposite in2="hardAlpha" operator="out"/><feColorMatrix values="0 0 0 0 0.392157 0 0 0 0 0.439216 0 0 0 0 0.403922 0 0 0 0.25 0"/><feBlend in2="BackgroundImageFix" result="effect1_dropShadow_1910_19798"/><feBlend in="SourceGraphic" in2="effect1_dropShadow_1910_19798" result="shape"/></filter><filter id="g" x="146.521" y="2.292" width="42.067" height="117.971" filterUnits="userSpaceOnUse" color-interpolation-filters="sRGB"><feFlood flood-opacity="0" result="BackgroundImageFix"/><feColorMatrix in="SourceAlpha" values="0 0 0 0 0 0 0 0 0 0 0 0 0 0 0 0 0 0 127 0" result="hardAlpha"/><feOffset/><feGaussianBlur stdDeviation=".293"/><feComposite in2="hardAlpha" operator="out"/><feColorMatrix values="0 0 0 0 0.392157 0 0 0 0 0.439216 0 0 0 0 0.403922 0 0 0 0.25 0"/><feBlend in2="BackgroundImageFix" result="effect1_dropShadow_1910_19798"/><feBlend in="SourceGraphic" in2="effect1_dropShadow_1910_19798" result="shape"/></filter></defs></svg>