<svg width="191" height="125" fill="none" xmlns="http://www.w3.org/2000/svg"><path d="M136.905 52.315c0 21.645-17.49 39.193-39.066 39.193-21.576 0-39.066-17.548-39.066-39.193 0-21.646 17.49-39.193 39.066-39.193 21.576 0 39.066 17.547 39.066 39.193Z" fill="#F43F5E"/><path d="M77.578 62.636a.966.966 0 0 0-.32 1.27 23.995 23.995 0 0 0 11.36 10.342.968.968 0 0 0 1.286-.55 1.037 1.037 0 0 0-.56-1.316 22 22 0 0 1-10.296-9.373c-.294-.523-.97-.706-1.47-.373Zm-1.83-2.011c.22.59.934.802 1.458.453.4-.267.554-.778.388-1.229a21.985 21.985 0 0 1-.853-2.939 1.037 1.037 0 0 0-1.175-.815.968.968 0 0 0-.799 1.149c.245 1.152.573 2.282.981 3.381Z" opacity=".1" fill="#000"/><path d="M124.774 49.468c.065.642-.428 1.196-1.072 1.236-.647.04-1.201-.453-1.27-1.098a25.37 25.37 0 0 0-.162-1.227 1.232 1.232 0 0 1 .523-1.22c.696-.464 1.64-.087 1.773.739.085.52.154 1.043.208 1.57Zm-1.188-5.619c.156.479-.036 1-.456 1.279l-.691.46a.578.578 0 0 1-.87-.323 24.65 24.65 0 0 0-3.788-7.647c-.385-.523-.31-1.261.193-1.67.504-.41 1.248-.335 1.635.187a27.022 27.022 0 0 1 3.977 7.714Z" opacity=".2" fill="#fff"/><g opacity=".15" filter="url(#filter0_d_1910_19798)" fill="#000"><path d="M98.245 16.264c1.56 0 2.667 1.448 2.387 2.982l-.234 1.276c-.187 1.025-1.11 1.742-2.153 1.742-.12 0-.24 0-.36.002-1.57.018-2.997-1.026-3.29-2.568-.327-1.722.876-3.371 2.628-3.42.34-.01.68-.014 1.022-.014Zm0 72c-.29 0-.578-.004-.865-.01-1.749-.042-2.958-1.68-2.644-3.401.283-1.547 1.707-2.602 3.28-2.59h.23c1.206 0 2.282.82 2.507 2.005l.126.665c.324 1.707-.897 3.33-2.634 3.33ZM79.521 25.387c-1.12-1.355-.858-3.388.662-4.271.143-.083.286-.165.43-.246 1.559-.878 3.473-.03 4.04 1.666l.093.277c.434 1.3-.185 2.711-1.376 3.392-1.214.695-2.77.485-3.662-.593l-.187-.225Zm36.933 54.041c1.136 1.372.852 3.433-.703 4.3-.254.142-.51.28-.768.416-1.552.817-3.409-.035-3.966-1.698l-.042-.127c-.474-1.417.23-2.95 1.543-3.661 1.29-.7 2.914-.465 3.85.665l.086.105Zm8.174-7.765c1.325 1.16 3.369.952 4.292-.548.162-.262.32-.527.476-.794.889-1.53.093-3.439-1.57-4.047l-.106-.04c-1.399-.511-2.948.133-3.713 1.41-.769 1.286-.59 2.957.537 3.945l.084.074ZM72.395 37.03c.696-1.179.522-2.703-.508-3.605l-.236-.207c-1.336-1.171-3.4-.949-4.313.576l-.226.382c-.891 1.531-.096 3.44 1.569 4.05l.294.108c1.29.473 2.721-.12 3.42-1.303Zm60.588 24.718c-.004.012-.016.018-.027.014-.024-.008-.014-.044.01-.04.012.003.02.015.017.026Zm1.262-9.484-.001.262c-.013 1.776-1.675 3.017-3.42 2.689l-.269-.05c-1.369-.258-2.31-1.508-2.31-2.901v-.042c-.002-1.563 1.048-2.974 2.586-3.258 1.73-.32 3.378.901 3.409 2.66.003.213.005.426.005.64Zm-71.996-.517c.025-1.767 1.681-2.995 3.418-2.668l.06.011c1.496.281 2.518 1.652 2.518 3.174 0 1.229-.837 2.325-2.046 2.548l-.606.112c-1.718.318-3.348-.913-3.348-2.66 0-.173.001-.345.004-.517Zm50.571-25.711c-1.277-.711-1.942-2.224-1.453-3.602l.066-.187c.584-1.648 2.448-2.467 3.984-1.632.211.115.42.232.628.35 1.557.887 1.813 2.967.647 4.326l-.13.152c-.926 1.078-2.5 1.284-3.742.593ZM72.1 66.986c-.693-1.228-2.154-1.86-3.482-1.386l-.261.093c-1.654.59-2.469 2.468-1.617 4.004.086.155.174.31.262.464.891 1.552 2.97 1.803 4.326.635l.209-.18c1.044-.9 1.24-2.43.563-3.63Zm55.627-28.85c1.683-.6 2.492-2.527 1.588-4.068a37.78 37.78 0 0 0-.431-.715c-.92-1.487-2.945-1.7-4.27-.559l-.113.098c-1.128.972-1.31 2.635-.542 3.91.75 1.244 2.257 1.873 3.625 1.385l.143-.051ZM78.947 78.48c.94-1.097 2.555-1.277 3.792-.53 1.2.726 1.803 2.18 1.334 3.5l-.076.217c-.6 1.691-2.537 2.503-4.081 1.588a33.82 33.82 0 0 1-.553-.335c-1.487-.918-1.704-2.941-.565-4.267l.149-.174Z"/></g><path d="M40.902 4.391c.127-.081.26-.147.4-.203 1.748-.694 3.636.62 3.592 2.502l-1.459 63.37 1.357 48.93a1.76 1.76 0 0 1-1.768 1.81l-5.749-.031a1.755 1.755 0 0 1-1.743-1.829l1.359-32.806a2.632 2.632 0 0 0-2.727-2.742L6.658 84.407c-1.43.053-2.63-1.044-2.649-2.477-.097-7.235.434-28.368 8.996-45.662C22.877 16.332 38.98 5.62 40.902 4.39Z" fill="#C2B4B4"/><path d="M18.611 33.283c.765.3 1.113 1.187.773 1.935a78.576 78.576 0 0 0-3.213 8.324c-.945 2.926-1.744 5.997-2.42 9.076a1.49 1.49 0 0 1-1.605 1.167 1.468 1.468 0 0 1-1.282-1.788c.87-3.763 1.916-7.545 3.165-11.09a80.298 80.298 0 0 1 2.804-6.918 1.392 1.392 0 0 1 1.779-.706ZM8.396 80.252a1.723 1.723 0 0 0 1.893-1.615c.27-4.442.91-12.175 2.367-20.456a1.53 1.53 0 0 0-1.34-1.789 1.502 1.502 0 0 0-1.633 1.21c-1.76 9.186-2.531 17.461-2.798 20.853a1.678 1.678 0 0 0 1.511 1.797Z" fill="#fff" fill-opacity=".4"/><path d="M182.781 4.391c.127-.081.26-.147.4-.203 1.749-.694 3.636.62 3.593 2.503l-1.459 63.368 1.356 48.93a1.76 1.76 0 0 1-1.768 1.81l-5.748-.031a1.756 1.756 0 0 1-1.744-1.829l1.359-32.806a2.632 2.632 0 0 0-2.726-2.742l-27.506 1.016c-1.431.053-2.63-1.044-2.649-2.477-.098-7.235.433-28.368 8.996-45.662 9.871-19.935 25.975-30.648 27.896-31.877Z" fill="#C2B4B4"/><path d="M160.491 33.283a1.44 1.44 0 0 1 .773 1.935 78.678 78.678 0 0 0-3.214 8.324c-.944 2.927-1.743 5.997-2.419 9.076a1.49 1.49 0 0 1-1.605 1.167 1.468 1.468 0 0 1-1.283-1.788c.871-3.763 1.916-7.545 3.166-11.09a80.223 80.223 0 0 1 2.803-6.918 1.393 1.393 0 0 1 1.779-.706Zm-10.215 46.969a1.722 1.722 0 0 0 1.892-1.615c.271-4.442.911-12.175 2.367-20.455a1.529 1.529 0 0 0-1.34-1.79 1.502 1.502 0 0 0-1.633 1.21c-1.759 9.186-2.531 17.461-2.797 20.853a1.677 1.677 0 0 0 1.511 1.797Z" fill="#fff" fill-opacity=".4"/></svg>