<svg width="32" height="32" viewBox="0 0 32 32" fill="currentColor" xmlns="http://www.w3.org/2000/svg">
<path d="M26.9562 4.09282C26.8229 3.69282 26.4229 3.42615 25.8895 3.42615H19.0895C18.8229 3.42615 18.5562 3.69282 18.5562 3.95949C18.5562 4.22615 18.8229 4.49282 19.0895 4.49282L25.8895 4.35949L24.8229 5.55949H12.8229L12.1562 4.62615H17.2229C17.4895 4.62615 17.7562 4.35949 17.7562 4.09282C17.7562 3.82615 17.4895 3.55949 17.2229 3.55949H11.3562L10.6895 2.35949C10.4229 2.09282 10.0229 1.95949 9.75621 2.09282C9.62287 2.35949 9.48954 2.62615 9.62287 2.89282L9.88954 3.42615H6.02287C5.62287 3.42615 5.22287 3.69282 4.95621 4.09282C4.95621 4.49282 4.95621 4.89282 5.22287 5.29282L6.42287 6.62615L11.4895 12.2262L13.8895 14.8928C14.2895 15.4262 14.5562 16.0928 14.5562 16.7595V21.4262C14.5562 21.6928 14.8229 21.9595 15.0895 21.9595C15.3562 21.9595 15.6229 21.6928 15.6229 21.4262V16.7595C15.6229 15.8262 15.2229 14.8928 14.6895 14.0928C15.0895 14.2262 15.6229 14.2262 16.0229 14.2262C16.4229 14.2262 16.9562 14.2262 17.3562 14.0928C16.6895 14.7595 16.4229 15.6928 16.4229 16.7595V26.3595C16.4229 26.6262 16.4229 26.7595 16.5562 26.8928C16.6895 27.0262 16.8229 27.1595 16.9562 27.2928L20.4229 28.6262H11.6229L15.0895 27.2928C15.2229 27.1595 15.4895 27.0262 15.4895 26.8928C15.6229 26.7595 15.6229 26.4928 15.6229 26.3595V23.2928C15.6229 23.0262 15.3562 22.7595 15.0895 22.7595C14.8229 22.7595 14.5562 23.0262 14.5562 23.2928V26.2262L10.0229 28.0928C9.62287 28.2262 9.35621 28.6262 9.48954 29.1595C9.62287 29.5595 9.88954 29.9595 10.4229 29.9595H21.6229C22.0229 29.9595 22.4229 29.6928 22.5562 29.1595C22.6895 28.7595 22.4229 28.2262 22.0229 28.0928L17.6229 26.3595V16.7595C17.6229 16.0928 17.8895 15.4262 18.2895 14.8928L20.6895 12.2262L25.6229 6.62615L26.8229 5.29282C27.0895 4.89282 27.0895 4.49282 26.9562 4.09282ZM6.02287 4.62615H10.6895L11.3562 5.69282H7.08954L6.02287 4.62615ZM19.7562 11.4262C18.8229 12.4928 17.4895 13.1595 16.0229 13.1595C14.5562 13.1595 13.2229 12.4928 12.2895 11.4262C12.2895 11.4262 12.2895 11.4262 12.1562 11.2928L8.02287 6.75949H12.2895L13.3562 8.35949C12.5562 9.15949 12.2895 10.3595 12.9562 11.1595C13.2229 11.6928 13.8895 11.9595 14.6895 11.9595C15.0895 11.9595 15.3562 11.9595 15.7562 11.6928L16.0229 12.3595C16.1562 12.4928 16.2895 12.6262 16.5562 12.6262C16.6895 12.6262 16.8229 12.6262 16.8229 12.4928C17.0895 12.3595 17.0895 11.9595 16.9562 11.6928L16.5562 11.1595C16.8229 10.8928 17.0895 10.4928 17.2229 10.0928C17.3562 9.42615 17.3562 8.89282 16.9562 8.35949C16.4229 7.55949 15.2229 7.29282 14.1562 7.69282L13.4895 6.75949H23.7562L19.7562 11.4262ZM16.1562 9.69282C16.0229 9.95949 15.8895 10.3595 15.4895 10.4928C14.8229 10.8928 14.1562 10.8928 13.7562 10.4928C13.4895 10.0928 13.7562 9.29282 14.2895 8.89282C14.5562 8.75949 14.9562 8.62615 15.2229 8.62615C15.4895 8.62615 15.8895 8.75949 16.0229 9.02615C16.2895 9.15949 16.2895 9.42615 16.1562 9.69282Z" fill="black"/>
</svg>
