<svg width="24" height="24" viewBox="0 0 24 24" fill="currentColor" xmlns="http://www.w3.org/2000/svg">
<path d="M6.31375 12.0001C6.31375 12.5523 6.76146 13.0001 7.31375 13.0001H19.3138C19.866 13.0001 20.3138 12.5523 20.3138 12.0001C20.3138 11.4478 19.866 11.0001 19.3138 11.0001H7.31375C6.76146 11.0001 6.31375 11.4478 6.31375 12.0001Z" fill="black"/>
<path d="M5.70726 12.6066C6.09779 12.9971 6.73095 12.9971 7.12147 12.6066L11.3643 8.36381C11.7548 7.97328 11.7548 7.34012 11.3643 6.94959C10.9737 6.55907 10.3406 6.55907 9.95005 6.94959L5.70726 11.1924C5.31674 11.5829 5.31674 12.2161 5.70726 12.6066Z" fill="black"/>
<path d="M5.70726 11.1924C5.31674 11.5829 5.31674 12.2161 5.70726 12.6066L9.94698 16.8465C10.3375 17.237 10.9707 17.237 11.3612 16.8465C11.7517 16.456 11.7517 15.8228 11.3612 15.4323L7.12143 11.1925C6.73091 10.802 6.09779 10.8019 5.70726 11.1924Z" fill="black"/>
</svg>
