<svg width="32" height="32" viewBox="0 0 32 32" fill="none" xmlns="http://www.w3.org/2000/svg">
<path fill-rule="evenodd" clip-rule="evenodd" d="M12.6166 18.1993C12.6159 18.2003 12.6166 18.2018 12.6179 18.2018V18.2018C12.6184 18.2018 12.6188 18.2015 12.6191 18.2011L12.6214 18.1982C12.6219 18.1975 12.6219 18.1966 12.6213 18.196V18.196C12.6206 18.1953 12.6194 18.1954 12.6189 18.1962L12.6166 18.1993ZM18.2758 14.431C18.2758 14.0824 18.5305 13.7983 18.8448 13.7983C19.159 13.7983 19.4137 14.0824 19.4137 14.431C19.4137 14.7796 19.159 15.0637 18.8448 15.0637C18.5305 15.0637 18.2758 14.7796 18.2758 14.431ZM12.0401 15.0384C12.0401 14.6897 12.2948 14.4057 12.6091 14.4057C12.9233 14.4057 13.178 14.6897 13.178 15.0384C13.178 15.387 12.9233 15.671 12.6091 15.671C12.2948 15.671 12.0401 15.387 12.0401 15.0384ZM15.4538 9.97693C15.4538 9.6283 15.7085 9.34425 16.0228 9.34425C16.337 9.34425 16.5917 9.6283 16.5917 9.97693C16.5917 10.3255 16.337 10.6096 16.0228 10.6096C15.7085 10.6096 15.4538 10.3255 15.4538 9.97693ZM22.2812 12.5076C22.2812 12.159 22.5359 11.875 22.8502 11.875C23.1644 11.875 23.4191 12.159 23.4191 12.5076C23.4191 12.8563 23.1644 13.1403 22.8502 13.1403C22.5359 13.1403 22.2812 12.8563 22.2812 12.5076ZM8.6264 11.9003C8.6264 12.2489 8.88113 12.5329 9.19535 12.5329C9.50957 12.5329 9.7643 12.2489 9.7643 11.9003C9.7643 11.5516 9.50957 11.2676 9.19535 11.2676C8.88113 11.2676 8.6264 11.5516 8.6264 11.9003ZM22.384 19.1566L22.3825 19.1579L20.4215 21.0403C20.2456 21.2092 20.3533 21.5298 20.5859 21.5298H26.4232C27.3044 21.5298 28.0508 20.7669 28.0508 19.8214C28.0508 18.8843 27.3576 18.0624 26.4232 18.0624H25.1032C24.1166 18.0624 23.1331 18.4797 22.384 19.1566ZM27.7996 22.2097V23.873L27.7997 23.8755C27.8425 25.2077 26.8129 26.3125 25.6039 26.3125H24.0186C23.7322 26.3125 23.5 26.0803 23.5 25.7939V25.7939C23.5 25.5075 23.7322 25.2753 24.0186 25.2753H25.5584C26.3011 25.2753 26.9129 24.6661 26.9129 23.8706V22.788C26.9129 22.6169 26.7782 22.4934 26.6336 22.5068C26.5642 22.5132 26.4941 22.5165 26.4232 22.5165H18.9774C18.917 22.5165 18.8587 22.5406 18.813 22.5844L17.5682 23.7794C17.3272 24.0107 16.9469 24.0117 16.7048 23.7815L15.391 22.5329C15.3455 22.4896 15.2875 22.4658 15.2276 22.4658H10.0558C9.78337 22.4658 9.5625 22.245 9.5625 21.9725V21.9725C9.5625 21.7001 9.78337 21.4792 10.0558 21.4792H13.603C13.8362 21.4792 13.9436 21.1572 13.7664 20.9888L11.8953 19.2105L11.8948 19.21C11.1442 18.4799 10.1593 18.0624 9.1726 18.0624H5.57682C4.69565 18.0624 3.94919 18.8253 3.94919 19.7708C3.94919 20.7163 4.69565 21.4792 5.57682 21.4792H8.13168C8.40413 21.4792 8.625 21.7001 8.625 21.9725V21.9725C8.625 22.245 8.40413 22.4658 8.13168 22.4658H5.57682C5.49148 22.4658 5.40715 22.4613 5.32404 22.4524C5.17832 22.4368 5.04157 22.5608 5.04157 22.7332V23.8706C5.04157 24.6661 5.65338 25.2753 6.39611 25.2753H22.1689C22.4553 25.2753 22.6875 25.5075 22.6875 25.7939V25.7939C22.6875 26.0803 22.4553 26.3125 22.1689 26.3125H6.39611C5.14091 26.3125 4.15488 25.2564 4.15488 23.9212V22.1404C4.15488 22.0489 4.11447 21.9656 4.05081 21.9134C3.44921 21.4207 3.0625 20.6447 3.0625 19.7708C3.0625 18.8969 3.44921 18.1209 4.05081 17.6281C4.11447 17.576 4.15488 17.4927 4.15488 17.4012V15.671C4.15488 10.0107 9.20819 5.68753 16 5.68753C22.7918 5.68753 27.8451 10.0107 27.8451 15.671V17.4012C27.8451 17.4927 27.8855 17.576 27.9492 17.6281C28.5508 18.1209 28.9375 18.8969 28.9375 19.7708C28.9375 20.6658 28.5319 21.4764 27.9052 21.9815C27.8407 22.0336 27.7996 22.1174 27.7996 22.2097ZM26.9584 16.8084V15.671C26.9584 10.4966 22.2218 6.67417 16.0455 6.67417C12.9509 6.67417 10.2155 7.62992 8.25048 9.23195C6.28432 10.8349 5.08709 13.0881 5.08709 15.671V16.8039C5.08709 16.9744 5.22099 17.098 5.36539 17.0851C5.43508 17.0789 5.5056 17.0758 5.57682 17.0758H26.4232C26.5085 17.0758 26.5928 17.0803 26.676 17.0892C26.8217 17.1048 26.9584 16.9808 26.9584 16.8084ZM17.301 22.6846L21.7195 18.5009C21.7746 18.4487 21.7813 18.3632 21.735 18.303V18.303V18.303C21.7788 18.3595 21.8661 18.3625 21.8763 18.2917C21.8921 18.1816 21.8228 18.0624 21.7019 18.0624H12.5725C12.4033 18.0624 12.3361 18.2958 12.4601 18.4098L16.9748 22.6846C17.0688 22.7736 17.207 22.7736 17.301 22.6846Z" fill="black"/>
</svg>
