<svg width="24" height="24" viewBox="0 0 24 24" fill="none" xmlns="http://www.w3.org/2000/svg">
<path fill-rule="evenodd" clip-rule="evenodd" d="M5 2.5H9C10.3807 2.5 11.5 3.61929 11.5 5V9C11.5 10.3807 10.3807 11.5 9 11.5H5C3.61929 11.5 2.5 10.3807 2.5 9V5C2.5 3.61929 3.61929 2.5 5 2.5ZM15 2.5H19C20.3807 2.5 21.5 3.61929 21.5 5V9C21.5 10.3807 20.3807 11.5 19 11.5H15C13.6193 11.5 12.5 10.3807 12.5 9V5C12.5 3.61929 13.6193 2.5 15 2.5ZM5 12.5H9C10.3807 12.5 11.5 13.6193 11.5 15V19C11.5 20.3807 10.3807 21.5 9 21.5H5C3.61929 21.5 2.5 20.3807 2.5 19V15C2.5 13.6193 3.61929 12.5 5 12.5ZM15 12.5H19C20.3807 12.5 21.5 13.6193 21.5 15V19C21.5 20.3807 20.3807 21.5 19 21.5H15C13.6193 21.5 12.5 20.3807 12.5 19V15C12.5 13.6193 13.6193 12.5 15 12.5ZM5 4C4.44772 4 4 4.44772 4 5V9C4 9.55228 4.44772 10 5 10H9C9.55228 10 10 9.55228 10 9V5C10 4.44772 9.55228 4 9 4H5ZM15 4C14.4477 4 14 4.44772 14 5V9C14 9.55228 14.4477 10 15 10H19C19.5523 10 20 9.55228 20 9V5C20 4.44772 19.5523 4 19 4H15ZM4 15C4 14.4477 4.44772 14 5 14H9C9.55228 14 10 14.4477 10 15V19C10 19.5523 9.55228 20 9 20H5C4.44772 20 4 19.5523 4 19V15ZM15 14C14.4477 14 14 14.4477 14 15V19C14 19.5523 14.4477 20 15 20H19C19.5523 20 20 19.5523 20 19V15C20 14.4477 19.5523 14 19 14H15Z" fill="black"/>
</svg>
