<svg width="24" height="24" viewBox="0 0 24 24" fill="currentColor" xmlns="http://www.w3.org/2000/svg">
<path d="M21.3402 17.768H20.7909C20.6775 15.0624 19.8627 12.7329 18.4161 11.0002C17.6371 10.0673 16.6996 9.34235 15.6294 8.84555C15.0982 8.59895 14.54 8.41203 13.959 8.28442C14.1657 7.93951 14.2747 7.54486 14.2743 7.14274C14.2743 5.91293 13.2738 4.91238 12.044 4.91238C10.8142 4.91238 9.81363 5.91293 9.81363 7.14274C9.81323 7.54498 9.9223 7.93974 10.1291 8.28473C6.19734 9.1511 3.61016 12.7248 3.40305 17.768H2.6598C2.29539 17.768 2 18.0634 2 18.4278C2 18.7922 2.29539 19.0876 2.6598 19.0876H21.3402C21.7046 19.0876 22 18.7922 22 18.4278C22 18.0634 21.7046 17.768 21.3402 17.768ZM12.044 6.23199C12.5462 6.23199 12.9548 6.64059 12.9548 7.14277C12.9548 7.64496 12.5462 8.0536 12.044 8.0536C11.5418 8.0536 11.1332 7.645 11.1332 7.14277C11.1332 6.64055 11.5418 6.23199 12.044 6.23199ZM4.72316 17.768C4.82965 15.3689 5.52211 13.3301 6.74191 11.8412C8.04992 10.2446 9.88336 9.40067 12.044 9.40067C14.2145 9.40067 16.0677 10.2462 17.4032 11.8459C18.6521 13.3417 19.3613 15.3791 19.4708 17.768H4.72316Z" fill="black"/>
</svg>
