<svg width="32" height="32" viewBox="0 0 32 32" fill="currentColor" xmlns="http://www.w3.org/2000/svg">
<path d="M29.0539 15.1566L22.6597 11.479C22.5964 11.4403 22.526 11.4148 22.4527 11.4038C22.3793 11.3928 22.3045 11.3966 22.2327 11.4149C22.1608 11.4333 22.0933 11.4659 22.0343 11.5107C21.9752 11.5556 21.9257 11.6118 21.8887 11.6761C21.8518 11.7404 21.828 11.8115 21.8189 11.8851C21.8098 11.9587 21.8156 12.0334 21.8358 12.1047C21.8561 12.1761 21.8904 12.2426 21.9368 12.3005C21.9831 12.3584 22.0406 12.4064 22.1059 12.4417L26.6879 15.0772H3.81273C4.14105 11.3012 6.42763 7.97412 10.0197 6.09643C10.1881 6.00932 10.3755 5.96558 10.5651 5.96917C10.7546 5.97276 10.9402 6.02356 11.1052 6.11698L11.1941 6.16698C11.3218 6.23079 11.4692 6.24304 11.6057 6.20116C11.7422 6.15929 11.8574 6.06652 11.9274 5.94206C11.9973 5.8176 12.0168 5.67099 11.9816 5.53261C11.9465 5.39422 11.8594 5.27466 11.7385 5.19868L11.6513 5.14924C11.3254 4.96275 10.9576 4.8616 10.5822 4.85519C10.2067 4.84878 9.83571 4.93732 9.50361 5.11258C5.43211 7.24027 2.81278 11.2662 2.66723 15.6194C2.66723 15.6216 2.66834 15.6238 2.66778 15.626L2.66667 15.6327C2.66667 16.9121 2.66834 25.0679 2.66778 26.6828C2.66778 27.6022 3.41553 28.3494 4.33438 28.3494H27.6667C28.5856 28.3494 29.3333 27.6022 29.3333 26.6828V15.6355C29.3328 15.5382 29.3067 15.4427 29.2576 15.3587C29.2086 15.2746 29.1383 15.205 29.0539 15.1566ZM24.5208 17.0493C23.9973 17.0493 23.4951 17.2569 23.1245 17.6266C22.7538 17.9963 22.5449 18.4979 22.5436 19.0214V21.8658C22.5436 22.3407 22.1547 22.7268 21.677 22.7268C21.4459 22.7268 21.2315 22.638 21.0698 22.473C20.9894 22.3936 20.9256 22.299 20.882 22.1948C20.8385 22.0906 20.816 21.9787 20.8159 21.8658V20.4436C20.8153 19.9193 20.6068 19.4166 20.236 19.0458C19.8652 18.675 19.3626 18.4665 18.8382 18.4659C18.3146 18.4672 17.8129 18.6762 17.4432 19.047C17.0735 19.4177 16.8659 19.92 16.8661 20.4436C16.8661 20.9214 16.4772 21.3102 15.9994 21.3102C15.7705 21.3089 15.5514 21.217 15.3901 21.0546C15.2287 20.8922 15.1382 20.6725 15.1384 20.4436V19.0214C15.1384 18.4977 14.9303 17.9953 14.5599 17.625C14.1896 17.2546 13.6872 17.0465 13.1635 17.0465C12.6397 17.0465 12.1373 17.2546 11.767 17.625C11.3966 17.9953 11.1885 18.4977 11.1885 19.0214V19.6214C11.1885 19.8531 11.0985 20.0708 10.9385 20.2303C10.7686 20.3964 10.5497 20.488 10.3219 20.488C9.85082 20.488 9.46194 20.1031 9.45528 19.6136C9.43972 18.5365 8.55532 17.6604 7.48314 17.6604C6.9588 17.661 6.45611 17.8695 6.08535 18.2403C5.71458 18.6111 5.50603 19.1137 5.50544 19.6381V21.288C5.50544 21.7658 5.11935 22.1546 4.64437 22.1546C4.41477 22.1534 4.1948 22.0623 4.03161 21.9008C3.87051 21.7397 3.78163 21.5263 3.77885 21.2991V16.1938H28.2212V19.6214C28.2212 20.0992 27.8351 20.488 27.3601 20.488C27.2463 20.488 27.1336 20.4656 27.0284 20.4221C26.9233 20.3785 26.8278 20.3147 26.7473 20.2342C26.6668 20.1537 26.603 20.0582 26.5594 19.9531C26.5159 19.8479 26.4935 19.7352 26.4935 19.6214V19.0214C26.4929 18.4986 26.2849 17.9973 25.9152 17.6276C25.5455 17.2579 25.0436 17.0499 24.5208 17.0493ZM4.64492 23.2657C5.16852 23.2644 5.67022 23.0554 6.03994 22.6847C6.40966 22.3139 6.61721 21.8116 6.61706 21.288V19.6381C6.61706 19.1603 7.00594 18.7715 7.48369 18.7715C7.95201 18.7715 8.3381 19.1564 8.34477 19.6459C8.36032 20.723 9.24751 21.5991 10.3225 21.5991C10.8469 21.599 11.3499 21.3906 11.7207 21.0197C12.0916 20.6488 12.3 20.1459 12.3002 19.6214V19.0214C12.3002 18.5465 12.6863 18.1604 13.1612 18.1604C13.639 18.1604 14.0279 18.5465 14.0279 19.0214V20.4436C14.0279 20.9714 14.2334 21.4686 14.6073 21.8419C14.9812 22.2152 15.4756 22.4213 16 22.4213C16.5243 22.4207 17.027 22.2122 17.3978 21.8414C17.7686 21.4706 17.9771 20.9679 17.9777 20.4436C17.9777 19.9658 18.3638 19.577 18.8388 19.577C19.3165 19.577 19.7054 19.9658 19.7054 20.4436V21.8658C19.7054 22.3902 19.911 22.8852 20.2809 23.2546C20.4627 23.4405 20.68 23.588 20.92 23.6882C21.1599 23.7884 21.4175 23.8393 21.6775 23.8379C22.2011 23.8379 22.7033 23.6303 23.074 23.2606C23.4448 22.8909 23.6538 22.3893 23.6552 21.8658V19.0214C23.6552 18.5465 24.0441 18.1604 24.5219 18.1604C24.9969 18.1604 25.3829 18.5465 25.3829 19.0214V19.6214C25.3829 21.0491 26.8784 22.0535 28.2228 21.3913V25.0156H3.7794V23.0557C4.04828 23.1879 4.34049 23.2657 4.64492 23.2657ZM28.2228 26.6828C28.2228 26.9894 27.9734 27.2383 27.6673 27.2383H4.33494C4.02884 27.2383 3.7794 26.9894 3.7794 26.6828V26.1273H28.2228V26.6828Z" fill="black"/>
<path d="M21.9509 5.51867C21.672 4.797 21.1182 4.21545 20.411 3.90165C19.7038 3.58784 18.901 3.56742 18.1788 3.84485C17.4592 4.12327 16.8787 4.67478 16.5639 5.37923C15.8575 5.06797 15.0568 5.0486 14.3362 5.32535C13.6147 5.60444 13.0334 6.15833 12.7198 6.86549C12.4063 7.57265 12.386 8.37533 12.6635 9.09741C13.899 12.3045 19.0204 13.0334 19.2376 13.0622C19.3303 13.0748 19.4247 13.0638 19.512 13.0302C19.5993 12.9966 19.6767 12.9415 19.7371 12.87C19.8782 12.7023 23.1869 8.72576 21.9509 5.51867ZM19.0799 11.9095C18.0221 11.7123 14.5506 10.9057 13.7001 8.69798C13.5282 8.25078 13.5408 7.75366 13.735 7.31571C13.9293 6.87775 14.2893 6.53475 14.7362 6.36197C15.0355 6.2479 15.3597 6.21484 15.6759 6.26615C15.9922 6.31746 16.2893 6.45131 16.5372 6.65418C16.6132 6.71622 16.7043 6.75707 16.8011 6.7726C16.898 6.78812 16.9973 6.77776 17.0889 6.74257C17.1804 6.70738 17.2611 6.64861 17.3227 6.57221C17.3842 6.49581 17.4245 6.4045 17.4394 6.30753C17.4864 5.99045 17.6166 5.69148 17.8166 5.441C18.0166 5.19052 18.2794 4.99748 18.5782 4.88148C18.7995 4.79543 19.0356 4.75411 19.273 4.75993C19.5103 4.76575 19.7442 4.81858 19.961 4.91536C20.1783 5.01118 20.3744 5.14913 20.538 5.32125C20.7017 5.49337 20.8295 5.69623 20.9142 5.9181C21.7631 8.12023 19.731 11.0529 19.0799 11.9095Z" fill="black"/>
<path d="M19.2243 5.87754C19.1938 5.87754 19.116 5.88366 19.0854 5.88866C18.7832 5.93921 18.5566 6.22753 18.6071 6.52974C18.6371 6.71084 18.7438 6.8575 18.8899 6.93528C18.9143 7.16971 18.8843 7.55525 18.6693 8.15745C18.6445 8.22619 18.6335 8.29916 18.6369 8.37217C18.6403 8.44518 18.6581 8.51681 18.6892 8.58293C18.7204 8.64905 18.7643 8.70838 18.8184 8.75751C18.8725 8.80664 18.9358 8.84461 19.0046 8.86925C19.0734 8.89388 19.1464 8.90469 19.2194 8.90106C19.2924 8.89743 19.364 8.87942 19.43 8.84808C19.4961 8.81674 19.5552 8.77268 19.6042 8.71842C19.6532 8.66416 19.691 8.60077 19.7154 8.53188C20.0398 7.6258 20.0943 6.88028 19.8776 6.31864C19.8278 6.18644 19.7383 6.07296 19.6212 5.99385C19.5042 5.91474 19.3655 5.87447 19.2243 5.87754ZM5.90543 12.2928C5.90587 12.7379 6.08281 13.1645 6.39743 13.4793C6.71205 13.794 7.13867 13.9711 7.58369 13.9717C8.02969 13.9721 8.45765 13.7956 8.77364 13.4808C9.08963 13.1661 9.26785 12.7388 9.26917 12.2928C9.26859 11.846 9.09082 11.4176 8.77486 11.1017C8.45889 10.7857 8.03053 10.6079 7.58369 10.6073C7.13779 10.6088 6.71067 10.7871 6.39605 11.1031C6.08143 11.4191 5.90498 11.8469 5.90543 12.2928ZM8.15811 12.2928C8.15021 12.4389 8.08663 12.5764 7.98045 12.677C7.87427 12.7776 7.73357 12.8336 7.5873 12.8336C7.44103 12.8336 7.30033 12.7776 7.19415 12.677C7.08797 12.5764 7.02438 12.4389 7.01649 12.2928C7.01649 11.9762 7.27092 11.7184 7.58369 11.7184C7.90034 11.7184 8.15811 11.9762 8.15811 12.2928Z" fill="black"/>
<path d="M10.0314 9.5985C10.3397 9.5985 10.5897 9.34854 10.5897 9.04019C10.5897 8.73184 10.3397 8.48188 10.0314 8.48188C9.72302 8.48188 9.47305 8.73184 9.47305 9.04019C9.47305 9.34854 9.72302 9.5985 10.0314 9.5985Z" fill="black"/>
<path d="M11.9324 11.6106C12.239 11.6106 12.4907 11.359 12.4907 11.0523C12.4907 10.7457 12.239 10.494 11.9324 10.494C11.6257 10.494 11.3741 10.7457 11.3741 11.0523C11.3741 11.359 11.6257 11.6106 11.9324 11.6106ZM10.858 13.9717C11.1646 13.9717 11.4163 13.7194 11.4163 13.4128C11.4163 13.1061 11.1646 12.8545 10.858 12.8545C10.5513 12.8545 10.2997 13.1061 10.2997 13.4128C10.2997 13.7194 10.5513 13.9717 10.858 13.9717ZM13.239 12.855C12.9318 12.855 12.6801 13.1061 12.6801 13.4128C12.6801 13.7194 12.9318 13.9717 13.2385 13.9717C13.5451 13.9717 13.7973 13.7194 13.7973 13.4128C13.7973 13.1061 13.5462 12.855 13.239 12.855Z" fill="black"/>
<path d="M15.6195 13.9683C15.9278 13.9683 16.1778 13.7184 16.1778 13.41C16.1778 13.1017 15.9278 12.8517 15.6195 12.8517C15.3111 12.8517 15.0612 13.1017 15.0612 13.41C15.0612 13.7184 15.3111 13.9683 15.6195 13.9683Z" fill="black"/>
<path d="M20.3887 13.7294C20.3887 14.0361 20.6398 14.2877 20.9465 14.2877C21.2531 14.2877 21.5053 14.0361 21.5053 13.7294C21.5053 13.4228 21.2537 13.1711 20.9465 13.1711C20.6393 13.1711 20.3887 13.4228 20.3887 13.7294Z" fill="black"/>
</svg>
