<svg width="32" height="32" viewBox="0 0 32 32" fill="currentColor" xmlns="http://www.w3.org/2000/svg">
<path d="M20.95 29.85H13.2167C12.95 29.85 12.6834 29.7167 12.55 29.5833C12.4167 29.45 12.2834 29.1833 12.15 28.9167L10.8167 17.1833C8.01669 17.1833 5.88335 14.9167 5.88335 12.1167C5.88335 9.31667 8.15002 7.05 10.95 7.05C13.4834 7.05 15.6167 8.91667 16.0167 11.45H19.2167V5.05C19.2167 4.91667 19.2167 4.78333 19.35 4.65C19.4834 4.51667 19.4834 4.38333 19.75 4.38333L24.15 2.25C24.4167 2.11667 24.6834 2.11667 24.95 2.25C25.2167 2.38333 25.4834 2.51667 25.6167 2.78333L26.0167 3.85C26.15 4.11667 26.15 4.38333 26.0167 4.65C25.8834 4.91667 25.75 5.18333 25.4834 5.31667L22.55 6.65V11.45H22.8167C23.0834 11.45 23.4834 11.5833 23.6167 11.85C23.75 12.1167 23.8834 12.3833 23.8834 12.65L23.0834 19.7167C23.0834 19.9833 22.8167 20.25 22.4167 20.25C22.15 20.25 21.8834 19.9833 21.8834 19.5833L22.15 17.1833C21.8834 17.1833 21.75 17.3167 21.4834 17.45C21.0834 17.5833 20.6834 17.85 19.75 17.85C18.8167 17.85 18.4167 17.5833 18.0167 17.45C17.75 17.3167 17.4834 17.1833 16.8167 17.1833C16.2834 17.1833 16.0167 17.3167 15.6167 17.45C15.2167 17.5833 14.8167 17.85 13.8834 17.85C13.0834 17.85 12.55 17.5833 12.15 17.45C12.4167 17.3167 12.2834 17.1833 12.0167 17.1833L13.35 28.7833H21.0834L21.6167 24.3833C21.6167 24.1167 21.8834 23.85 22.15 23.85C22.4167 23.85 22.6834 24.1167 22.6834 24.3833L22.15 28.7833C22.15 29.05 22.0167 29.3167 21.75 29.45C21.4834 29.7167 21.2167 29.85 20.95 29.85ZM17.0834 15.9833C17.8834 15.9833 18.4167 16.25 18.8167 16.3833C19.0834 16.5167 19.35 16.65 20.0167 16.65C20.6834 16.65 20.8167 16.5167 21.2167 16.3833C21.4834 16.25 21.8834 15.9833 22.55 15.9833L22.95 12.5167H11.6167L11.8834 15.9833C12.55 15.9833 12.8167 16.25 13.2167 16.3833C13.4834 16.5167 13.75 16.65 14.4167 16.65C15.0834 16.65 15.2167 16.5167 15.6167 16.3833C15.75 16.25 16.2834 15.9833 17.0834 15.9833ZM10.95 8.11667C8.68335 8.11667 6.95002 9.85 6.95002 12.1167C6.95002 14.25 8.68335 15.9833 10.6834 16.1167V14.9167C9.21669 14.7833 8.15002 13.45 8.15002 11.9833C8.15002 10.3833 9.48335 9.05 11.0834 9.05C12.4167 9.05 13.6167 9.98333 13.8834 11.3167H14.95C14.55 9.58333 12.95 8.11667 10.95 8.11667ZM10.95 10.25C9.88335 10.25 9.08335 11.05 9.08335 12.1167C9.08335 12.9167 9.61669 13.7167 10.4167 13.85V12.65C10.4167 12.3833 10.4167 11.9833 10.6834 11.85C10.95 11.5833 11.2167 11.45 11.4834 11.45H12.6834C12.4167 10.7833 11.75 10.25 10.95 10.25ZM20.2834 11.45H21.4834V6.25C21.4834 5.98333 21.6167 5.85 21.75 5.71667L24.95 4.11667L24.55 3.05L20.2834 5.05V11.45ZM18.0167 27.9833C17.75 27.9833 17.6167 27.85 17.4834 27.7167L16.0167 26.25C15.8834 26.1167 15.75 25.85 15.75 25.7167C15.75 25.45 15.8834 25.3167 16.0167 25.1833L17.4834 23.7167C17.75 23.45 18.2834 23.45 18.6834 23.7167L20.15 25.1833C20.2834 25.3167 20.4167 25.5833 20.4167 25.7167C20.4167 25.9833 20.2834 26.1167 20.15 26.25L18.6834 27.7167C18.4167 27.85 18.2834 27.9833 18.0167 27.9833ZM16.95 25.7167L18.0167 26.7833L19.0834 25.7167L18.0167 24.65L16.95 25.7167ZM15.75 23.3167C15.4834 23.3167 15.35 23.1833 15.2167 23.05L13.75 21.5833C13.6167 21.45 13.4834 21.1833 13.4834 21.05C13.4834 20.7833 13.6167 20.65 13.75 20.5167L15.2167 19.05C15.4834 18.7833 16.0167 18.7833 16.4167 19.05L17.8834 20.5167C18.0167 20.65 18.15 20.9167 18.15 21.05C18.15 21.1833 18.0167 21.45 17.8834 21.5833L16.4167 23.05C16.15 23.1833 15.8834 23.3167 15.75 23.3167ZM14.6834 21.05L15.75 22.1167L16.8167 21.05L15.75 19.9833L14.6834 21.05Z" fill="black"/>
</svg>
