<svg width="32" height="32" viewBox="0 0 32 32" fill="currentColor" xmlns="http://www.w3.org/2000/svg">
<path fill-rule="evenodd" clip-rule="evenodd" d="M28.0285 16.7208C28.0261 16.7222 28.0236 16.7238 28.021 16.7254L28.0285 16.7208Z" fill="black"/>
<path fill-rule="evenodd" clip-rule="evenodd" d="M20.5532 7.08396C20.5605 7.08675 20.5677 7.08968 20.5748 7.09275C23.3442 8.15745 25.625 9.92559 26.8752 12.121C27.3811 13.0088 28.0087 13.8065 28.7546 14.5023C29.0038 14.7349 29.1885 15.003 29.3122 15.2541C29.4303 15.4938 29.5146 15.7626 29.5146 16.0007C29.5146 16.2398 29.4293 16.5086 29.3109 16.7476C29.1869 16.998 29.0022 17.2653 28.7539 17.4972C28.0161 18.1864 27.3764 18.9995 26.877 19.878C25.624 22.0803 23.3334 23.8532 20.5532 24.9175C19.1773 25.4448 17.6736 25.8018 16.1018 25.9515C15.5476 26.0048 14.985 26.032 14.4167 26.032C13.7753 26.0047 12.3606 25.9274 11.8329 25.8358C10.7192 25.6657 9.65661 25.3876 8.66141 25.0213C8.47515 24.9528 8.34263 24.7861 8.31783 24.5892C8.29302 24.3922 8.38006 24.1979 8.54351 24.0853C9.8575 23.18 10.7187 21.6707 10.7187 19.9591C10.7187 19.5909 10.6754 19.2331 10.5953 18.8876C10.5493 18.6893 10.2945 18.6479 10.1644 18.8045C8.91254 20.3112 7.03673 21.282 4.91666 21.282H3.01666C2.72326 21.282 2.48541 21.0441 2.48541 20.7507C2.48541 18.9812 3.16758 17.3869 4.2638 16.1778C4.35462 16.0776 4.35462 15.9239 4.2638 15.8237C3.16758 14.6146 2.48541 13.0202 2.48541 11.2507C2.48541 10.9573 2.72326 10.7195 3.01666 10.7195H4.91666C7.03673 10.7195 8.91254 11.6903 10.1644 13.197C10.2945 13.3535 10.5493 13.3121 10.5953 13.1139C10.6754 12.7684 10.7187 12.4106 10.7187 12.0424C10.7187 10.3308 9.8575 8.82148 8.54351 7.91617C8.38006 7.80356 8.29302 7.60923 8.31783 7.41231C8.34263 7.21538 8.47515 7.04871 8.66141 6.98015C9.65672 6.6138 10.7194 6.33566 11.8332 6.16557C12.668 6.03753 13.5318 5.96948 14.4165 5.96948C14.9748 5.95816 15.7728 6.01846 16.102 6.05002C17.6736 6.20018 19.1771 6.55667 20.5532 7.08396ZM11.994 24.7856C12.7761 24.9056 13.5863 24.9695 14.4167 24.9695C14.9513 24.9695 15.4806 24.9438 16.0009 24.8938C17.4784 24.7531 18.8882 24.4177 20.1732 23.9253C22.7836 22.926 24.8503 21.2915 25.9533 19.3529C26.5296 18.5462 27.7417 16.903 28.021 16.7254L28.0285 16.7208C28.1739 16.585 28.2853 16.4244 28.3589 16.2759C28.3954 16.2022 28.4202 16.1363 28.4352 16.0835C28.4503 16.0303 28.4519 16.0031 28.4521 16.0009C28.452 15.9998 28.4517 15.993 28.4496 15.9798C28.4471 15.9642 28.4426 15.9431 28.4352 15.9168C28.4202 15.8637 28.3954 15.7975 28.3591 15.7237C28.2858 15.575 28.1749 15.4146 28.0298 15.2792C27.2041 14.509 26.51 13.6262 25.9519 12.6468C24.8484 10.7091 22.7826 9.07547 20.1732 8.07671C20.1661 8.07397 20.159 8.07108 20.152 8.06806C18.8728 7.58011 17.4702 7.24807 16.0004 7.10766C15.4741 7.05712 14.9454 7.03186 14.4167 7.03198C14.3705 7.03198 14.3244 7.03218 14.2783 7.03257C13.4962 7.03926 12.7323 7.10258 11.9936 7.21589C11.4262 7.30254 10.8733 7.41909 10.3375 7.56244C10.1527 7.61188 10.095 7.84441 10.223 7.98658C11.1902 9.06063 11.7812 10.4814 11.7812 12.0424C11.7812 12.9855 11.5497 13.8627 11.1732 14.6472C11.0848 14.8315 10.8986 14.9486 10.6942 14.9486H10.3718C10.1826 14.9486 10.0078 14.8481 9.91263 14.6846C8.9043 12.9522 7.05354 11.782 4.91666 11.782H3.84677C3.69956 11.782 3.58374 11.9087 3.60442 12.0544C3.80418 13.462 4.52077 14.7005 5.55075 15.6007C5.66617 15.7016 5.73239 15.8474 5.73239 16.0007C5.73239 16.154 5.66617 16.2998 5.55075 16.4007C4.52077 17.301 3.80418 18.5395 3.60442 19.947C3.58374 20.0928 3.69956 20.2195 3.84677 20.2195H4.91666C7.05354 20.2195 8.9043 19.0493 9.91263 17.3168C10.0078 17.1534 10.1826 17.0528 10.3718 17.0528H10.6942C10.8986 17.0528 11.0848 17.17 11.1732 17.3542C11.5497 18.1388 11.7812 19.0159 11.7812 19.9591C11.7812 21.5201 11.1902 22.9408 10.223 24.0149C10.095 24.157 10.1527 24.3896 10.3375 24.439C10.8659 24.5804 11.4108 24.6957 11.9699 24.7819L11.994 24.7856Z" fill="black"/>
<path fill-rule="evenodd" clip-rule="evenodd" d="M20.8312 24.6737C20.6992 24.9343 20.3813 25.0395 20.1198 24.9087C19.8581 24.7779 19.7516 24.4603 19.881 24.1983C19.8831 24.1939 19.8852 24.1895 19.8873 24.1851C21.1126 21.7176 21.8021 18.9388 21.8021 16.0007C21.8021 13.0627 21.1126 10.2844 19.8873 7.81683C19.8509 7.74341 19.8319 7.66254 19.8319 7.58056C19.8319 7.28716 20.0697 7.04878 20.3631 7.04878C20.5788 7.04878 20.7644 7.17722 20.8476 7.36176C22.1386 9.96813 22.8646 12.9016 22.8646 16.0007C22.8646 19.1024 22.1375 22.0386 20.8445 24.6466C20.8408 24.6545 20.8377 24.6608 20.8356 24.6651C20.8337 24.6689 20.8319 24.6724 20.8312 24.6737Z" fill="black"/>
<path fill-rule="evenodd" clip-rule="evenodd" d="M12.2776 25.6975C14.8905 23.2853 16.5313 19.8313 16.5313 16.0007C16.5313 12.1701 14.8905 8.71612 12.2776 6.3039C12.0695 6.10722 11.7413 6.11067 11.5374 6.31436C11.3299 6.52173 11.3297 6.8581 11.5371 7.06566C11.5422 7.07078 11.5479 7.07631 11.5532 7.08121C13.9603 9.30166 15.4688 12.4782 15.4688 16.0007C15.4688 19.5233 13.9603 22.6998 11.5532 24.9202C11.5479 24.9251 11.5427 24.9301 11.5376 24.9353C11.3302 25.1428 11.3299 25.4797 11.5374 25.6871C11.7413 25.8908 12.0695 25.8942 12.2776 25.6975Z" fill="black"/>
<path d="M16.4776 6.26255C18.4538 8.92251 19.6426 12.2016 19.696 15.7505C19.6981 15.8885 19.5862 16.0006 19.4482 16.0006C19.2217 16.0006 18.8861 16.0008 18.6354 16.0009C18.6354 12.5925 17.5162 9.44208 15.6248 6.89618C15.4498 6.66067 15.4989 6.3279 15.7344 6.15292C15.9699 5.97795 16.3027 6.02703 16.4776 6.26255Z" fill="black"/>
<path d="M19.5041 18.5216C19.4591 18.8116 19.1877 19.0102 18.8977 18.9653L18.4541 18.3589L18.6354 16.0009L19.4482 16.0006C19.5862 16.0006 19.6981 16.1126 19.6961 16.2506C19.6847 17.0111 19.6206 17.7699 19.5041 18.5216Z" fill="black"/>
<path d="M18.8977 18.9653C18.6078 18.9203 18.4092 18.6488 18.4541 18.3589L18.8977 18.9653Z" fill="black"/>
<path d="M18.4541 18.3589C18.575 17.5787 18.6356 16.7904 18.6354 16.0009L18.4541 18.3589Z" fill="black"/>
<path fill-rule="evenodd" clip-rule="evenodd" d="M15.7344 25.8485C15.9699 26.0235 16.3026 25.9745 16.4776 25.739C17.0718 24.9395 17.5917 24.0876 18.0311 23.1937C18.1605 22.9303 18.052 22.612 17.7886 22.4825C17.5253 22.3531 17.207 22.4617 17.0775 22.725C16.6667 23.5609 16.1804 24.3576 15.6249 25.1052C15.4498 25.3407 15.4989 25.6735 15.7344 25.8485Z" fill="black"/>
<path d="M26.5625 16.0007C26.5625 15.5867 26.2265 15.2507 25.8125 15.2507C25.3985 15.2507 25.0625 15.5867 25.0625 16.0007C25.0625 16.4147 25.3985 16.7507 25.8125 16.7507C26.2265 16.7507 26.5625 16.4147 26.5625 16.0007Z" fill="black"/>
<path d="M18.4278 21.2785C18.7193 21.2785 18.9556 21.0422 18.9556 20.7507C18.9556 20.4592 18.7193 20.2229 18.4278 20.2229C18.1363 20.2229 17.9 20.4592 17.9 20.7507C17.9 21.0422 18.1363 21.2785 18.4278 21.2785Z" fill="black"/>
</svg>
