<svg width="32" height="32" viewBox="0 0 32 32" fill="currentColor" xmlns="http://www.w3.org/2000/svg">
<path fill-rule="evenodd" clip-rule="evenodd" d="M15.5107 7.04925C15.5937 7.58598 15.0717 7.94679 14.6281 8.25247C14.6281 8.25249 14.6281 8.25251 14.6281 8.25253V8.25253C14.628 8.25255 14.628 8.25257 14.628 8.25258C10.5167 11.1624 4.34035 8.13973 3.17348 2.60706C3.09516 2.235 3.44941 1.91131 3.81441 2.02762C5.07847 2.43 6.57155 2.289 8.06531 2.14794C11.3612 1.8367 14.6605 1.52514 15.5107 7.04925ZM6.60451 5.67588C6.8283 5.62162 6.86738 5.31655 6.66705 5.20298C6.25792 4.97105 5.85682 4.72657 5.4684 4.4735C5.25415 4.3339 4.99717 4.55549 5.12588 4.77645C5.31841 5.10701 5.53302 5.42691 5.77053 5.73092C5.82985 5.80686 5.92849 5.83979 6.02213 5.81708L6.60451 5.67588ZM8.74698 6.2373C8.69697 6.21583 8.64136 6.211 8.58846 6.22382L7.13148 6.57702C6.93529 6.62458 6.87566 6.87059 7.03703 6.99189C8.66604 8.21647 11.152 8.82074 13.1985 7.91977C13.417 7.8236 13.3523 7.52319 13.1159 7.49012C11.6258 7.28166 10.1531 6.84071 8.74698 6.2373ZM11.7365 6.0855C11.7642 6.16541 11.8304 6.22603 11.9127 6.24564C12.6109 6.41207 13.3416 6.53431 14.0942 6.59057C14.2572 6.60276 14.3841 6.45349 14.3461 6.29453C13.8019 4.01673 12.7386 3.1803 11.0311 3.02452C10.8561 3.00855 10.7287 3.18062 10.7863 3.34667L11.7365 6.0855ZM10.1268 5.70861C10.3215 5.77912 10.5067 5.59184 10.4389 5.39623L9.67726 3.20057C9.64051 3.09462 9.53771 3.02596 9.42586 3.03396C9.03452 3.06196 8.63471 3.102 8.22952 3.14258C7.61352 3.20427 6.98507 3.26721 6.35502 3.29097C6.1062 3.30036 6.00382 3.62973 6.21379 3.76356C7.43762 4.54363 8.75761 5.21263 10.1268 5.70861ZM22.2429 25.031C22.3167 25.0357 22.3888 25.055 22.4551 25.0876C22.4551 25.0876 22.4551 25.0876 22.4551 25.0876V25.0876C22.4551 25.0876 22.4551 25.0876 22.4551 25.0876C22.5214 25.1202 22.5806 25.1654 22.6294 25.2209C22.6783 25.2763 22.7157 25.3409 22.7395 25.4108C22.7634 25.4807 22.7732 25.5546 22.7685 25.6284C22.7637 25.7021 22.7445 25.7741 22.7119 25.8404C22.5754 26.1187 22.2377 26.2339 21.9594 26.0975C21.6808 25.9606 21.5655 25.6229 21.702 25.3447C21.7346 25.2783 21.7798 25.219 21.8353 25.1701C21.8908 25.1213 21.9553 25.0839 22.0253 25.06C22.0952 25.0361 22.1692 25.0263 22.2429 25.031ZM21.472 26.602C21.5457 26.6067 21.6178 26.626 21.684 26.6586C21.7503 26.6911 21.8096 26.7364 21.8584 26.7918C21.9072 26.8473 21.9446 26.9118 21.9684 26.9816C21.9923 27.0515 22.0021 27.1254 21.9975 27.1991C21.9928 27.2728 21.9736 27.3448 21.941 27.4111C21.8043 27.6894 21.4666 27.8051 21.1882 27.6684C21.1218 27.6359 21.0625 27.5906 21.0137 27.5352C20.9648 27.4797 20.9274 27.4152 20.9035 27.3452C20.8796 27.2753 20.8698 27.2013 20.8745 27.1275C20.8793 27.0538 20.8985 26.9817 20.9312 26.9154C20.9637 26.849 21.009 26.7898 21.0644 26.741C21.1199 26.6922 21.1844 26.6548 21.2544 26.6309C21.3243 26.6071 21.3982 26.5972 21.472 26.602ZM20.9914 5.22712C20.1953 6.13705 18.9479 7.80174 18.9299 9.14663C18.9282 9.27502 19.0375 9.37227 19.1659 9.37556C24.5223 9.51269 28.8375 13.9124 28.8375 19.3012V20.0673C28.8375 25.5422 24.3833 29.9965 18.9083 29.9965H18.1422C12.6672 29.9965 8.21292 25.5423 8.21292 20.0673V19.3012C8.21292 14.6577 11.4172 10.7491 15.7306 9.66883C15.8754 9.63258 15.9655 9.47811 15.9591 9.32901C15.9136 8.26093 16.814 5.54994 18.7769 3.82837C18.8495 3.76472 18.939 3.72344 19.0346 3.70953C19.1301 3.69563 19.2277 3.70968 19.3154 3.75L20.8241 4.44337C21.1277 4.58281 21.2115 4.97587 20.9914 5.22712ZM19.6251 5.33194C19.7226 5.20317 19.6772 5.01676 19.5304 4.94928L19.3681 4.87465C19.2722 4.83058 19.1588 4.85111 19.0866 4.92801C18.4499 5.60596 17.1524 7.2087 16.9917 9.15321C16.9792 9.30464 17.1113 9.4246 17.2626 9.41118C17.3835 9.40046 17.505 9.39189 17.627 9.38556C17.7803 9.37761 17.8941 9.23789 17.8906 9.08444C17.8631 7.88222 18.8573 6.34573 19.6251 5.33194ZM18.9083 28.9964C23.8319 28.9964 27.8375 24.9908 27.8375 20.0672V19.3011C27.8375 15.1682 25.0149 11.6827 21.1963 10.6697C20.9554 10.6058 20.8019 10.9038 20.9733 11.0847C22.2926 12.4766 23.2397 14.1898 23.7575 16.1461C24.4285 18.6812 24.338 21.4784 23.5027 24.0223C23.4822 24.0847 23.4497 24.1424 23.4069 24.1922C23.3641 24.242 23.3119 24.2829 23.2533 24.3125C23.1947 24.3422 23.1308 24.36 23.0653 24.3649C22.9999 24.3699 22.9341 24.3619 22.8717 24.3414C22.8093 24.3209 22.7515 24.2883 22.7017 24.2455C22.6519 24.2027 22.6111 24.1505 22.5814 24.0919C22.5518 24.0333 22.534 23.9695 22.5291 23.904C22.5241 23.8385 22.5321 23.7727 22.5526 23.7103C23.9289 19.5187 23.2715 13.6515 18.6758 10.417C18.6341 10.3878 18.583 10.3719 18.5321 10.3722C12.6061 10.411 9.21292 14.8159 9.21292 19.3011V20.0672C9.21292 24.9908 13.2186 28.9964 18.1422 28.9964H18.9083Z" fill="black"/>
</svg>
