<svg width="32" height="32" viewBox="0 0 32 32" fill="none" xmlns="http://www.w3.org/2000/svg">
<path d="M28.868 28.8125H12.9989C12.8868 28.8125 12.7794 28.768 12.7002 28.6888C12.621 28.6096 12.5765 28.5022 12.5765 28.3902C12.5765 28.2782 12.621 28.1707 12.7002 28.0915C12.7794 28.0123 12.8868 27.9678 12.9989 27.9678H28.868C29.2562 27.9678 29.5719 27.6521 29.5719 27.2639C29.5719 27.1863 29.5088 27.1231 29.4312 27.1231H2.56884C2.53152 27.1231 2.49573 27.138 2.46934 27.1644C2.44295 27.1908 2.4281 27.2266 2.42806 27.2639C2.42806 27.6521 2.74381 27.9678 3.13199 27.9678H11.3094C11.4214 27.9678 11.5288 28.0123 11.6081 28.0915C11.6873 28.1707 11.7318 28.2782 11.7318 28.3902C11.7318 28.5022 11.6873 28.6096 11.6081 28.6888C11.5288 28.768 11.4214 28.8125 11.3094 28.8125H3.13199C2.27803 28.8125 1.58333 28.1178 1.58333 27.2639C1.58333 26.8634 1.82351 26.5179 2.16743 26.3639C2.33711 25.02 3.51167 24.1581 4.72295 24.0137C4.84251 23.3367 5.07385 22.4729 5.45736 21.5093H4.61714C4.32559 21.7497 3.6653 22.2329 3.06954 22.2329C2.62127 22.2329 2.24565 22.0535 1.98317 21.7141C1.71787 21.3711 1.58333 20.8758 1.58333 20.2422C1.58333 19.6086 1.71787 19.1134 1.98322 18.7703C2.24565 18.431 2.62133 18.2516 3.0696 18.2516C3.66535 18.2516 4.32565 18.7348 4.61719 18.9751H6.09411C6.32748 18.9751 6.63767 18.8221 6.98727 18.5998C8.32864 16.6059 10.591 14.3107 14.1218 13.64C13.5175 13.1292 13.1995 12.3272 13.1995 11.2656C13.1995 11.1536 13.244 11.0462 13.3232 10.9669C13.4024 10.8877 13.5099 10.8432 13.6219 10.8432C14.8588 10.8432 15.7434 11.275 16.2253 12.0882C16.7073 11.275 17.5919 10.8432 18.8288 10.8432C18.9408 10.8432 19.0482 10.8877 19.1274 10.9669C19.2066 11.0462 19.2511 11.1536 19.2511 11.2656C19.2511 13.2168 18.1765 14.2914 16.2253 14.2914C13.267 14.2914 11.0889 15.4663 9.53125 16.9038C10.3778 16.4442 11.3426 16.0964 12.4567 16.0964C14.4893 16.0964 16.1696 17.171 16.8418 18.9009C17.2746 20.0146 17.2176 21.1961 16.7232 22.2357C17.752 21.975 18.8861 21.9787 19.6361 22.0245C20.7074 22.09 21.8152 22.2816 22.7561 22.5515C22.2044 21.6194 21.9099 20.5531 21.9095 19.4417C21.909 19.2486 21.966 19.0597 22.0732 18.8991C22.1804 18.7385 22.333 18.6134 22.5115 18.5398C22.6893 18.4657 22.8851 18.4462 23.074 18.4838C23.2629 18.5214 23.4363 18.6143 23.5722 18.7508L24.3962 19.5748C24.4754 19.654 24.5199 19.7614 24.5199 19.8734C24.5199 19.9854 24.4754 20.0929 24.3962 20.1721C24.317 20.2513 24.2096 20.2958 24.0976 20.2958C23.9855 20.2958 23.8781 20.2513 23.7989 20.1721L22.975 19.3481C22.9247 19.2978 22.871 19.3051 22.8349 19.3201C22.7981 19.3353 22.7542 19.3687 22.7543 19.4413C22.7547 20.8478 23.3015 22.1703 24.2941 23.1663C24.2987 23.1708 24.3032 23.1753 24.3076 23.1799L25.3373 24.2095C25.4165 24.2887 25.461 24.3961 25.461 24.5082C25.461 24.6202 25.4165 24.7276 25.3373 24.8068C25.2981 24.846 25.2515 24.8771 25.2003 24.8984C25.149 24.9196 25.0941 24.9305 25.0386 24.9305C24.9832 24.9305 24.9282 24.9196 24.877 24.8984C24.8258 24.8771 24.7792 24.846 24.74 24.8068L23.7517 23.8186C22.7813 23.3416 21.1196 22.9614 19.5846 22.8676C17.7639 22.7564 16.3301 23.0489 15.6511 23.6705C15.4986 23.8101 15.4189 23.9861 15.4143 24.1936C15.4085 24.4574 15.5313 24.7412 15.743 24.9528L17.0685 26.2783H18.8207C18.3479 25.7676 18.1006 25.0333 18.1006 24.0972C18.1006 23.9852 18.1451 23.8778 18.2243 23.7986C18.3035 23.7194 18.411 23.6749 18.523 23.6749C20.3285 23.6749 21.3834 24.5948 21.5309 26.2783H26.8461C27.4704 26.2783 27.8601 25.8742 28.0168 25.4961C28.076 25.352 28.1091 25.1985 28.1144 25.0428C28.1136 25.0322 28.1132 25.0217 28.1132 25.0112C28.1132 24.9826 28.1132 24.9541 28.113 24.9256C28.0973 24.6537 27.9921 24.3652 27.7422 24.1151L24.9815 21.3545C24.9023 21.2753 24.8578 21.1679 24.8578 21.0559C24.8578 20.9439 24.9023 20.8364 24.9815 20.7572C25.0607 20.678 25.1682 20.6335 25.2802 20.6335C25.3922 20.6335 25.4996 20.678 25.5788 20.7572L28.0145 23.1929C27.7778 21.1065 27.1164 19.3659 26.0397 18.0025C24.615 16.1986 22.4446 15.0384 19.5888 14.5541C19.4785 14.5352 19.3802 14.4733 19.3154 14.382C19.2507 14.2907 19.2248 14.1775 19.2435 14.0672C19.2622 13.9568 19.324 13.8584 19.4152 13.7935C19.5064 13.7287 19.6196 13.7027 19.73 13.7212C25.7121 14.7358 28.8996 18.5786 28.9571 24.8384C28.9823 25.1632 28.9305 25.4974 28.7972 25.8193C28.73 25.9821 28.6434 26.1362 28.5393 26.2782H29.4312C29.9745 26.2782 30.4167 26.7203 30.4167 27.2637C30.4167 28.1178 29.722 28.8125 28.868 28.8125ZM10.0754 26.2784H15.8739L15.1456 25.5502C14.8401 25.2446 14.6443 24.8573 14.5869 24.4569C14.2287 24.3911 13.552 24.3152 12.7836 24.4723C11.6892 24.6961 10.7807 25.3026 10.0754 26.2784ZM6.73154 26.2784H7.00298C6.53022 25.7676 6.28288 25.0334 6.28288 24.0973C6.28288 23.9853 6.32738 23.8778 6.40659 23.7986C6.4858 23.7194 6.59323 23.6749 6.70525 23.6749C8.22694 23.6749 9.21538 24.3284 9.57692 25.5415C10.3819 24.539 11.4169 23.8896 12.6143 23.6447C13.4764 23.4684 14.2331 23.5376 14.6842 23.6158C14.7717 23.4004 14.9061 23.2073 15.0776 23.0503L15.0807 23.0473C16.2027 22.0202 16.5759 20.5486 16.0545 19.2068C15.5114 17.8092 14.1328 16.941 12.4567 16.941C10.7665 16.941 9.38928 17.9325 8.28269 18.7291C7.43633 19.3384 6.76775 19.8198 6.09411 19.8198H4.46086C4.3565 19.8198 4.25583 19.7811 4.17827 19.7113C3.89349 19.4561 3.36086 19.0962 3.06954 19.0962C2.64385 19.0962 2.42806 19.4818 2.42806 20.2421C2.42806 21.0025 2.64391 21.388 3.06954 21.388C3.36086 21.388 3.89349 21.0282 4.17861 20.7727C4.2562 20.7031 4.35668 20.6646 4.46086 20.6645H6.09406C6.98243 20.6645 7.55977 21.2161 8.17101 21.8001C8.67171 22.2785 9.2392 22.8207 10.1063 23.2257C10.1567 23.2491 10.2019 23.2822 10.2394 23.3232C10.2769 23.3641 10.306 23.412 10.325 23.4641C10.3439 23.5163 10.3525 23.5717 10.35 23.6271C10.3476 23.6826 10.3343 23.737 10.3108 23.7873C10.2873 23.8376 10.2541 23.8828 10.2132 23.9202C10.1722 23.9577 10.1243 23.9867 10.0721 24.0057C10.0199 24.0246 9.96449 24.033 9.90904 24.0305C9.85359 24.028 9.79917 24.0146 9.74891 23.9911C8.75607 23.5274 8.10811 22.9083 7.58753 22.4109C7.09078 21.9362 6.75446 21.6315 6.35806 21.5391C5.70064 23.0945 5.46451 24.3726 5.46451 25.0113C5.46445 25.71 6.03284 26.2784 6.73154 26.2784ZM3.04217 26.2784H5.04305C4.76782 25.9133 4.61917 25.4685 4.61967 25.0113C4.61967 24.9713 4.62046 24.9291 4.62204 24.8848C3.89585 25.0355 3.22796 25.5333 3.04217 26.2784ZM18.9688 24.5431C19.0853 25.5844 19.6394 26.1385 20.6807 26.255C20.5641 25.2137 20.0101 24.6596 18.9688 24.5431ZM7.15104 24.5431C7.26755 25.5844 7.82164 26.1385 8.86296 26.255C8.74639 25.2137 8.1923 24.6596 7.15104 24.5431ZM18.3829 11.7113C17.3416 11.8279 16.7875 12.3819 16.671 13.4233C17.7123 13.3067 18.2664 12.7527 18.3829 11.7113ZM14.0676 11.7113C14.1841 12.7527 14.7382 13.3067 15.7795 13.4233C15.663 12.382 15.1089 11.8279 14.0676 11.7113ZM21.2936 10.9077C21.2381 10.9077 21.1832 10.8968 21.132 10.8756C21.0807 10.8544 21.0342 10.8232 20.995 10.7839C19.6939 9.48289 19.6939 8.04989 20.995 6.7489C21.9639 5.77994 21.9639 4.87738 20.995 3.90848C20.9158 3.82927 20.8713 3.72185 20.8713 3.60984C20.8713 3.49783 20.9158 3.39041 20.995 3.3112C21.0742 3.232 21.1816 3.18751 21.2936 3.18751C21.4056 3.18751 21.5131 3.232 21.5923 3.3112C22.8933 4.61225 22.8933 6.04524 21.5923 7.34624C20.6234 8.31519 20.6234 9.2177 21.5923 10.1867C21.6715 10.2659 21.716 10.3733 21.716 10.4853C21.716 10.5973 21.6715 10.7047 21.5923 10.7839C21.5531 10.8232 21.5065 10.8544 21.4553 10.8756C21.404 10.8968 21.3491 10.9077 21.2936 10.9077ZM16.2253 10.9077C16.1698 10.9077 16.1148 10.8968 16.0636 10.8756C16.0123 10.8544 15.9658 10.8232 15.9266 10.7839C14.6256 9.48289 14.6256 8.04989 15.9266 6.7489C16.8956 5.77994 16.8956 4.87738 15.9266 3.90848C15.8474 3.82927 15.8029 3.72185 15.8029 3.60984C15.8029 3.49783 15.8474 3.39041 15.9266 3.3112C16.0058 3.232 16.1133 3.18751 16.2253 3.18751C16.3373 3.18751 16.4447 3.232 16.5239 3.3112C17.8249 4.61225 17.8249 6.04524 16.5239 7.34624C15.555 8.31519 15.555 9.2177 16.5239 10.1867C16.6031 10.2659 16.6476 10.3733 16.6476 10.4853C16.6476 10.5973 16.6031 10.7047 16.5239 10.7839C16.4847 10.8232 16.4382 10.8544 16.3869 10.8756C16.3357 10.8968 16.2807 10.9077 16.2253 10.9077ZM11.1569 10.9077C11.1014 10.9077 11.0465 10.8968 10.9952 10.8756C10.944 10.8544 10.8974 10.8232 10.8583 10.7839C9.55721 9.48289 9.55721 8.04989 10.8583 6.7489C11.8272 5.77994 11.8272 4.87738 10.8583 3.90848C10.7791 3.82927 10.7346 3.72185 10.7346 3.60984C10.7346 3.49783 10.7791 3.39041 10.8583 3.3112C10.9375 3.232 11.0449 3.18751 11.1569 3.18751C11.2689 3.18751 11.3763 3.232 11.4555 3.3112C12.7566 4.61225 12.7566 6.04524 11.4555 7.34624C10.4866 8.31519 10.4866 9.2177 11.4555 10.1867C11.5347 10.2659 11.5792 10.3733 11.5792 10.4853C11.5792 10.5973 11.5347 10.7047 11.4555 10.7839C11.4164 10.8232 11.3698 10.8544 11.3186 10.8756C11.2673 10.8968 11.2124 10.9077 11.1569 10.9077Z" fill="black"/>
</svg>
