<svg width="24" height="24" viewBox="0 0 24 24" fill="none" xmlns="http://www.w3.org/2000/svg">
<path d="M12.9 12V16C12.9 16.4971 12.497 16.9 12 16.9C11.5029 16.9 11.1 16.4971 11.1 16V12C11.1 11.5029 11.5029 11.1 12 11.1C12.497 11.1 12.9 11.5029 12.9 12Z" fill="black"/>
<path d="M12 8.90001C11.5029 8.90001 11.1 8.49706 11.1 8.00001C11.1 7.50295 11.5029 7.10001 12 7.10001C12.497 7.10001 12.9 7.50295 12.9 8.00001C12.9 8.49706 12.497 8.90001 12 8.90001Z" fill="black"/>
<path fill-rule="evenodd" clip-rule="evenodd" d="M2.09998 12C2.09998 6.53523 6.5352 2.10001 12 2.10001C17.4647 2.10001 21.9 6.53523 21.9 12C21.9 17.4648 17.4647 21.9 12 21.9C6.5352 21.9 2.09998 17.4648 2.09998 12ZM3.89998 12C3.89998 16.4652 7.53475 20.1 12 20.1C16.4652 20.1 20.1 16.4652 20.1 12C20.1 7.53478 16.4652 3.90001 12 3.90001C7.53475 3.90001 3.89998 7.53478 3.89998 12Z" fill="black"/>
</svg>
