<svg width="24" height="24" viewBox="0 0 24 24" fill="currentColor" xmlns="http://www.w3.org/2000/svg">
<path fill-rule="evenodd" clip-rule="evenodd" d="M5 2.49886H19C20.3807 2.49886 21.5 3.61814 21.5 4.99886V8.99886C21.5 10.3796 20.3807 11.4989 19 11.4989H5C3.61929 11.4989 2.5 10.3796 2.5 8.99886V4.99886C2.5 3.61814 3.61929 2.49886 5 2.49886ZM5 12.5011H19C20.3807 12.5011 21.5 13.6204 21.5 15.0011V19.0011C21.5 20.3819 20.3807 21.5011 19 21.5011H5C3.61929 21.5011 2.5 20.3819 2.5 19.0011V15.0011C2.5 13.6204 3.61929 12.5011 5 12.5011ZM5 3.99886C4.44772 3.99886 4 4.44657 4 4.99886V8.99886C4 9.55114 4.44772 9.99886 5 9.99886H19C19.5523 9.99886 20 9.55114 20 8.99886V4.99886C20 4.44657 19.5523 3.99886 19 3.99886H5ZM5 14.0011C4.44772 14.0011 4 14.4489 4 15.0011V19.0011C4 19.5534 4.44772 20.0011 5 20.0011H19C19.5523 20.0011 20 19.5534 20 19.0011V15.0011C20 14.4489 19.5523 14.0011 19 14.0011H5Z" fill="black"/>
</svg>
