<svg width="32" height="32" viewBox="0 0 32 32" fill="currentColor" xmlns="http://www.w3.org/2000/svg">
<path fill-rule="evenodd" clip-rule="evenodd" d="M29.3329 11.6527L29.3333 15.6488L29.3333 15.6503C29.2857 19.0186 26.5075 21.7349 23.1487 21.7165C20.8359 21.7073 18.7048 22.6379 17.0816 24.1705C15.4891 25.6744 13.4059 26.5023 11.2146 26.5023C6.49245 26.5023 2.61284 22.5769 2.66724 17.8538L2.66681 14.0458C2.66598 9.30457 6.50762 5.49776 11.214 5.49776H23.1784C26.6225 5.49776 29.3334 8.29527 29.3329 11.6527ZM25.3452 7.11511V16.1818L25.6854 15.9827C28.5341 14.3152 29.0408 10.4598 26.7469 8.13372C26.431 7.81348 26.0737 7.53696 25.6845 7.31156L25.3452 7.11511ZM24.202 16.5612V6.74257L24.0131 6.71109C23.5572 6.63509 23.2415 6.63732 22.6446 6.64154C22.3668 6.64351 22.0279 6.6459 21.5856 6.64103L21.3571 6.63851V16.8226L21.6182 16.7815C22.2473 16.6825 22.63 16.6711 22.9583 16.667L23.0484 16.6661C23.3455 16.663 23.6245 16.6602 24.0142 16.5934L24.202 16.5612ZM16.2257 6.64102H13.3809V21.1349L13.6821 21.0285C14.585 20.7098 15.4232 20.2157 16.1505 19.5643L16.2257 19.4969V6.64102ZM20.2139 6.64102H17.369V18.5336L17.7194 18.3024C18.4548 17.8173 19.2409 17.4346 20.0594 17.1615L20.2139 17.11V6.64102ZM12.2376 11.6771V6.64102H11.214C7.17961 6.64102 3.85875 9.92092 3.80993 13.954C3.75727 18.3026 7.57664 21.8983 12.0365 21.4045L12.2376 21.3822V16.4141L11.8981 16.6115C11.4481 16.873 10.9368 17.0105 10.4164 17.0101C8.78194 17.0101 7.45187 15.68 7.45187 14.0456C7.45187 12.4112 8.78212 11.0811 10.4166 11.0811C10.9369 11.0807 11.4481 11.2183 11.8981 11.4797L12.2376 11.6771ZM4.33096 19.0811L3.92689 19.2558C4.53235 22.6044 7.51922 25.359 11.2146 25.359C13.1123 25.359 14.9176 24.6416 16.2968 23.3393C18.1186 21.6192 20.4761 20.5795 23.177 20.5733C25.8246 20.5732 28.0102 18.475 28.18 15.8885L28.2232 15.23L27.7854 15.7237C26.6395 17.0158 25.0245 17.8076 23.1079 17.8076C21.0148 17.8076 19.5715 18.4533 18.4137 19.2386C17.8883 19.5949 17.4211 19.9805 16.9847 20.3407L16.8627 20.4413C16.3875 20.8328 15.9487 21.1853 15.4909 21.451C11.8404 23.5698 7.02441 22.7221 4.33096 19.0811ZM10.4164 15.8669C11.4208 15.8669 12.2376 15.05 12.2376 14.0456C12.2376 13.0412 11.4208 12.2244 10.4164 12.2244C9.41194 12.2244 8.59513 13.0412 8.59513 14.0456C8.59513 15.05 9.41194 15.8669 10.4164 15.8669Z" />
</svg>
