<svg width="24" height="24" viewBox="0 0 24 24" fill="none" xmlns="http://www.w3.org/2000/svg">
<path d="M19.8472 15.7195L18.6782 14.5355C18.5153 14.3716 18.4242 14.1503 18.4247 13.9199V10.3398C18.4247 7.45 16.484 5.00273 13.83 4.21758C13.8539 4.09883 13.8665 3.97734 13.8665 3.85547C13.8665 2.83242 13.0291 2 12 2C10.9709 2 10.1335 2.83242 10.1335 3.85547C10.1335 3.97852 10.1457 4.09961 10.1688 4.21797C7.51565 5.00352 5.57526 7.45039 5.57526 10.3398V13.9199C5.57526 14.1516 5.48527 14.3703 5.3218 14.5355L4.15278 15.7195C3.50362 16.3766 3.32286 17.3125 3.68163 18.1621C4.04 19.0113 4.83848 19.5391 5.76505 19.5391H9.21084C9.37666 20.923 10.5638 22 12 22C13.4362 22 14.6233 20.923 14.7892 19.5391H18.2349C19.1615 19.5391 19.96 19.0113 20.3184 18.1621C20.6771 17.3125 20.4964 16.3766 19.8472 15.7195ZM11.5088 3.85547C11.5088 3.58633 11.7293 3.36719 12 3.36719C12.2707 3.36719 12.4912 3.58633 12.4912 3.85547C12.4912 3.89766 12.4857 3.93555 12.477 3.9707C12.3195 3.95938 12.1603 3.95312 12 3.95312C11.8397 3.95312 11.6805 3.95938 11.523 3.9707C11.5143 3.93594 11.5088 3.89766 11.5088 3.85547ZM12 20.6328C11.3241 20.6328 10.7563 20.1656 10.6054 19.5391H13.3946C13.2437 20.1656 12.6759 20.6328 12 20.6328ZM19.0503 17.6332C18.9969 17.7598 18.7804 18.1719 18.2349 18.1719H5.76505C5.21964 18.1719 5.00312 17.7594 4.94968 17.6332C4.89624 17.5066 4.75203 17.0645 5.13397 16.6773L6.3034 15.4934C6.72071 15.0707 6.95058 14.5121 6.95058 13.9199V10.3398C6.95058 7.57227 9.21555 5.32031 12 5.32031C14.7844 5.32031 17.0494 7.57227 17.0494 10.3398V13.9199C17.0494 14.5121 17.2793 15.0707 17.6966 15.4934L18.866 16.6773C19.248 17.0641 19.1038 17.5066 19.0503 17.6332Z" fill="black"/>
</svg>
