<svg width="32" height="32" viewBox="0 0 32 32" fill="currentColor" xmlns="http://www.w3.org/2000/svg">
<path d="M20.1984 8.40176C20.6593 7.96712 21.2692 7.72544 21.9027 7.72634H28.4371C28.5367 7.72634 28.6322 7.6868 28.7026 7.6164C28.7729 7.54601 28.8125 7.45053 28.8125 7.35098V5.79635C28.8125 5.69679 28.7729 5.60132 28.7026 5.53092C28.6322 5.46053 28.5367 5.42098 28.4371 5.42098H21.9027C21.2692 5.42189 20.6593 5.18021 20.1984 4.74556C18.9755 3.59563 17.597 3.9233 17.1512 3.86635C17.1269 3.48798 16.8114 3.18753 16.4269 3.18753H15.573C15.4362 3.18738 15.3022 3.2261 15.1866 3.29919C15.0608 3.22589 14.9178 3.18735 14.7722 3.18753H14.1185C13.7133 3.18753 13.3753 3.48087 13.3058 3.86635H10.5641C9.92852 3.86635 9.41146 4.38346 9.41146 5.01903C9.41146 5.65461 9.92857 6.17172 10.5641 6.17172H11.738V6.97561H10.5641C9.92852 6.97561 9.41146 7.49272 9.41146 8.12829C9.41146 8.76392 9.92857 9.28097 10.5641 9.28097H11.738V15.1244C11.738 15.76 12.2551 16.2771 12.8907 16.2771C13.032 16.2771 13.1674 16.2515 13.2926 16.2048V18.4546C13.0831 18.6685 12.8966 18.9039 12.7363 19.1568C9.07478 17.6732 5.00679 20.2271 4.75409 24.1752H4.34018C3.70461 24.1752 3.1875 24.6923 3.1875 25.3279C3.1875 25.8391 3.52198 26.2736 3.98353 26.4241C4.14184 27.7672 5.28721 28.8125 6.67217 28.8125H20.3786C20.5859 28.8125 20.7539 28.6445 20.7539 28.4372C20.7539 28.2299 20.5859 28.0618 20.3786 28.0618H6.67217C5.72164 28.0618 4.92731 27.3805 4.75174 26.4805H27.2483C27.0727 27.3805 26.2784 28.0618 25.3279 28.0618H22.0145C21.8071 28.0618 21.6391 28.2299 21.6391 28.4372C21.6391 28.6445 21.8071 28.8125 22.0145 28.8125H25.3278C26.7128 28.8125 27.8582 27.7672 28.0164 26.4241C28.478 26.2735 28.8124 25.8391 28.8124 25.3279C28.8124 24.6923 28.2953 24.1752 27.6598 24.1752H25.5888C25.1886 22.1889 23.7738 20.5488 21.8673 19.8586C23.083 18.8544 23.0782 17.1862 23.0771 17.103C23.0758 17.0043 23.0357 16.9101 22.9654 16.8407C22.8952 16.7714 22.8005 16.7325 22.7018 16.7325C21.6589 16.7325 20.8204 17.054 20.2093 17.6882C19.9163 17.9923 19.7111 18.3356 19.5676 18.6619C18.9429 17.9362 18.0924 17.4417 17.1527 17.258V9.28102C17.6048 9.22322 18.9741 9.55309 20.1984 8.40176ZM19.6841 5.2925C20.2871 5.85951 21.075 6.17172 21.9026 6.17172H28.0617V6.97561H21.9027C21.075 6.97561 20.2871 7.28786 19.6842 7.85482C18.7136 8.76752 17.6196 8.47608 17.1527 8.53024V4.61709C17.6248 4.67184 18.714 4.3802 19.6841 5.2925ZM10.1622 5.01903C10.1622 4.79741 10.3425 4.61709 10.5641 4.61709H13.2927V5.42463H12.1657C12.1483 5.42219 12.1309 5.42097 12.1134 5.42098H10.5641C10.3425 5.42098 10.1622 5.24065 10.1622 5.01903ZM10.5641 8.53029C10.3425 8.53029 10.1622 8.34996 10.1622 8.12834C10.1622 7.90672 10.3425 7.7264 10.5641 7.7264H11.738V8.53029H10.5641ZM12.8907 15.5264C12.6691 15.5264 12.4888 15.3461 12.4888 15.1245V6.17537H13.2927V15.1245C13.2927 15.3461 13.1123 15.5264 12.8907 15.5264ZM22.3369 24.1752C21.3629 22.1061 18.4098 22.1069 17.4362 24.1752H16.5686C17.052 22.7844 18.3806 21.8164 19.8866 21.8164C21.3926 21.8164 22.7212 22.7844 23.2045 24.1752H22.3369ZM21.4679 24.1752H18.3052C19.0867 23.1059 20.684 23.1025 21.4679 24.1752ZM15.5103 21.4965C15.2705 21.1079 14.9856 20.749 14.6615 20.4273C14.836 20.1396 15.0817 19.9017 15.3749 19.7366C15.6681 19.5715 15.9989 19.4847 16.3354 19.4847C16.815 19.4847 17.2708 19.66 17.6236 19.9685C16.8276 20.3062 16.0968 20.8282 15.5103 21.4965ZM10.5587 19.4847C13.2258 19.4847 15.4181 21.5565 15.6108 24.1752H14.8046C14.5583 21.3657 11.6725 19.5556 9.03038 20.5707C8.98437 20.5884 8.94228 20.6149 8.90653 20.6489C8.87078 20.6828 8.84207 20.7235 8.82203 20.7685C8.802 20.8135 8.79103 20.8621 8.78976 20.9114C8.78849 20.9606 8.79694 21.0097 8.81462 21.0557C8.8323 21.1017 8.85887 21.1438 8.89282 21.1795C8.92676 21.2153 8.96741 21.244 9.01245 21.264C9.05749 21.2841 9.10603 21.295 9.15531 21.2963C9.20459 21.2976 9.25363 21.2891 9.29965 21.2715C11.4508 20.445 13.8067 21.893 14.0503 24.1752H13.2402C13.0569 22.8594 11.9243 21.8433 10.5588 21.8433C9.19329 21.8433 8.06063 22.8594 7.87735 24.1752H7.06701C7.15044 23.3862 7.49618 22.6537 8.06143 22.082C8.13142 22.0112 8.17041 21.9155 8.16984 21.8159C8.16926 21.7164 8.12917 21.6211 8.05838 21.5511C7.98758 21.4812 7.89188 21.4422 7.79234 21.4427C7.69279 21.4433 7.59755 21.4834 7.52756 21.5542C6.82232 22.2676 6.39855 23.1871 6.31277 24.1752H5.50668C5.69937 21.5564 7.89167 19.4847 10.5587 19.4847ZM12.4792 24.1752H8.6383C8.81387 23.2752 9.60825 22.594 10.5587 22.594C11.5092 22.594 12.3036 23.2753 12.4792 24.1752ZM28.0617 25.3279C28.0617 25.5495 27.8814 25.7298 27.6598 25.7298H4.34018C4.11856 25.7298 3.93824 25.5495 3.93824 25.3279C3.93824 25.1063 4.11856 24.926 4.34018 24.926H27.6598C27.8814 24.9259 28.0617 25.1062 28.0617 25.3279ZM24.8206 24.1752H23.991C23.4809 22.356 21.8018 21.0656 19.8865 21.0656C18.3477 21.0656 16.9613 21.8986 16.2112 23.1697C16.1316 22.8433 16.0235 22.5244 15.8883 22.2169C18.528 18.8337 23.8656 20.0779 24.8206 24.1752ZM22.2924 17.5045C22.2652 17.6901 22.216 17.9254 22.1275 18.1737C21.8854 18.8532 21.4652 19.3311 20.8776 19.5955C20.6334 19.5536 20.3869 19.5273 20.1394 19.5167C20.1238 19.4861 20.1079 19.4556 20.0917 19.4252C20.32 18.5856 20.892 17.6557 22.2924 17.5045ZM19.29 19.5421C19.0067 19.5714 18.7119 19.6233 18.4107 19.7026C18.1567 19.3992 17.8392 19.1552 17.4806 18.9879C17.122 18.8205 16.7311 18.7338 16.3354 18.7339C15.4248 18.7339 14.587 19.1905 14.0896 19.9285C13.8765 19.7653 13.6523 19.6169 13.4187 19.4846C14.8263 17.3845 17.927 17.4228 19.29 19.5421ZM15.598 17.2427V12.9315C15.598 12.8319 15.5585 12.7364 15.4881 12.666C15.4177 12.5956 15.3222 12.5561 15.2227 12.5561C15.1231 12.5561 15.0276 12.5956 14.9572 12.666C14.8868 12.7364 14.8473 12.8319 14.8473 12.9315V17.4458C14.5659 17.5503 14.2965 17.6843 14.0434 17.8456V4.01334C14.0434 3.97195 14.0771 3.93827 14.1185 3.93827H14.7722C14.8136 3.93827 14.8473 3.97195 14.8473 4.01334V11.2956C14.8473 11.3951 14.8868 11.4906 14.9572 11.561C15.0276 11.6314 15.1231 11.6709 15.2227 11.6709C15.3222 11.6709 15.4177 11.6314 15.4881 11.561C15.5585 11.4906 15.598 11.3951 15.598 11.2956V4.01334C15.598 3.99322 15.5973 3.97325 15.5959 3.95348C15.5964 3.94843 15.5969 3.94337 15.5972 3.93827H16.402V17.1796C16.1326 17.1753 15.8634 17.1965 15.598 17.2427Z" fill="black"/>
</svg>
