<svg width="32" height="32" viewBox="0 0 32 32" fill="currentColor" xmlns="http://www.w3.org/2000/svg">
<path fill-rule="evenodd" clip-rule="evenodd" d="M11.7973 14.9245C12.1113 15.2385 12.5368 15.4145 12.9805 15.4136C14.4611 15.4136 15.2188 13.6125 14.1637 12.5582C13.8505 12.2434 13.4242 12.0666 12.9805 12.0682C11.4933 12.0682 10.7497 13.8768 11.7973 14.9245ZM12.5046 14.2173C12.241 13.9545 12.241 13.5274 12.5046 13.2646C12.7673 13.0019 13.1937 13.0019 13.4572 13.2646C13.7208 13.5274 13.7208 13.9545 13.4572 14.2173C13.1945 14.4808 12.7673 14.4808 12.5046 14.2173Z" fill="black"/>
<path fill-rule="evenodd" clip-rule="evenodd" d="M11.566 20.0926C10.5101 21.1477 11.2694 22.9481 12.7492 22.9481C14.2298 22.9481 14.9866 21.1469 13.9332 20.0926C13.2788 19.4399 12.2204 19.4399 11.566 20.0926ZM12.2741 21.7517C12.0113 21.4889 12.0113 21.0626 12.2741 20.7999C12.5368 20.5363 12.9632 20.5363 13.2259 20.7999C13.4886 21.0626 13.4886 21.4889 13.2259 21.7517C12.9632 22.0144 12.5368 22.0144 12.2741 21.7517Z" fill="black"/>
<path fill-rule="evenodd" clip-rule="evenodd" d="M17.2736 18.4236C15.7938 18.4236 15.0345 16.6232 16.0905 15.5681C16.7432 14.9146 17.8032 14.9138 18.4568 15.5673C19.1103 16.22 19.1112 17.2801 18.4576 17.9337C18.1445 18.2468 17.7181 18.4236 17.2736 18.4236ZM17.2736 16.0779C16.9018 16.0779 16.6011 16.3795 16.6011 16.7513C16.6011 17.1231 16.9026 17.4239 17.2745 17.4239C17.6463 17.4239 17.947 17.1223 17.947 16.7505C17.947 16.572 17.8759 16.401 17.7495 16.2746C17.6239 16.1482 17.4521 16.0779 17.2736 16.0779Z" fill="black"/>
<path d="M13.1763 18.7911C13.1763 18.7893 13.1753 18.7879 13.175 18.7861C13.1263 18.5153 13.3061 18.2565 13.5762 18.2063L14.576 18.0229C14.8462 17.9659 15.1114 18.1394 15.1684 18.4096C15.2254 18.6797 15.0519 18.945 14.7817 19.002C14.7734 19.0036 14.7652 19.0053 14.7577 19.0061L13.758 19.1937C13.4864 19.2432 13.2264 19.0643 13.1765 18.7929C13.1764 18.7924 13.1763 18.7916 13.1763 18.7911Z" fill="black"/>
<path d="M19.383 18.3749C19.3326 18.103 19.5127 17.8428 19.7837 17.7924L20.7835 17.6089C21.0536 17.5519 21.3189 17.7254 21.3759 17.9956C21.4329 18.2658 21.2594 18.531 20.9892 18.588C20.9809 18.5897 20.9727 18.5913 20.9652 18.5922L19.9655 18.7764C19.6945 18.8268 19.4334 18.6467 19.383 18.3749Z" fill="black"/>
<path d="M10.4993 16.7034C10.4498 16.4316 10.6291 16.1713 10.9009 16.1217L11.9006 15.9375C12.1725 15.8879 12.4327 16.0672 12.4831 16.339C12.5327 16.6109 12.3534 16.8711 12.0816 16.9215L11.0818 17.1049C10.81 17.1545 10.5497 16.9744 10.4993 16.7034Z" fill="black"/>
<path d="M15.4931 13.8934C15.4427 13.6215 15.6228 13.3613 15.8938 13.3109L16.8936 13.1275C17.1637 13.0704 17.429 13.244 17.486 13.5141C17.543 13.7843 17.3695 14.0495 17.0993 14.1065C17.091 14.1082 17.0828 14.1098 17.0745 14.1107L16.0748 14.2982C15.8034 14.3477 15.5436 14.1692 15.4934 13.8982C15.4932 13.8972 15.4935 13.8962 15.4935 13.8952L15.4931 13.8934Z" fill="black"/>
<path d="M12.2625 10.9379C12.2129 10.6661 12.3922 10.4058 12.6641 10.3563L13.6638 10.1687C13.9356 10.1191 14.1959 10.2984 14.2463 10.5703C14.2959 10.8421 14.1166 11.1024 13.8448 11.1528L12.845 11.3362C12.574 11.3858 12.3137 11.2081 12.2625 10.9379Z" fill="black"/>
<path d="M8.67832 23.286C8.62875 23.0142 8.80804 22.7539 9.07987 22.7043L10.0796 22.5201C10.3514 22.4705 10.6117 22.6498 10.6621 22.9216C10.7117 23.1934 10.5324 23.4537 10.2606 23.5041L9.26082 23.6875C8.98899 23.7371 8.7279 23.557 8.67832 23.286Z" fill="black"/>
<path d="M5.81212 24.8087C5.81212 24.8082 5.81207 24.8076 5.81197 24.8071C5.76209 24.5356 5.94211 24.2758 6.21284 24.2254L7.21259 24.042C7.48276 23.9842 7.74799 24.156 7.80582 24.4262C7.86366 24.6964 7.6918 24.9616 7.42162 25.0194L7.4161 25.0205L7.41306 25.0211C7.40653 25.0224 7.39982 25.0238 7.39353 25.0244L6.39379 25.2119C6.12223 25.2615 5.86221 25.0817 5.81227 24.8104C5.81217 24.8098 5.81212 24.8093 5.81212 24.8087Z" fill="black"/>
<path fill-rule="evenodd" clip-rule="evenodd" d="M11.4099 27.6171C11.4107 28.5532 12.1692 29.3117 13.1053 29.3125C14.0406 29.3109 14.7991 28.5532 14.8015 27.6154V24.4355C14.8015 24.2551 14.9123 24.0931 15.0805 24.0277L16.3195 23.5462C16.3338 23.5424 16.3481 23.5381 16.3623 23.533C16.3857 23.5247 16.4081 23.5148 16.4294 23.5034L20.7835 21.811C20.8079 21.8015 20.8333 21.7947 20.8586 21.7877C20.8823 21.7811 20.9058 21.7727 20.9289 21.7624C20.9369 21.7588 20.9449 21.755 20.9526 21.7511C20.9758 21.7392 20.999 21.7272 21.0233 21.7178L22.7416 21.0499C22.7724 21.0379 22.8047 21.0302 22.8368 21.0222C22.8701 21.0139 22.9029 21.0021 22.935 20.9866C22.942 20.9832 22.9489 20.9796 22.9557 20.9759C22.9846 20.9602 23.0135 20.9442 23.0441 20.9323L26.7039 19.5097C26.7198 19.5044 26.7356 19.4983 26.7512 19.4913L28.8412 18.6789C28.8426 18.6784 28.8442 18.6782 28.8456 18.6776L28.8483 18.6764C29.1045 18.574 29.2292 18.2823 29.1259 18.0262C27.1992 13.2283 24.0958 9.12436 20.0539 6.00946C19.7938 5.80911 19.538 5.61924 19.2876 5.4395C19.09 5.29761 18.8152 5.34881 18.6783 5.54997L18.6154 5.64247C18.4806 5.84069 18.5306 6.11017 18.725 6.25052C22.3824 8.89186 25.7326 12.7872 27.8267 17.5185C27.9265 17.744 27.8156 18.0059 27.5857 18.0952L27.1933 18.2477C26.9774 18.3316 26.7339 18.2326 26.6343 18.0235C26.3456 17.4171 26.0377 16.8258 25.7124 16.2501C25.5952 16.0426 25.3321 15.9712 25.1241 16.0875L25.0154 16.1482C24.8013 16.2679 24.7278 16.5401 24.8487 16.7535C25.2009 17.3752 25.4757 17.9146 25.6803 18.3375C25.7903 18.5648 25.6805 18.8358 25.4453 18.9272L23.4869 19.6884C23.2282 19.789 22.9541 19.6242 22.9589 19.3468C22.9612 19.2176 22.9675 19.0663 22.9788 18.888C23.0796 17.2925 22.8755 16.7736 21.261 15.9697C20.8586 15.7722 20.4786 15.583 20.3067 15.3451C20.1043 15.0633 20.0365 14.5908 19.9713 14.1355C19.7441 12.5516 19.4301 12.0831 17.6768 11.627C16.6044 11.3486 16.4796 11.2965 16.031 10.0679C15.5071 8.6344 15.1287 8.17501 13.1912 8.09157C12.9411 8.08211 12.7888 7.82666 12.8896 7.59759L13.4541 6.3153C13.5547 6.08689 13.8262 5.98862 14.0476 6.10382C18.9427 8.65104 22.0918 12.4077 23.9474 15.2686C24.0741 15.464 24.33 15.5289 24.5333 15.4153L24.6437 15.3536C24.8621 15.2315 24.934 14.9512 24.7978 14.7413C22.0222 10.4639 18.2797 7.17736 14.4139 5.16973C14.2065 5.06203 14.1158 4.8123 14.21 4.59842L14.3694 4.23625C14.4667 4.01535 14.7246 3.91451 14.9435 4.01618C15.7261 4.37967 16.5093 4.80373 17.2845 5.28456C17.4863 5.40973 17.752 5.35616 17.8855 5.1598L17.9487 5.06688C18.0867 4.86396 18.0309 4.5868 17.8228 4.45674C15.8907 3.24919 14.5333 2.74522 14.457 2.71775C14.2091 2.62769 13.934 2.74501 13.8274 2.98627L12.9459 4.98871C12.9427 4.99479 12.9397 5.00097 12.9367 5.00724C12.9302 5.02119 12.9243 5.03529 12.9191 5.04951L7.91439 16.4184C7.90838 16.4297 7.90275 16.4412 7.89753 16.453L5.72866 21.3807C5.72396 21.3914 5.71965 21.4021 5.71574 21.4129L2.87982 27.8551C2.82695 27.9765 2.82364 28.1137 2.87156 28.2376C2.97154 28.4954 3.26072 28.6226 3.5185 28.5227L6.27704 27.4509C6.54647 27.3463 6.84214 27.5326 6.96542 27.794C7.23717 28.3703 7.82213 28.763 8.49242 28.7656C9.42855 28.7689 10.1903 28.0129 10.1936 27.0767V26.2275C10.1936 26.0471 10.3043 25.8852 10.4724 25.8198L10.8136 25.6869C11.1005 25.5753 11.4099 25.7869 11.4099 26.0946V27.6171ZM6.82492 22.2823C6.61138 22.2517 6.39373 22.3529 6.30681 22.5504L4.70569 26.1873C4.54867 26.544 4.90119 26.9125 5.26447 26.7714L7.12501 26.0489C7.27869 25.9894 7.4522 26.0093 7.58853 26.1026C7.82515 26.2647 7.8154 26.5021 7.80463 26.7645C7.80047 26.8658 7.79616 26.9709 7.80582 27.0767C7.79426 27.4609 8.09666 27.7815 8.48003 27.7931C8.86423 27.8047 9.18481 27.5023 9.19637 27.1189C9.1972 27.1048 9.1972 27.0908 9.19637 27.0776V25.5862C9.19637 25.3805 9.32279 25.1954 9.5153 25.1202L11.7313 24.2593C11.989 24.161 12.2782 24.2907 12.3765 24.5485C12.398 24.6047 12.4096 24.6641 12.4096 24.7245V27.6171C12.398 28.0013 12.7004 28.3219 13.0838 28.3334C13.468 28.345 13.7886 28.0426 13.8001 27.6592C13.801 27.6452 13.801 27.6311 13.8001 27.6179V23.7958C13.8001 23.59 13.9266 23.405 14.1191 23.3298L15.2676 22.8833C15.4613 22.8081 15.5717 22.6069 15.5619 22.3994C15.5234 21.5859 15.8236 20.7779 16.4152 20.1827C17.6722 18.9256 19.6857 19.1035 20.7446 20.3823C20.8777 20.543 21.0958 20.6179 21.2903 20.5423L21.6781 20.3915C21.886 20.3107 21.9974 20.0863 21.9737 19.8646C21.9355 19.5072 21.959 19.1382 21.9807 18.7964C22.0113 18.3154 22.0384 17.888 21.8856 17.6222C21.7057 17.3102 21.2891 17.1037 20.8366 16.8793C20.3457 16.6359 19.8127 16.3716 19.4937 15.9292C19.1478 15.4486 19.0556 14.8091 18.9745 14.2462C18.9059 13.7699 18.8451 13.3483 18.6452 13.1242C18.4038 12.8524 17.946 12.7329 17.4516 12.6039C16.9221 12.4656 16.3505 12.3164 15.9574 11.9575C15.506 11.5443 15.2758 10.9175 15.0772 10.3764C14.9153 9.93521 14.7742 9.55105 14.5512 9.38627C14.2169 9.13887 13.7015 9.11531 13.1667 9.09085C12.9827 9.08244 12.7964 9.07392 12.6144 9.05614C12.4112 9.03629 12.2105 9.14024 12.1282 9.32712L9.15051 16.0909C9.06363 16.2883 9.1359 16.517 9.30247 16.6539C10.7002 17.8028 10.9072 19.9961 9.52768 21.3749C8.80947 22.0995 7.80215 22.4222 6.82492 22.2823ZM8.98805 17.7495C8.809 17.5312 8.47928 17.6156 8.36551 17.874L7.08987 20.7716C6.97651 21.0291 7.13533 21.3286 7.41633 21.3144C9.14508 21.2275 10.0918 19.0954 8.98805 17.7495ZM19.4389 21.2619C19.7142 21.1549 19.8023 20.8089 19.5562 20.6455C19.0326 20.298 18.3499 20.2123 17.7289 20.4776C17.1517 20.7242 16.7535 21.2205 16.6123 21.7899C16.5411 22.0766 16.8399 22.2722 17.1152 22.1652L19.4389 21.2619Z" fill="black"/>
</svg>
