<svg width="24" height="24" viewBox="0 0 24 24" fill="none" xmlns="http://www.w3.org/2000/svg">
<path d="M19.0001 12.0001C19.0001 12.5523 18.5524 13.0001 18.0001 13.0001H14.0001C13.4478 13.0001 13.0001 13.4478 13.0001 14.0001V18.0001C13.0001 18.5523 12.5524 19.0001 12.0001 19.0001C11.4478 19.0001 11.0001 18.5523 11.0001 18.0001V14.0001C11.0001 13.4478 10.5524 13.0001 10.0001 13.0001H6.00011C5.44783 13.0001 5.00011 12.5523 5.00011 12.0001C5.00011 11.4478 5.44783 11.0001 6.00011 11.0001H10.0001C10.5524 11.0001 11.0001 10.5523 11.0001 10.0001V6.00005C11.0001 5.44777 11.4478 5.00005 12.0001 5.00005C12.5524 5.00005 13.0001 5.44777 13.0001 6.00005V10.0001C13.0001 10.5523 13.4478 11.0001 14.0001 11.0001H18.0001C18.5524 11.0001 19.0001 11.4478 19.0001 12.0001Z" fill="black"/>
</svg>
