<svg width="32" height="32" viewBox="0 0 32 32" fill="none" xmlns="http://www.w3.org/2000/svg">
<path d="M28.8131 14.3913H28.7743C29.1071 13.9521 29.305 13.4053 29.305 12.8131C29.305 12.1766 29.0718 11.5648 28.6577 11.0905C28.7384 10.7232 28.8011 10.3521 28.8455 9.97869C28.9445 9.15384 28.9241 8.58643 28.9232 8.5627C28.9182 8.43175 28.8639 8.30751 28.7712 8.21484C28.6786 8.12218 28.5543 8.0679 28.4234 8.06287C28.4019 8.06188 27.8894 8.04357 27.1323 8.12588C26.9613 8.14445 26.7823 8.16786 26.5974 8.19638C26.358 7.08715 25.5354 6.17437 24.4456 5.82943C24.2364 4.50834 23.0856 3.49235 21.7101 3.49235C20.3334 3.49235 19.1825 4.50871 18.9742 5.83026C18.4872 5.98489 18.0448 6.25503 17.6848 6.61765C17.0841 5.7183 16.483 5.15411 16.433 5.10781C16.3368 5.01883 16.2107 4.9694 16.0797 4.9694C15.9487 4.9694 15.8225 5.01883 15.7263 5.10781C15.6498 5.17862 14.2854 6.45959 13.6032 8.29923C13.5653 8.25617 13.5261 8.21431 13.4856 8.17374C12.5851 7.2733 11.1934 7.13522 10.1427 7.76512C10.0804 7.6876 10.0139 7.61349 9.94357 7.54312C9.10291 6.70251 7.83453 6.51016 6.79824 7.02534C5.86715 6.38092 4.57354 6.47353 3.74786 7.29963C2.9213 8.12619 2.82889 9.42001 3.47378 10.3505C2.96089 11.3861 3.15401 12.6531 3.99395 13.4931C4.06257 13.5616 4.13471 13.6264 4.21007 13.6873C4.07492 13.9064 3.97123 14.1433 3.90207 14.3913H3.18695C2.89965 14.3913 2.66667 14.6242 2.66667 14.9115V18.2099C2.66667 22.3163 5.94374 25.6713 10.0199 25.7981V26.9598C10.0199 27.8133 10.7143 28.5077 11.5677 28.5077H19.9182C20.7716 28.5077 21.466 27.8133 21.466 26.9598V25.7985C25.8255 25.6731 29.3333 22.0881 29.3333 17.6988V14.9115C29.3333 14.6242 29.1004 14.3913 28.8131 14.3913ZM28.2644 12.8131C28.2644 13.4744 27.8553 14.0416 27.2771 14.2759C27.6897 13.7186 28.0006 13.114 28.2343 12.5089C28.2542 12.6091 28.2643 12.7109 28.2644 12.8131ZM27.2447 9.16029C27.486 9.13407 27.6997 9.11919 27.875 9.11092C27.863 9.35958 27.8421 9.60774 27.8123 9.85491C27.7667 10.236 27.6956 10.6614 27.5863 11.104C27.5824 11.1174 27.579 11.131 27.5762 11.1446C27.31 12.203 26.8238 13.3557 25.9403 14.2396L25.8861 14.2937C25.8724 14.3075 25.8577 14.3216 25.8402 14.3387L25.8346 14.3441L25.8232 14.3556C25.8103 14.3679 25.7976 14.3794 25.785 14.3913H24.7473C24.6091 13.2978 24.1074 12.2884 23.3068 11.5103C23.1324 11.341 22.9457 11.1847 22.7484 11.0429C24.1115 9.68213 26.1503 9.27928 27.2447 9.16029ZM16.3297 14.3913C16.2212 13.8674 15.9596 13.3871 15.5684 13.0069C15.0616 12.5143 14.3931 12.243 13.6862 12.243C12.9793 12.243 12.3109 12.5143 11.8041 13.0069C11.4128 13.3871 11.1513 13.8674 11.0428 14.3913H9.89591C9.94442 14.086 10.0297 13.7877 10.1498 13.5028C10.1676 13.4714 10.182 13.4381 10.1928 13.4036C10.7974 12.078 12.1296 11.1703 13.6863 11.1703C13.7048 11.1703 13.723 11.1714 13.7414 11.1717C14.7686 11.1861 15.6955 11.5949 16.3746 12.2578C16.3915 12.2812 16.41 12.3037 16.4313 12.3246C16.4483 12.3413 16.4664 12.356 16.485 12.37C16.9435 12.8562 17.2661 13.4546 17.4204 14.1049C17.4235 14.1224 17.4275 14.1397 17.4324 14.1567C17.4497 14.2339 17.464 14.3123 17.4766 14.3913L16.3297 14.3913ZM15.2534 14.3913H12.1191C12.345 13.7418 12.9589 13.2835 13.6862 13.2835C14.4135 13.2835 15.0275 13.7418 15.2534 14.3913ZM18.5282 14.3913C18.5153 14.2915 18.4993 14.1922 18.4802 14.0933C18.7775 13.5969 19.32 13.2834 19.9051 13.2834C20.6325 13.2834 21.2465 13.7417 21.4724 14.3913H18.5282ZM22.5488 14.3913C22.4402 13.8674 22.1787 13.3871 21.7873 13.0067C21.2804 12.5142 20.612 12.2428 19.9051 12.2428C19.2313 12.2428 18.5918 12.4982 18.1041 12.9337C17.9474 12.6007 17.7533 12.2865 17.5256 11.9974C17.8328 11.7531 18.1761 11.5579 18.5431 11.4187C18.5587 11.4135 18.574 11.4075 18.589 11.4008C19.0049 11.2495 19.4486 11.1705 19.9051 11.1705C20.4531 11.1705 20.9728 11.2839 21.4432 11.4874C21.4798 11.5094 21.5189 11.5269 21.5597 11.5393C21.5939 11.5555 21.6275 11.5726 21.6611 11.5897C21.6916 11.6103 21.7242 11.6275 21.7584 11.6411C22.7733 12.1961 23.5048 13.196 23.6957 14.3912L22.5488 14.3913ZM19.5534 6.75646C19.6728 6.73487 19.7809 6.67227 19.8589 6.57946C19.937 6.48666 19.9802 6.36949 19.9811 6.2482C19.9879 5.30234 20.7635 4.5328 21.71 4.5328C22.6557 4.5328 23.4313 5.30229 23.4388 6.24815C23.4398 6.36943 23.4831 6.48657 23.5613 6.57931C23.6395 6.67204 23.7476 6.73456 23.8669 6.75604C24.7258 6.91051 25.3933 7.57381 25.5772 8.40215C24.4502 8.68668 23.2304 9.19697 22.2302 10.1013V7.59254C22.2302 7.30525 21.9972 7.07227 21.7099 7.07227C21.4226 7.07227 21.1897 7.30525 21.1897 7.59254V10.3017C20.771 10.1878 20.339 10.13 19.9051 10.1299C19.5759 10.1299 19.2519 10.1621 18.9367 10.2252C18.9183 9.24286 18.6208 8.33477 18.2364 7.56455C18.5589 7.14172 19.026 6.85193 19.5534 6.75646ZM16.0796 6.24305C16.695 6.93762 17.8974 8.52446 17.8974 10.3209V10.3854C17.8974 10.4008 17.8975 10.417 17.897 10.4324C17.8969 10.4368 17.8969 10.4413 17.8969 10.4457V10.4582C17.896 10.4926 17.8945 10.5269 17.8926 10.561C17.4975 10.7401 17.1283 10.9715 16.7948 11.2488C16.075 10.6525 15.2086 10.28 14.2846 10.1673C14.286 10.0928 14.2844 10.0183 14.2797 9.94393C14.4292 8.30485 15.5077 6.8883 16.0796 6.24305ZM5.48532 13.4676C5.47106 13.3854 5.43725 13.3079 5.38676 13.2415C5.33626 13.1751 5.27055 13.1219 5.19516 13.0862C5.02404 13.0053 4.86713 12.8943 4.72931 12.7568C4.14962 12.1771 4.0672 11.2689 4.53337 10.5972C4.60252 10.4976 4.63467 10.3769 4.62428 10.256C4.61389 10.1352 4.5616 10.0217 4.47645 9.93535C3.95836 9.40976 3.96159 8.5575 4.48379 8.03525C5.00521 7.51351 5.85768 7.51024 6.38389 8.02838C6.47041 8.11349 6.58395 8.16569 6.70488 8.17596C6.8258 8.18623 6.94652 8.15392 7.04615 8.08462C7.71824 7.61674 8.62732 7.69847 9.20769 8.27884C9.34352 8.4142 9.45508 8.57191 9.5375 8.74506C9.573 8.81982 9.62584 8.88504 9.69161 8.93528C9.75738 8.98553 9.8342 9.01935 9.91567 9.03395C9.99714 9.04854 10.0809 9.04349 10.16 9.01921C10.2392 8.99493 10.3114 8.95211 10.3706 8.89433C11.0306 8.2509 12.098 8.25761 12.7498 8.90941C13.0287 9.18828 13.1965 9.55508 13.2356 9.93868C13.2304 10.0092 13.2267 10.0802 13.2244 10.1515C12.1196 10.255 11.0893 10.7281 10.2847 11.5102C10.0136 11.7737 9.77394 12.0677 9.57032 12.3862L7.80628 10.6221C7.60311 10.419 7.27377 10.4189 7.07045 10.6221C6.86728 10.8253 6.86728 11.1547 7.07045 11.3579L9.08699 13.3745C8.96975 13.7037 8.8884 14.0446 8.84433 14.3913H5.00807C5.09007 14.2209 5.20141 14.0637 5.34058 13.9244C5.39955 13.8654 5.44348 13.7931 5.46867 13.7136C5.49386 13.6341 5.49957 13.5497 5.48532 13.4676ZM19.9182 27.4672H11.5677C11.288 27.4672 11.0604 27.2396 11.0604 26.9599V25.8023H20.4254V26.9599C20.4254 27.2396 20.1979 27.4672 19.9182 27.4672ZM28.2928 17.6989C28.2928 21.5933 25.1244 24.7617 21.2299 24.7617H10.259C6.64632 24.7617 3.70722 21.8226 3.70722 18.21V15.4319H28.2928V17.6989Z" fill="black"/>
<path d="M11.5286 23.1834H12.6213C12.9086 23.1834 13.1415 22.9504 13.1415 22.6631C13.1415 22.3758 12.9086 22.1428 12.6213 22.1428H11.5286C8.91555 22.1428 6.71645 20.189 6.41318 17.598C6.37972 17.3126 6.12109 17.1086 5.83593 17.1417C5.55051 17.1751 5.34625 17.4335 5.3796 17.7189C5.74426 20.8342 8.38778 23.1834 11.5286 23.1834Z" fill="black"/>
<path d="M14.7021 23.2009C14.9896 23.2009 15.2227 22.9678 15.2227 22.6804C15.2227 22.3929 14.9896 22.1598 14.7021 22.1598C14.4146 22.1598 14.1816 22.3929 14.1816 22.6804C14.1816 22.9678 14.4146 23.2009 14.7021 23.2009Z" fill="black"/>
</svg>
