<svg width="32" height="32" viewBox="0 0 32 32" fill="currentColor" xmlns="http://www.w3.org/2000/svg">
<path fill-rule="evenodd" clip-rule="evenodd" d="M28.5094 20.308C28.5094 21.0263 28.232 21.7022 27.728 22.2134C28.4035 22.7194 28.8175 23.5227 28.8176 24.3863C28.8176 25.8827 27.6004 27.1001 26.1043 27.1001C26.0937 27.1001 26.0829 27.0993 26.0721 27.0992C25.3774 28.2841 24.1388 28.9999 22.724 28.9999H7.07784C4.9299 28.9999 3.18242 27.2524 3.18242 25.1045V23.5719C3.18242 23.4709 3.22254 23.374 3.29397 23.3026C3.36539 23.2312 3.46227 23.191 3.56328 23.191C3.66429 23.191 3.76116 23.2312 3.83259 23.3026C3.90401 23.374 3.94414 23.4709 3.94414 23.5719V25.1045C3.94414 26.8324 5.34991 28.2382 7.07784 28.2382H22.7241C24.0155 28.2382 25.1248 27.4971 25.619 26.3041C26.1133 25.111 25.8531 23.8024 24.94 22.889L9.29328 7.24239C8.38023 6.32935 7.0719 6.06909 5.87855 6.5633C4.68534 7.0575 3.94414 8.16682 3.94414 9.45828V21.7946C3.94414 21.8956 3.90401 21.9924 3.83259 22.0639C3.76116 22.1353 3.66429 22.1754 3.56328 22.1754C3.46227 22.1754 3.36539 22.1353 3.29397 22.0639C3.22254 21.9924 3.18242 21.8956 3.18242 21.7946V9.45828C3.18242 8.15361 3.79093 6.99854 4.81493 6.28182C4.78152 6.11084 4.76451 5.93635 4.76451 5.76024C4.76451 4.26413 5.98188 3.047 7.47825 3.047C8.17817 3.047 8.83269 3.30888 9.33146 3.77774C9.84126 3.27628 10.5159 3.00003 11.233 3.00003C11.9577 3.00003 12.639 3.28227 13.1515 3.79476C13.6077 4.25092 13.8824 4.85563 13.9361 5.48861C14.8661 5.22521 15.8944 5.47475 16.5988 6.17919C17.055 6.63536 17.3297 7.24006 17.3834 7.87305C18.3134 7.60959 19.3417 7.85918 20.0461 8.56362C20.619 9.13653 20.8979 9.9207 20.8316 10.707C21.2199 10.6789 21.6097 10.7347 21.9745 10.8707C22.3394 11.0066 22.6706 11.2194 22.9459 11.4948C23.6503 12.1992 23.8998 13.2275 23.6361 14.1576C24.2691 14.2114 24.8738 14.486 25.3303 14.942C26.0345 15.6467 26.284 16.675 26.0205 17.6049C26.6535 17.6585 27.2581 17.9332 27.7144 18.3894C28.227 18.9018 28.5094 19.5832 28.5094 20.308ZM11.6834 8.55539L16.8425 13.7144C16.847 13.6275 16.8493 13.5405 16.8494 13.4535C16.8494 10.7489 14.6492 8.54844 11.9448 8.54844C11.8576 8.54847 11.7705 8.55079 11.6834 8.55539ZM25.4786 22.3505C26.5415 23.4136 26.8926 24.9074 26.4285 26.3109C27.3508 26.156 28.0558 25.3521 28.0557 24.3865C28.0557 23.6236 27.6063 22.9261 26.9109 22.6096C26.8488 22.5813 26.7954 22.5368 26.7563 22.4808C26.7173 22.4248 26.694 22.3594 26.6889 22.2913C26.6839 22.2232 26.6972 22.155 26.7275 22.0938C26.7578 22.0327 26.804 21.9808 26.8612 21.9436C26.9748 21.8694 27.0803 21.7838 27.1762 21.688C27.5444 21.3198 27.7476 20.8295 27.7476 20.3082C27.7476 19.7869 27.5445 19.2968 27.1757 18.9283C26.7392 18.4918 26.1138 18.2864 25.5026 18.3787C25.4321 18.3893 25.36 18.38 25.2945 18.3517C25.2291 18.3234 25.1729 18.2773 25.1323 18.2186C25.0918 18.1599 25.0685 18.091 25.0652 18.0198C25.0619 17.9485 25.0787 17.8778 25.1137 17.8156C25.5397 17.057 25.4073 16.0969 24.7916 15.4808C24.3485 15.0381 23.7385 14.8377 23.1181 14.9314C23.0476 14.942 22.9755 14.9327 22.91 14.9044C22.8446 14.876 22.7884 14.8299 22.7478 14.7712C22.7073 14.7126 22.6841 14.6437 22.6808 14.5724C22.6775 14.5012 22.6942 14.4304 22.7292 14.3683C23.1554 13.6094 23.0229 12.6494 22.4072 12.0336C21.898 11.5248 21.1528 11.3377 20.4622 11.545C20.396 11.5649 20.3256 11.5664 20.2586 11.5493C20.1916 11.5322 20.1306 11.4972 20.0819 11.448C20.0333 11.3988 19.999 11.3374 19.9827 11.2702C19.9663 11.203 19.9686 11.1326 19.9892 11.0666C20.207 10.3701 20.0224 9.61748 19.5073 9.10236C18.8913 8.48638 17.9313 8.35379 17.1726 8.77985C17.1105 8.81476 17.0397 8.83152 16.9685 8.82821C16.8972 8.8249 16.8284 8.80165 16.7697 8.76112C16.711 8.72058 16.6649 8.66439 16.6366 8.59893C16.6083 8.53347 16.5989 8.46138 16.6096 8.39086C16.7019 7.77971 16.4965 7.15429 16.0601 6.71787C15.4441 6.1019 14.484 5.96931 13.7254 6.39536C13.6632 6.43028 13.5925 6.44704 13.5212 6.44373C13.45 6.44042 13.3811 6.41717 13.3225 6.37663C13.2638 6.3361 13.2177 6.2799 13.1894 6.21444C13.1611 6.14899 13.1517 6.0769 13.1623 6.00638C13.2547 5.39523 13.0492 4.76981 12.6128 4.33339C11.8519 3.57254 10.6139 3.57249 9.85294 4.33339C9.77793 4.40814 9.70925 4.48899 9.64763 4.57511C9.61286 4.62358 9.56719 4.66321 9.5143 4.69081C9.46142 4.71841 9.40279 4.73321 9.34314 4.73401C9.22294 4.73665 9.10767 4.67962 9.0346 4.58324C8.66156 4.09112 8.09428 3.80882 7.4782 3.80882C6.40185 3.80882 5.52617 4.68429 5.52617 5.76034C5.52642 5.80163 5.52796 5.84291 5.5308 5.8841C5.53765 5.88113 5.54446 5.87811 5.55128 5.87509C5.56311 5.86985 5.57494 5.86461 5.58696 5.85962C7.07023 5.24532 8.69675 5.56875 9.83181 6.70386L10.9946 7.86665C11.3068 7.81389 11.6254 7.78677 11.9447 7.78677C15.0691 7.78677 17.611 10.3289 17.611 13.4536C17.611 13.7718 17.5843 14.0895 17.5312 14.4033L17.7862 14.6582C18.0991 14.6053 18.4177 14.5781 18.7361 14.5781C20.485 14.5781 22.1088 15.3672 23.1909 16.7431C23.2351 16.7993 23.2626 16.8667 23.2702 16.9378C23.2779 17.0088 23.2654 17.0806 23.2342 17.1449C23.203 17.2091 23.1544 17.2634 23.0938 17.3013C23.0333 17.3392 22.9633 17.3594 22.8918 17.3594C22.8341 17.3595 22.7772 17.3465 22.7253 17.3213C22.6733 17.2961 22.6278 17.2594 22.5922 17.214C21.6554 16.0229 20.2499 15.3398 18.7361 15.3398C18.649 15.3398 18.5619 15.3422 18.4749 15.3468L23.6337 20.5057C23.6383 20.4191 23.6406 20.3322 23.6406 20.2453C23.6406 19.7004 23.5522 19.166 23.3778 18.6568C23.3463 18.5616 23.3536 18.4578 23.3982 18.3679C23.4428 18.278 23.5211 18.2094 23.616 18.1769C23.7109 18.1444 23.8148 18.1506 23.9051 18.1943C23.9954 18.2379 24.0649 18.3155 24.0984 18.41C24.3 18.9989 24.4023 19.6163 24.4023 20.2453C24.4022 20.5634 24.3756 20.881 24.3227 21.1947L25.4786 22.3505ZM8.48974 11.5788L5.42687 14.6412C5.35252 14.7155 5.25512 14.7527 5.15762 14.7527C5.0823 14.7527 5.00867 14.7304 4.94605 14.6885C4.88342 14.6467 4.83461 14.5872 4.80579 14.5176C4.77696 14.448 4.76942 14.3714 4.78411 14.2975C4.79881 14.2237 4.83507 14.1558 4.88833 14.1025L7.9512 11.0402C8.02263 10.9688 8.1195 10.9287 8.2205 10.9287C8.32151 10.9287 8.41837 10.9688 8.48979 11.0402C8.56119 11.1117 8.60131 11.2085 8.6013 11.3095C8.60129 11.4105 8.56116 11.5074 8.48974 11.5788ZM5.01182 18.2991C4.9656 18.28 4.92362 18.2519 4.88828 18.2165C4.81687 18.1451 4.77675 18.0482 4.77675 17.9472C4.77675 17.8462 4.81687 17.7493 4.88828 17.6779L10.7285 11.8382C10.7999 11.7668 10.8968 11.7267 10.9978 11.7267C11.0988 11.7267 11.1957 11.7668 11.2671 11.8382C11.3385 11.9096 11.3787 12.0065 11.3787 12.1075C11.3787 12.2085 11.3385 12.3054 11.2671 12.3768L5.42692 18.2165C5.39159 18.2519 5.34961 18.28 5.3034 18.2992C5.25718 18.3183 5.20764 18.3281 5.15762 18.328C5.10759 18.3281 5.05804 18.3183 5.01182 18.2991ZM5.15757 21.9029C5.06012 21.9029 4.96262 21.8657 4.88828 21.7913C4.81687 21.7199 4.77675 21.623 4.77675 21.522C4.77675 21.421 4.81687 21.3242 4.88828 21.2527L13.2378 12.9032C13.3093 12.8318 13.4061 12.7917 13.5071 12.7917C13.6081 12.7917 13.705 12.8318 13.7764 12.9032C13.8478 12.9746 13.8879 13.0715 13.8879 13.1725C13.8879 13.2735 13.8478 13.3704 13.7764 13.4418L5.42687 21.7913C5.35252 21.8657 5.25502 21.9029 5.15757 21.9029ZM5.15757 25.4777C5.06012 25.4777 4.96262 25.4405 4.88828 25.3661C4.81687 25.2947 4.77675 25.1978 4.77675 25.0968C4.77675 24.9958 4.81687 24.899 4.88828 24.8275L15.0255 14.6908C15.0609 14.6554 15.1029 14.6274 15.1491 14.6082C15.1953 14.5891 15.2448 14.5792 15.2948 14.5792C15.3448 14.5792 15.3944 14.5891 15.4406 14.6082C15.4868 14.6274 15.5288 14.6554 15.5641 14.6908C15.6355 14.7622 15.6757 14.8591 15.6757 14.9601C15.6757 15.0611 15.6355 15.158 15.5641 15.2294L5.42687 25.3661C5.35252 25.4405 5.25502 25.4777 5.15757 25.4777ZM6.55319 26.7385L16.8132 16.4785C16.8847 16.4076 16.9814 16.3679 17.0821 16.3681C17.1829 16.3683 17.2794 16.4084 17.3506 16.4796C17.4218 16.5509 17.462 16.6474 17.4622 16.7481C17.4624 16.8488 17.4227 16.9455 17.3518 17.0171L7.09178 27.2771C7.05646 27.3125 7.01449 27.3406 6.96827 27.3597C6.92206 27.3789 6.87251 27.3887 6.82249 27.3886C6.74716 27.3886 6.67353 27.3663 6.61091 27.3244C6.54828 27.2826 6.49947 27.2231 6.47065 27.1535C6.44182 27.0839 6.43428 27.0074 6.44897 26.9335C6.46367 26.8596 6.49994 26.7917 6.55319 26.7385ZM10.1116 26.7555L18.6009 18.2661C18.6724 18.1952 18.7691 18.1556 18.8698 18.1558C18.9706 18.156 19.0671 18.1961 19.1383 18.2673C19.2095 18.3386 19.2496 18.4351 19.2499 18.5358C19.2501 18.6365 19.2104 18.7333 19.1395 18.8048L10.6502 27.2941C10.6149 27.3295 10.5729 27.3576 10.5267 27.3767C10.4804 27.3959 10.4309 27.4057 10.3809 27.4056C10.3056 27.4056 10.2319 27.3833 10.1693 27.3415C10.1067 27.2996 10.0579 27.2401 10.029 27.1705C10.0002 27.1009 9.99267 27.0244 10.0074 26.9505C10.0221 26.8766 10.0583 26.8088 10.1116 26.7555ZM13.6869 26.7555L19.5603 20.8821C19.6317 20.8107 19.7286 20.7706 19.8296 20.7706C19.9306 20.7706 20.0275 20.8107 20.0989 20.8821C20.1703 20.9535 20.2104 21.0504 20.2104 21.1514C20.2104 21.2524 20.1703 21.3493 20.0989 21.4207L14.2255 27.2941C14.1902 27.3295 14.1482 27.3576 14.102 27.3767C14.0557 27.3959 14.0062 27.4057 13.9562 27.4056C13.8809 27.4056 13.8072 27.3833 13.7446 27.3415C13.682 27.2996 13.6332 27.2401 13.6043 27.1705C13.5755 27.1009 13.568 27.0244 13.5827 26.9505C13.5974 26.8766 13.6336 26.8088 13.6869 26.7555ZM17.1575 26.9504C17.1722 26.8766 17.2085 26.8087 17.2617 26.7554L19.899 24.1188C19.9704 24.0474 20.0673 24.0073 20.1683 24.0073C20.2693 24.0073 20.3661 24.0474 20.4375 24.1188C20.5089 24.1903 20.5491 24.2871 20.549 24.3881C20.549 24.4891 20.5089 24.586 20.4375 24.6574L17.8003 27.2941C17.765 27.3295 17.723 27.3576 17.6768 27.3767C17.6306 27.3958 17.581 27.4057 17.531 27.4056C17.4557 27.4056 17.3821 27.3832 17.3194 27.3414C17.2568 27.2996 17.208 27.2401 17.1792 27.1705C17.1504 27.1009 17.1428 27.0243 17.1575 26.9504Z" fill="black"/>
</svg>
