<svg width="24" height="24" viewBox="0 0 24 24" fill="currentColor" xmlns="http://www.w3.org/2000/svg">
<path d="M13.2543 2.25001C11.6859 2.25055 10.1501 2.69819 8.82693 3.54046C7.5038 4.38273 6.44818 5.58472 5.78382 7.00554C5.11946 8.42635 4.87389 10.0071 5.07589 11.5625C5.2779 13.1179 5.9191 14.5835 6.92435 15.7875L2.22185 20.4675C2.15155 20.5372 2.09576 20.6202 2.05768 20.7116C2.0196 20.803 2 20.901 2 21C2 21.099 2.0196 21.197 2.05768 21.2884C2.09576 21.3798 2.15155 21.4628 2.22185 21.5325C2.29193 21.602 2.37504 21.657 2.46642 21.6943C2.5578 21.7317 2.65564 21.7506 2.75435 21.75C2.85305 21.7506 2.9509 21.7317 3.04228 21.6943C3.13366 21.657 3.21677 21.602 3.28685 21.5325L8.00435 16.845C9.02385 17.6922 10.2325 18.2813 11.5279 18.5624C12.8234 18.8435 14.1675 18.8082 15.4464 18.4597C16.7254 18.1112 17.9015 17.4596 18.8752 16.5601C19.8489 15.6606 20.5916 14.5398 21.0402 13.2924C21.4889 12.0451 21.6304 10.708 21.4528 9.39438C21.2751 8.08075 20.7836 6.82927 20.0197 5.74591C19.2558 4.66255 18.2422 3.7792 17.0645 3.17067C15.8869 2.56214 14.5799 2.24634 13.2543 2.25001ZM13.2543 17.25C11.9193 17.25 10.6143 16.8541 9.50425 16.1124C8.39422 15.3707 7.52905 14.3165 7.01816 13.0831C6.50727 11.8497 6.3736 10.4925 6.63405 9.18315C6.8945 7.87378 7.53737 6.67104 8.48138 5.72704C9.42538 4.78303 10.6281 4.14016 11.9375 3.87971C13.2469 3.61926 14.6041 3.75293 15.8375 4.26382C17.0709 4.77471 18.1251 5.63988 18.8668 6.74991C19.6085 7.85994 20.0043 9.16498 20.0043 10.5C20.0043 12.2902 19.2932 14.0071 18.0273 15.273C16.7614 16.5388 15.0446 17.25 13.2543 17.25Z" fill="black"/>
</svg>
