<svg width="32" height="32" viewBox="0 0 32 32" fill="none" xmlns="http://www.w3.org/2000/svg">
<path fill-rule="evenodd" clip-rule="evenodd" d="M16 29.8125C13.9114 29.8125 12.4196 29.3722 11.449 28.9293C10.513 28.5021 9.90967 27.5679 9.90967 26.5354V26.2547C6.16341 24.1282 3.63331 20.1004 3.62507 15.4797C3.62502 15.4722 3.625 15.4647 3.625 15.4571C3.625 13.5417 5.16264 11.9306 7.36804 10.8256C9.6007 9.70694 12.6532 9.02821 16 9.02821C17.8264 9.02821 19.5621 9.23032 21.1234 9.59408C21.3686 9.65122 21.5212 9.89675 21.4642 10.1425C21.4072 10.3883 21.1621 10.5412 20.9169 10.484C19.4268 10.1368 17.7605 9.94188 16 9.94188C12.764 9.94188 9.85699 10.6 7.77579 11.6428C5.67058 12.6976 4.54026 14.07 4.53677 15.4507C4.53679 15.4528 4.53681 15.455 4.53681 15.4571L4.53682 15.4757C4.54249 16.261 4.90659 17.0373 5.61848 17.7643C6.33808 18.4992 7.39504 19.1627 8.71747 19.6942C8.95115 19.7881 9.06461 20.0541 8.9709 20.2882C8.87718 20.5224 8.61177 20.6361 8.37809 20.5422C6.97721 19.9792 5.80072 19.2549 4.9677 18.4042C4.94454 18.3806 4.92163 18.3568 4.89898 18.3329C6.17292 23.2854 10.6601 26.9443 16 26.9443C21.3402 26.9443 25.8275 23.285 27.1012 18.3322C26.4611 19.0059 25.6126 19.5973 24.632 20.0886C22.3993 21.2073 19.3468 21.886 16 21.886C13.916 21.886 11.9497 21.6229 10.2254 21.1564C9.98235 21.0906 9.83851 20.8399 9.90414 20.5963C9.96977 20.3527 10.22 20.2086 10.4631 20.2743C12.1045 20.7184 13.9906 20.9724 16 20.9724C19.236 20.9724 22.143 20.3142 24.2242 19.2714C26.3294 18.2166 27.4597 16.8443 27.4632 15.4637L27.4632 15.4571L27.4632 15.4548C27.4625 14.6062 27.0425 13.7661 26.2172 12.9889C25.3898 12.2097 24.18 11.5204 22.6823 10.9944C22.4447 10.911 22.3195 10.6503 22.4028 10.4122C22.4861 10.1741 22.7462 10.0487 22.9838 10.1322C24.5615 10.6862 25.8947 11.4315 26.8415 12.3231C27.7897 13.216 28.375 14.282 28.375 15.4571L28.375 15.4652C28.372 20.092 25.8406 24.1259 22.0904 26.2547V26.5354C22.0904 27.5679 21.487 28.5021 20.551 28.9293C19.5804 29.3722 18.0886 29.8125 16 29.8125ZM21.1678 26.7282C21.1007 27.3228 20.7265 27.8452 20.1731 28.0977L20.1731 28.0978C19.3195 28.4873 17.9564 28.8989 16 28.8989C14.0437 28.8989 12.6806 28.4873 11.8269 28.0978L11.8269 28.0977C11.2736 27.8452 10.8994 27.3229 10.8323 26.7282C12.4049 27.4535 14.1553 27.858 16 27.858C17.8447 27.858 19.5951 27.4535 21.1678 26.7282ZM16 20.2572C13.0556 20.2572 10.1746 19.6738 8.09494 18.6318C7.25035 18.2086 6.55361 17.7174 6.06149 17.1924C5.5745 16.6728 5.25039 16.078 5.25039 15.4572C5.25039 14.6053 5.85621 13.7968 6.71418 13.1351C6.91371 12.9813 7.19994 13.0186 7.3535 13.2186C7.50705 13.4185 7.46978 13.7053 7.27025 13.8592C6.48309 14.4663 6.16215 15.0386 6.16215 15.4572C6.16215 15.655 6.23297 15.8897 6.39879 16.1512C6.54332 15.9 6.7293 15.6578 6.94634 15.4281C7.38918 14.9594 7.98264 14.5199 8.68935 14.1354C10.6144 13.0882 13.279 12.5028 16 12.5028C18.7211 12.5028 21.3857 13.0882 23.3108 14.1354C24.0175 14.5199 24.6109 14.9594 25.0538 15.4281C25.2708 15.6578 25.4568 15.9 25.6013 16.1512C25.7671 15.8897 25.8379 15.6549 25.8379 15.4572C25.8379 15.1594 25.6774 14.7778 25.274 14.3474C24.8757 13.9224 24.2761 13.4899 23.4974 13.0997C21.576 12.1369 18.8431 11.5706 16 11.5706C13.3039 11.5706 10.7044 12.08 8.80267 12.9556C8.57388 13.0609 8.30321 12.9604 8.1981 12.7312C8.09299 12.5019 8.19325 12.2307 8.42203 12.1253C10.4696 11.1827 13.205 10.657 16 10.657C18.9445 10.657 21.8255 11.2405 23.9051 12.2824L23.9051 12.2825C24.7497 12.7057 25.4464 13.1968 25.9386 13.7219C26.4256 14.2415 26.7497 14.8363 26.7497 15.4572C26.7497 16.078 26.4256 16.6728 25.9386 17.1924C25.4464 17.7174 24.7497 18.2086 23.9051 18.6318C21.8255 19.6738 18.9445 20.2572 16 20.2572ZM7.60839 16.0563C7.33099 16.3499 7.15229 16.6299 7.05776 16.8824C7.43153 17.203 7.9163 17.5208 8.50268 17.8146C10.4241 18.7773 13.157 19.3436 16 19.3436C18.8431 19.3436 21.576 18.7773 23.4974 17.8146C24.0838 17.5208 24.5686 17.2029 24.9423 16.8824C24.8478 16.6299 24.6691 16.3498 24.3917 16.0563C24.0293 15.6728 23.5187 15.2882 22.8758 14.9384C21.1156 13.9809 18.6095 13.4165 16 13.4165C13.3906 13.4165 10.8844 13.9809 9.12434 14.9384C8.48139 15.2882 7.97079 15.6728 7.60839 16.0563ZM10.0091 17.4215C10.6057 17.6872 11.422 17.8141 12.2076 17.8141C12.9923 17.8141 13.7158 17.6994 14.2816 17.4363C14.856 17.1692 15.3056 16.7266 15.4196 16.0794L15.4196 16.0794C15.4225 16.0629 15.4251 16.0465 15.4275 16.0301C15.4661 16.0069 15.5083 15.9802 15.5525 15.95C15.726 15.8315 15.9669 15.6352 16.125 15.358C16.2499 15.139 16.1739 14.8599 15.9553 14.7347C15.7367 14.6096 15.4582 14.6857 15.3333 14.9048C15.3049 14.9546 15.2642 15.0043 15.2155 15.052C15.0669 14.8299 14.8506 14.6475 14.582 14.5211C13.9947 14.2446 13.1895 14.2411 12.2843 14.5337C11.8116 14.6865 11.39 14.7655 10.9904 14.8404L10.9904 14.8404L10.9903 14.8404C10.8092 14.8743 10.6326 14.9074 10.4578 14.9461C9.96933 15.0544 9.35905 15.2324 9.12737 15.836L9.12736 15.836C8.98929 16.1958 9.04081 16.5479 9.24239 16.8387C9.42617 17.1039 9.71343 17.2897 10.0091 17.4215ZM9.97835 16.164C10.0176 16.0619 10.1311 15.9543 10.6546 15.8383C10.7812 15.8102 10.9289 15.7824 11.0923 15.7517L11.0923 15.7517L11.0927 15.7516L11.0928 15.7516L11.0929 15.7516L11.0929 15.7516C11.5123 15.6728 12.0342 15.5746 12.5643 15.4033C13.3386 15.153 13.8878 15.2037 14.1944 15.348C14.4715 15.4785 14.5641 15.6798 14.5217 15.9207C14.4745 16.1888 14.2906 16.4248 13.8978 16.6075C13.4964 16.7942 12.9189 16.9005 12.2076 16.9005C11.497 16.9005 10.8195 16.7825 10.3795 16.5866C10.1569 16.4874 10.0402 16.3882 9.99122 16.3175C9.96002 16.2725 9.94995 16.238 9.97835 16.164L9.97835 16.164ZM17.5859 16.2849C17.8661 16.4675 18.2261 16.5655 18.6005 16.5655C18.9749 16.5655 19.3349 16.4675 19.6151 16.2849C19.8911 16.1052 20.1399 15.8035 20.1399 15.4029C20.1399 15.0023 19.8911 14.7005 19.6152 14.5208C19.3349 14.3382 18.9749 14.2402 18.6005 14.2402C18.2261 14.2402 17.8661 14.3382 17.5859 14.5208C17.3099 14.7005 17.0611 15.0023 17.0611 15.4029C17.0611 15.8035 17.31 16.1052 17.5859 16.2849ZM17.9738 15.4079C17.9733 15.4062 17.9731 15.4051 17.9729 15.4043L17.9729 15.4039L17.9729 15.4034C17.9729 15.4032 17.9728 15.403 17.9728 15.4029C17.9728 15.4022 17.9729 15.4008 17.9738 15.3978C17.9749 15.3945 17.9776 15.3876 17.9842 15.3773C17.9982 15.3558 18.0278 15.3226 18.0828 15.2868C18.1947 15.2139 18.3765 15.1539 18.6005 15.1539C18.8246 15.1539 19.0063 15.2139 19.1182 15.2868C19.1732 15.3226 19.2029 15.3558 19.2168 15.3773C19.2235 15.3876 19.2262 15.3945 19.2272 15.3978C19.2277 15.3993 19.2279 15.4004 19.228 15.4012C19.2282 15.402 19.2282 15.4025 19.2282 15.4029C19.2282 15.4035 19.2281 15.4049 19.2272 15.4079C19.2262 15.4112 19.2235 15.4181 19.2168 15.4284C19.2029 15.4499 19.1733 15.4831 19.1182 15.5189C19.0063 15.5918 18.8246 15.6518 18.6005 15.6518C18.3765 15.6518 18.1947 15.5918 18.0828 15.5189C18.0278 15.4831 17.9982 15.4499 17.9842 15.4284C17.9775 15.4181 17.9749 15.4112 17.9738 15.4079ZM22.0137 17.597C21.6394 17.597 21.2794 17.499 20.9991 17.3165C20.7232 17.1367 20.4743 16.835 20.4743 16.4343C20.4743 16.0337 20.7232 15.732 20.9991 15.5523C21.2794 15.3697 21.6394 15.2717 22.0137 15.2717C22.3882 15.2717 22.7482 15.3697 23.0284 15.5523C23.3043 15.732 23.5532 16.0337 23.5532 16.4343C23.5532 16.835 23.3044 17.1367 23.0284 17.3165C22.7482 17.499 22.3882 17.597 22.0137 17.597ZM21.3861 16.4343C21.3861 16.435 21.3861 16.4364 21.3871 16.4394C21.3881 16.4427 21.3908 16.4496 21.3975 16.4599C21.4114 16.4814 21.441 16.5146 21.496 16.5504C21.608 16.6233 21.7897 16.6833 22.0137 16.6833C22.2378 16.6833 22.4196 16.6233 22.5315 16.5504C22.5865 16.5146 22.6161 16.4814 22.6301 16.4599C22.6368 16.4496 22.6394 16.4427 22.6405 16.4394C22.6414 16.4364 22.6415 16.435 22.6415 16.4343C22.6415 16.4337 22.6414 16.4323 22.6405 16.4293C22.6394 16.426 22.6368 16.4191 22.6301 16.4088C22.6162 16.3873 22.5865 16.3542 22.5315 16.3183C22.4196 16.2454 22.2378 16.1854 22.0137 16.1854C21.7897 16.1854 21.608 16.2454 21.496 16.3183C21.441 16.3542 21.4114 16.3874 21.3975 16.4088C21.3908 16.4191 21.3881 16.426 21.3871 16.4293C21.3861 16.4323 21.3861 16.4337 21.3861 16.4343ZM15.9064 18.6194C16.1867 18.802 16.5467 18.9 16.9211 18.9C17.2954 18.9 17.6554 18.802 17.9357 18.6194C18.2116 18.4397 18.4605 18.138 18.4605 17.7373C18.4605 17.3367 18.2116 17.035 17.9357 16.8552C17.6554 16.6727 17.2954 16.5747 16.9211 16.5747C16.5467 16.5747 16.1867 16.6727 15.9064 16.8552C15.6305 17.035 15.3816 17.3367 15.3816 17.7373C15.3816 18.138 15.6305 18.4397 15.9064 18.6194ZM16.2944 17.7424C16.2934 17.7394 16.2934 17.738 16.2934 17.7373C16.2934 17.737 16.2934 17.7365 16.2935 17.7357C16.2936 17.7353 16.2937 17.7348 16.2938 17.7342C16.294 17.7336 16.2941 17.733 16.2944 17.7323C16.2954 17.729 16.2981 17.7221 16.3048 17.7118C16.3187 17.6903 16.3483 17.6571 16.4033 17.6213C16.5152 17.5484 16.697 17.4884 16.9211 17.4884C17.1451 17.4884 17.3269 17.5484 17.4388 17.6213C17.4938 17.6571 17.5234 17.6903 17.5373 17.7118C17.544 17.7221 17.5467 17.729 17.5477 17.7323C17.5487 17.7353 17.5487 17.7367 17.5487 17.7373C17.5487 17.738 17.5487 17.7394 17.5477 17.7424C17.5467 17.7457 17.544 17.7526 17.5373 17.7629C17.5234 17.7844 17.4938 17.8175 17.4388 17.8534C17.3269 17.9263 17.1451 17.9863 16.9211 17.9863C16.697 17.9863 16.5152 17.9263 16.4033 17.8534C16.3483 17.8175 16.3187 17.7844 16.3048 17.7629C16.2981 17.7526 16.2954 17.7457 16.2944 17.7424ZM16.6726 8.07354C16.6726 8.32584 16.4685 8.53037 16.2167 8.53037C15.9649 8.53037 15.7608 8.32584 15.7608 8.07354C15.7608 7.86783 15.7101 7.78844 15.6183 7.64461L15.616 7.64107C15.4926 7.44777 15.3274 7.18742 15.3274 6.7161C15.3274 6.24479 15.4926 5.98445 15.616 5.79117L15.6183 5.78763C15.7101 5.64381 15.7608 5.56442 15.7608 5.35871C15.7608 5.15307 15.7101 5.07372 15.6183 4.92992L15.616 4.92638C15.4926 4.73311 15.3274 4.47277 15.3274 4.00148C15.3274 3.53023 15.4926 3.26991 15.616 3.07667L15.6183 3.07314C15.7101 2.92936 15.7608 2.85001 15.7608 2.64437C15.7608 2.39206 15.9649 2.18753 16.2167 2.18753C16.4685 2.18753 16.6726 2.39206 16.6726 2.64437C16.6726 3.11564 16.5074 3.37597 16.384 3.56922L16.3817 3.57275C16.2899 3.71655 16.2392 3.79588 16.2392 4.00148C16.2392 4.20716 16.2899 4.28653 16.3817 4.43033L16.384 4.43386C16.5074 4.62711 16.6726 4.88744 16.6726 5.35871C16.6726 5.83001 16.5074 6.09036 16.384 6.28364L16.3817 6.28718C16.2899 6.43099 16.2392 6.51039 16.2392 6.7161C16.2392 6.92184 16.2899 7.00125 16.3817 7.14507L16.384 7.14861C16.5074 7.34189 16.6726 7.60223 16.6726 8.07354ZM19.1965 8.53037C19.4483 8.53037 19.6524 8.32584 19.6524 8.07354C19.6524 7.60222 19.4872 7.34186 19.3638 7.14858L19.3615 7.14505C19.2697 7.00123 19.2189 6.92183 19.2189 6.7161C19.2189 6.5104 19.2697 6.43102 19.3615 6.2872L19.3638 6.28366C19.4872 6.09038 19.6524 5.83003 19.6524 5.35871C19.6524 4.88742 19.4872 4.62709 19.3638 4.43384L19.3615 4.43031C19.2696 4.28651 19.2189 4.20715 19.2189 4.00148C19.2189 3.74918 19.0148 3.54465 18.7631 3.54465C18.5113 3.54465 18.3072 3.74918 18.3072 4.00148C18.3072 4.47279 18.4724 4.73313 18.5958 4.9264L18.5981 4.92993C18.69 5.07374 18.7406 5.15309 18.7406 5.35871C18.7406 5.56441 18.6899 5.64379 18.5981 5.78761L18.5958 5.79114C18.4724 5.98442 18.3072 6.24478 18.3072 6.7161C18.3072 7.18743 18.4724 7.4478 18.5958 7.64109L18.5981 7.64463C18.6899 7.78846 18.7406 7.86784 18.7406 8.07354C18.7406 8.32584 18.9448 8.53037 19.1965 8.53037ZM13.6387 8.07354C13.6387 8.32584 13.4346 8.53037 13.1828 8.53037C12.931 8.53037 12.7269 8.32584 12.7269 8.07354C12.7269 7.86784 12.6762 7.78846 12.5844 7.64463L12.5821 7.64109C12.4587 7.4478 12.2935 7.18743 12.2935 6.7161C12.2935 6.24478 12.4587 5.98442 12.5821 5.79114L12.5844 5.78761C12.6762 5.64379 12.7269 5.56441 12.7269 5.35871C12.7269 5.15309 12.6762 5.07374 12.5844 4.92993L12.5821 4.9264C12.4587 4.73313 12.2935 4.47279 12.2935 4.00148C12.2935 3.74918 12.4976 3.54465 12.7494 3.54465C13.0011 3.54465 13.2052 3.74918 13.2052 4.00148C13.2052 4.20715 13.2559 4.28651 13.3478 4.43031L13.35 4.43384C13.4735 4.62709 13.6387 4.88742 13.6387 5.35871C13.6387 5.83003 13.4735 6.09038 13.3501 6.28366L13.3478 6.2872C13.2559 6.43102 13.2052 6.5104 13.2052 6.7161C13.2052 6.92183 13.2559 7.00123 13.3478 7.14505L13.3501 7.14858C13.4735 7.34186 13.6387 7.60222 13.6387 8.07354Z" fill="black"/>
</svg>
