<svg width="32" height="32" viewBox="0 0 32 32" fill="currentColor" xmlns="http://www.w3.org/2000/svg">
<path fill-rule="evenodd" clip-rule="evenodd" d="M7.14889 5.39109C4.63745 6.80608 3.3125 8.69745 3.3125 10.6936V21.3064C3.3125 23.3026 4.63745 25.194 7.14889 26.609C7.1736 26.6229 7.19838 26.6367 7.22324 26.6505C7.47731 26.7914 7.79375 26.6773 7.91168 26.4118V26.4118C8.02169 26.1641 7.91767 25.8748 7.6811 25.7426C7.66992 25.7363 7.65876 25.73 7.64761 25.7238C5.55558 24.5451 4.32856 22.9869 4.32856 21.3064V14.3157C4.32856 14.087 4.61028 13.9784 4.76384 14.1479V14.1479C5.37463 14.8222 6.17267 15.4462 7.14883 15.9962C8.82179 16.9388 10.7895 17.5509 12.8477 17.8532C13.1268 17.8943 13.3817 17.6941 13.4156 17.414V17.414C13.4496 17.1342 13.2503 16.8804 12.9715 16.839C11.0255 16.5493 9.18076 15.9747 7.64771 15.111C5.48033 13.8899 4.32759 12.3213 4.32888 10.6914C4.33018 9.06176 5.48519 7.49473 7.64771 6.27636C9.96264 4.97206 12.9883 4.3271 16 4.3271C19.0118 4.32711 22.0374 4.97209 24.3523 6.27636C26.5197 7.49748 27.6724 9.06602 27.6711 10.6959C27.6698 12.3256 26.5148 13.8926 24.3523 15.111C22.0374 16.4153 19.0118 17.0602 16 17.0602C15.5821 17.0602 15.1639 17.0478 14.7474 17.0229C14.4735 17.0066 14.231 17.2034 14.198 17.4758V17.4758C14.1632 17.7628 14.3736 18.022 14.6623 18.0391C15.7932 18.106 16.9331 18.0844 18.0498 17.9775C21.8408 17.6146 25.3092 16.2748 27.236 14.1479V14.1479C27.3896 13.9784 27.6713 14.087 27.6713 14.3157L27.6713 21.3064C27.6713 22.9869 26.4443 24.545 24.3523 25.7238C22.0373 27.0281 19.0117 27.673 15.9999 27.673C13.6166 27.673 11.2246 27.2691 9.18294 26.4542C8.92271 26.3503 8.62347 26.4651 8.50974 26.7212V26.7212C8.39577 26.9778 8.51131 27.2789 8.77186 27.3836C10.9323 28.2512 13.4616 28.6885 15.999 28.6887C19.2044 28.6889 22.3976 27.9914 24.8511 26.609C27.3626 25.194 28.6875 23.3026 28.6875 21.3064V10.6937C28.6875 8.69745 27.3625 6.80608 24.8511 5.39109C22.3989 4.00941 19.2064 3.31157 16.001 3.31138C12.7956 3.31119 9.60244 4.00866 7.14889 5.39109ZM11.4494 12.4482V12.4482C11.6545 12.5071 11.8344 12.2986 11.7461 12.1044L10.5641 9.50409C10.5069 9.37823 10.3584 9.32271 10.2326 9.38015V9.38015C9.80365 9.57609 9.46513 9.78612 9.22941 9.99506C9.00585 10.1932 8.82641 10.4337 8.82643 10.6937C8.82645 10.8797 8.91888 11.0525 9.04049 11.1992C9.16526 11.3497 9.34187 11.4987 9.56014 11.642C9.99754 11.9292 10.633 12.2135 11.4494 12.4482ZM12.7233 13.7687L12.7199 13.7681L12.7165 13.7675C11.3063 13.5301 10.0617 13.1371 9.17682 12.6044C8.2894 12.0701 7.81027 11.427 7.81027 10.6937C7.81027 9.78513 8.55171 9.01143 9.87052 8.42499C11.173 7.84582 12.9507 7.49367 14.8165 7.38879L14.9159 7.38408C15.2185 7.36966 15.5145 7.35556 16 7.35556C17.2946 7.35556 18.5553 7.47987 19.4991 7.65765L19.4999 7.65779L19.5006 7.65793C20.8584 7.90502 22.0478 8.29903 22.8907 8.82444C23.7352 9.35081 24.1896 9.97915 24.1896 10.6937C24.1896 11.5805 23.484 12.3386 22.2215 12.9206C20.9731 13.4962 19.2624 13.8565 17.4486 13.9818L17.4451 13.9821L17.4417 13.9824C16.319 14.0914 13.9632 14.0128 12.7233 13.7687ZM11.7119 8.86716V8.86716C11.5619 8.90644 11.4835 9.07132 11.5476 9.21245L13.1302 12.6941C13.1656 12.772 13.2384 12.8263 13.3231 12.8382V12.8382C14.2807 12.9727 15.2659 13.0243 16.2213 13.0145V13.0145C16.402 13.0127 16.5212 12.8256 16.4464 12.6611L14.5927 8.58266C14.5491 8.4867 14.4499 8.4284 14.3449 8.43692V8.43692C13.332 8.51906 12.4521 8.67328 11.7119 8.86716ZM20.6487 12.1219C20.7121 12.2613 20.6362 12.4245 20.4888 12.466V12.466C19.7596 12.671 18.8839 12.8376 17.8701 12.9318V12.9318C17.7641 12.9416 17.6634 12.8832 17.6194 12.7863L15.7736 8.72517C15.6983 8.55964 15.8193 8.37172 16.0012 8.37172V8.37172C17.0928 8.37172 18.0665 8.45232 18.9171 8.58494V8.58494C19.0003 8.59791 19.0713 8.65187 19.1062 8.7285L20.6487 12.1219ZM20.8121 9.0179V9.0179C20.6058 8.9528 20.4198 9.16279 20.5093 9.35977L21.6171 11.7968C21.6756 11.9256 21.8294 11.9802 21.9561 11.9171V11.9171C22.3254 11.7331 22.6183 11.5383 22.8228 11.3443C23.018 11.1591 23.1735 10.9355 23.1735 10.6936C23.1735 10.5174 23.0904 10.3533 22.9798 10.2132C22.8666 10.07 22.7069 9.9287 22.5103 9.79275C22.1163 9.52039 21.545 9.2491 20.8121 9.0179ZM8.67238 19.6387C8.67238 20.0575 8.33287 20.397 7.91407 20.397C7.49527 20.397 7.15576 20.0575 7.15576 19.6387C7.15576 19.2199 7.49527 18.8804 7.91407 18.8804C8.33287 18.8804 8.67238 19.2199 8.67238 19.6387ZM13.5239 24.086C13.5239 24.5048 13.1844 24.8443 12.7656 24.8443C12.3468 24.8443 12.0073 24.5048 12.0073 24.086C12.0073 23.6672 12.3468 23.3276 12.7656 23.3276C13.1844 23.3276 13.5239 23.6672 13.5239 24.086ZM18.0215 21.6099C18.4403 21.6099 18.7798 21.2704 18.7798 20.8516C18.7798 20.4328 18.4403 20.0933 18.0215 20.0933C17.6027 20.0933 17.2632 20.4328 17.2632 20.8516C17.2632 21.2704 17.6027 21.6099 18.0215 21.6099ZM24.0356 22.8731C24.0356 23.2919 23.6961 23.6314 23.2773 23.6314C22.8585 23.6314 22.519 23.2919 22.519 22.8731C22.519 22.4543 22.8585 22.1148 23.2773 22.1148C23.6961 22.1148 24.0356 22.4543 24.0356 22.8731Z" fill="black"/>
</svg>
