<svg width="24" height="24" viewBox="0 0 24 24" fill="currentColor" xmlns="http://www.w3.org/2000/svg">
<path fill-rule="evenodd" clip-rule="evenodd" d="M2.1 12C2.1 6.5351 6.52536 2.1 11.99 2.1C17.4648 2.1 21.9 6.53529 21.9 12C21.9 17.4647 17.4648 21.9 11.99 21.9C6.52536 21.9 2.1 17.4649 2.1 12ZM3.9 12C3.9 16.4752 7.52477 20.1 12 20.1C16.4752 20.1 20.1 16.4752 20.1 12C20.1 7.52477 16.4752 3.9 12 3.9C7.52477 3.9 3.9 7.52477 3.9 12Z" fill="black"/>
<path d="M12.5 7.75C12.5 7.33578 12.1642 7 11.75 7C11.3358 7 11 7.33578 11 7.75V12.4338C11 12.7851 11.1843 13.1106 11.4855 13.2913L15.6383 15.783C15.9768 15.9861 16.4159 15.878 16.6214 15.5409C16.8298 15.1992 16.7188 14.7531 16.3746 14.5489L12.9897 12.5406C12.6861 12.3604 12.5 12.0336 12.5 11.6806V7.75Z" fill="black"/>
</svg>
