<svg width="24" height="24" viewBox="0 0 24 24" fill="none" xmlns="http://www.w3.org/2000/svg">
<path d="M21.266 6.99998C21.266 6.43166 21.0402 5.88662 20.6383 5.48475C20.2365 5.08289 19.6914 4.85713 19.1231 4.85713H16.266V4.14285C16.266 3.57453 16.0402 3.02949 15.6384 2.62763C15.2365 2.22576 14.6915 2 14.1232 2H9.83746C9.26914 2 8.7241 2.22576 8.32224 2.62763C7.92037 3.02949 7.69461 3.57453 7.69461 4.14285V4.85713H4.83748C4.3332 4.8664 3.84835 5.05326 3.46827 5.3848C3.08819 5.71635 2.83723 6.17134 2.75958 6.66969C2.68192 7.16805 2.78255 7.67782 3.04373 8.10929C3.30492 8.54076 3.70993 8.86627 4.18748 9.02854L5.42319 20.1499C5.49406 20.6636 5.74883 21.1342 6.14025 21.4744C6.53166 21.8146 7.03317 22.0013 7.55175 21.9999H16.4089C16.9299 22.0048 17.4349 21.8197 17.8293 21.4792C18.2237 21.1386 18.4805 20.6661 18.5517 20.1499L19.7874 9.02854C20.2159 8.88884 20.5894 8.61761 20.8548 8.25342C21.1203 7.88924 21.2641 7.45063 21.266 6.99998ZM9.12318 4.14285C9.12318 3.95341 9.19843 3.77173 9.33238 3.63777C9.46634 3.50382 9.64802 3.42856 9.83746 3.42856H14.1232C14.3126 3.42856 14.4943 3.50382 14.6282 3.63777C14.7622 3.77173 14.8374 3.95341 14.8374 4.14285V4.85713H9.12318V4.14285ZM17.116 19.9928C17.0841 20.1579 16.9949 20.3064 16.8643 20.4122C16.7336 20.5181 16.5698 20.5744 16.4017 20.5713H7.55175C7.38364 20.5744 7.21984 20.5181 7.08918 20.4122C6.95852 20.3064 6.86939 20.1579 6.83747 19.9928L5.63748 9.14282H18.3231L17.116 19.9928ZM19.1231 7.71426H4.83748C4.64804 7.71426 4.46636 7.639 4.33241 7.50505C4.19845 7.3711 4.1232 7.18942 4.1232 6.99998C4.1232 6.81054 4.19845 6.62886 4.33241 6.4949C4.46636 6.36095 4.64804 6.28569 4.83748 6.28569H19.1231C19.3126 6.28569 19.4942 6.36095 19.6282 6.4949C19.7622 6.62886 19.8374 6.81054 19.8374 6.99998C19.8374 7.18942 19.7622 7.3711 19.6282 7.50505C19.4942 7.639 19.3126 7.71426 19.1231 7.71426Z" fill="black"/>
<path d="M9.83746 18.4285C10.0269 18.4285 10.2086 18.3532 10.3425 18.2193C10.4765 18.0853 10.5517 17.9037 10.5517 17.7142V11.2857C10.5517 11.0962 10.4765 10.9146 10.3425 10.7806C10.2086 10.6466 10.0269 10.5714 9.83746 10.5714C9.64802 10.5714 9.46634 10.6466 9.33238 10.7806C9.19843 10.9146 9.12318 11.0962 9.12318 11.2857V17.7142C9.12318 17.9037 9.19843 18.0853 9.33238 18.2193C9.46634 18.3532 9.64802 18.4285 9.83746 18.4285ZM14.1232 18.4285C14.3126 18.4285 14.4943 18.3532 14.6282 18.2193C14.7622 18.0853 14.8374 17.9037 14.8374 17.7142V11.2857C14.8374 11.0962 14.7622 10.9146 14.6282 10.7806C14.4943 10.6466 14.3126 10.5714 14.1232 10.5714C13.9337 10.5714 13.752 10.6466 13.6181 10.7806C13.4841 10.9146 13.4089 11.0962 13.4089 11.2857V17.7142C13.4089 17.9037 13.4841 18.0853 13.6181 18.2193C13.752 18.3532 13.9337 18.4285 14.1232 18.4285Z" fill="black"/>
</svg>
