<svg width="32" height="32" viewBox="0 0 32 32" fill="none" xmlns="http://www.w3.org/2000/svg">
<path fill-rule="evenodd" clip-rule="evenodd" d="M27.425 12.1138C27.4584 10.4859 26.5613 9.01171 25.1435 8.27993C24.9711 8.1909 24.8465 8.0295 24.7989 7.84133C24.4987 6.65487 23.5685 5.72119 22.3923 5.40363C22.1394 5.33535 21.9434 5.12778 21.8696 4.87648V4.87648C21.608 3.98441 20.8202 3.31265 19.9104 3.20495C19.4597 3.15141 19.0137 3.22739 18.6183 3.41669C18.41 3.51645 18.1638 3.5204 17.9544 3.42297C17.6232 3.26893 17.2627 3.18753 16.8954 3.18753C15.6515 3.18753 14.6126 4.08316 14.3921 5.26273C14.3823 5.31502 14.3427 5.3575 14.2913 5.37091V5.37091L14.2912 5.37091V5.37091C14.2639 5.37804 14.2357 5.36375 14.2247 5.33769C14.1886 5.25212 14.1511 5.1677 14.1093 5.08528C13.4582 3.79788 12.308 3.0495 11.2421 3.22136C10.7116 3.30735 10.25 3.60123 9.90962 4.05049C9.72371 4.29587 9.39895 4.41417 9.09971 4.34186C8.65768 4.23506 8.21982 4.25078 7.8131 4.39381C7.78209 4.40472 7.75143 4.41627 7.72114 4.42845C7.46869 4.52995 7.43023 4.84898 7.60822 5.05478L7.68598 5.14469C7.78867 5.26343 7.96134 5.28593 8.10945 5.23388V5.23388C8.55426 5.07722 9.08617 5.18578 9.60992 5.53747V5.53747C9.86256 5.7076 10.2079 5.5798 10.2885 5.28608V5.28608C10.4729 4.61567 10.8723 4.1834 11.385 4.10072C12.0532 3.98711 12.8449 4.56232 13.3126 5.48647C13.3475 5.55558 13.3799 5.62586 13.4099 5.69719C13.414 5.70674 13.4102 5.71795 13.4018 5.72399V5.72399C13.3973 5.72718 13.3928 5.73037 13.388 5.73316C13.2966 5.78729 13.208 5.84609 13.1227 5.90934C13.0714 5.94687 13.0233 5.98676 12.9747 6.02745C12.9425 6.05458 12.9107 6.08228 12.8794 6.11053C12.701 6.27019 12.5416 6.4497 12.4041 6.64555C12.3988 6.65312 12.3938 6.66071 12.3887 6.6683L12.3887 6.66831C12.384 6.67548 12.3792 6.68265 12.3743 6.6898C12.2955 6.80616 12.2246 6.92763 12.162 7.0534C12.159 7.05944 12.1559 7.06547 12.1528 7.07151C12.1401 7.09618 12.1275 7.12092 12.1157 7.14589C12.0886 7.2055 12.0634 7.26592 12.0401 7.32707C12.015 7.39123 11.9937 7.4562 11.9731 7.52201L11.9725 7.52416C11.9557 7.57838 11.9391 7.63185 11.9255 7.68722C11.901 7.78354 11.8814 7.88102 11.8666 7.9793C11.8613 8.01535 11.8564 8.05145 11.8519 8.08761C11.8373 8.20963 11.8275 8.3328 11.8275 8.45827V8.45827C11.8275 8.59801 11.7322 8.72172 11.5967 8.75574C10.0293 9.14908 8.8861 10.558 8.8861 12.2349C8.88632 12.6191 8.94858 12.9999 9.06973 13.3629C9.14188 13.5791 9.10132 13.8189 8.96968 14.0049C8.6447 14.4641 8.46615 15.0156 8.46615 15.5918C8.46615 16.524 8.9411 17.3793 9.69614 17.8819C9.87583 18.0015 9.99971 18.1953 10.0027 18.4111C10.0043 18.5272 10.0072 18.6419 10.0112 18.7557C10.0129 18.8005 10.0156 18.8446 10.0183 18.8887L10.0183 18.8887C10.0201 18.9176 10.0219 18.9465 10.0234 18.9756C10.0308 19.1269 10.0398 19.2779 10.0524 19.425C10.0571 19.4821 10.0632 19.5382 10.0692 19.5942C10.072 19.6209 10.0749 19.6476 10.0776 19.6743C10.0915 19.8074 10.1066 19.9398 10.125 20.0692C10.1365 20.1539 10.1499 20.238 10.1634 20.3212C10.1833 20.446 10.2052 20.5691 10.2293 20.6911C10.2454 20.7734 10.2622 20.8554 10.2801 20.9368C10.3069 21.0583 10.3362 21.1791 10.367 21.2983L10.373 21.322C10.3908 21.3911 10.4085 21.46 10.4273 21.5285C10.4625 21.6536 10.5009 21.7767 10.5404 21.8991C10.5476 21.9214 10.5546 21.9438 10.5616 21.9662C10.5758 22.0114 10.5899 22.0566 10.6052 22.1013C10.6556 22.2487 10.7107 22.3944 10.7679 22.5394C10.7752 22.5578 10.7821 22.5766 10.789 22.5954L10.789 22.5954C10.7969 22.6169 10.8048 22.6384 10.8133 22.6595C10.8881 22.8436 10.9678 23.0256 11.0526 23.2053C11.067 23.236 11.0824 23.2664 11.0978 23.2968L11.0978 23.2969L11.0978 23.2969C11.1081 23.3173 11.1184 23.3376 11.1283 23.358C11.1912 23.487 11.255 23.6157 11.3233 23.7439C11.3497 23.7936 11.3776 23.8433 11.4056 23.893L11.4059 23.8936C11.4164 23.9124 11.427 23.9312 11.4375 23.95C11.4986 24.06 11.5601 24.1699 11.6251 24.279C11.6637 24.3442 11.7038 24.4093 11.7438 24.4742L11.7438 24.4743L11.7605 24.5015C11.8247 24.606 11.89 24.7098 11.9567 24.8127C12.0062 24.8894 12.0569 24.9658 12.1082 25.0425C12.178 25.1462 12.2488 25.2491 12.3208 25.3514C12.3745 25.4284 12.4288 25.505 12.4839 25.5811C12.5614 25.6872 12.6396 25.7929 12.7185 25.898C12.7269 25.9092 12.7354 25.9205 12.7438 25.9318C12.753 25.9441 12.7623 25.9565 12.7715 25.9689L12.7716 25.969C12.8101 26.0206 12.8486 26.0723 12.8888 26.1242C12.9715 26.2319 13.0579 26.3407 13.1443 26.4497L13.1444 26.4499L13.1562 26.4647C13.1755 26.4891 13.1946 26.5134 13.2137 26.5377C13.2492 26.5829 13.2847 26.6281 13.3216 26.6739V26.6739C13.3249 26.6781 13.32 26.6836 13.3154 26.6811C11.6892 25.7724 10.5375 24.6659 9.53294 22.696V22.696C9.45637 22.546 9.30143 22.452 9.13299 22.453V22.453H9.12146C8.41939 22.453 7.69853 22.0276 7.32539 21.3908C7.05344 20.9271 6.99781 20.4209 7.17248 20.002V20.002C7.25189 19.8118 7.1902 19.5918 7.02347 19.4706V19.4706C6.58533 19.1518 6.21079 18.7355 5.94085 18.2659C5.46412 17.4366 5.33842 16.5271 5.59703 15.7713C5.79064 15.2059 6.17891 14.7893 6.72 14.5658V14.5658C6.98763 14.4555 7.08073 14.1224 6.90815 13.89V13.89C6.74902 13.6751 6.61079 13.451 6.49842 13.2245C6.04069 12.3003 5.93318 11.2677 6.21219 10.4624C6.39678 9.92811 6.73469 9.53102 7.18851 9.31461V9.31461C7.40232 9.21238 7.49855 8.96055 7.40738 8.7418V8.7418L7.38764 8.69956C6.99586 7.77541 6.9516 6.7928 7.27096 6.06634V6.06634C7.32092 5.95239 7.30989 5.81785 7.2285 5.72374L7.14468 5.62683C6.94654 5.39773 6.58631 5.41351 6.46274 5.69004C6.45993 5.69632 6.45714 5.70262 6.45437 5.70894C6.12663 6.45573 6.08377 7.38817 6.31809 8.3093C6.38057 8.55493 6.29187 8.81541 6.10873 8.99061C5.78275 9.30244 5.53216 9.70075 5.36944 10.1715C5.00878 11.2128 5.12917 12.469 5.69927 13.6198V13.6198C5.80484 13.832 5.74331 14.0926 5.56613 14.25C5.1991 14.5761 4.92005 14.9961 4.75328 15.4845C4.41186 16.4826 4.56297 17.6587 5.16776 18.7101C5.38808 19.0932 5.66505 19.4477 5.98392 19.7574C6.13675 19.9059 6.20453 20.1211 6.18765 20.3335C6.1479 20.8338 6.27251 21.3581 6.55561 21.8412C6.99366 22.5875 7.74373 23.1166 8.56106 23.286C8.74543 23.3243 8.91148 23.4318 9.00379 23.5959C10.4437 26.1556 12.2326 27.2968 14.938 28.4421V28.4421C14.9588 28.4511 14.9787 28.4617 14.9981 28.4734C15.3844 28.707 15.8216 28.8125 16.2545 28.8125C16.518 28.8125 16.7778 28.7718 17.0231 28.7024C17.027 28.7011 17.0311 28.7017 17.035 28.7003V28.7003C17.0386 28.6989 17.0418 28.6966 17.0455 28.6955C17.2522 28.6348 17.4489 28.5547 17.6239 28.4528C18.4701 27.9595 18.8129 27.117 18.5182 26.2541C17.673 23.7777 17.7418 21.9179 18.7228 20.7275C18.8789 20.5382 19.0539 20.3705 19.2431 20.2222C19.4158 20.0868 19.4924 19.856 19.4094 19.6529V19.6529C19.3049 19.3968 18.9957 19.2919 18.7743 19.4577C18.5065 19.6583 18.2577 19.8903 18.0362 20.1586C16.8433 21.6031 16.7217 23.7502 17.6738 26.5404C17.8846 27.1588 17.451 27.5216 17.1736 27.6831C17.1627 27.6897 17.1509 27.6948 17.1392 27.7V27.7C17.1243 27.7066 17.1063 27.6998 17.1002 27.6847C16.2349 25.5541 15.6941 23.6577 15.4021 21.9744C15.4013 21.9698 15.4007 21.9653 15.4001 21.9608C15.3993 21.9549 15.3985 21.9491 15.3973 21.9433C15.1754 20.6525 15.0969 19.4869 15.1288 18.4374C15.1316 18.3449 15.1567 18.2536 15.2109 18.1786C15.8962 17.2309 17.5931 17.1912 17.6109 17.1908C17.857 17.1867 18.0536 16.9851 18.0501 16.7394C18.0466 16.4954 17.8482 16.3005 17.6049 16.3005H17.5994C17.5525 16.301 17.0064 16.3128 16.354 16.4907C15.8931 16.6165 15.3598 16.2402 15.4733 15.7761C15.5666 15.3943 15.6754 15.0347 15.796 14.6955C15.8174 14.6352 15.8533 14.5813 15.8831 14.5246C15.8867 14.5177 15.8902 14.5107 15.8934 14.5034C15.9039 14.4804 15.9122 14.4565 15.9185 14.4321C15.9358 14.3648 15.9452 14.2948 15.9716 14.2305C16.2491 13.5535 16.5725 12.9703 16.9112 12.4699C16.9907 12.3525 17.1141 12.2717 17.2538 12.2474C19.1438 11.9183 20.5449 12.4985 20.5772 12.5119C20.6332 12.5366 20.6938 12.5493 20.7551 12.5492C20.8417 12.5492 20.9265 12.524 20.9991 12.4768C21.0717 12.4295 21.1289 12.3622 21.1639 12.2831C21.2628 12.0579 21.1598 11.7951 20.9347 11.6964C20.8919 11.6776 20.2898 11.4209 19.337 11.3072C18.8252 11.2461 18.5578 10.6123 18.9753 10.3101C19.3127 10.0661 19.5502 9.93919 19.6094 9.90909C20.2571 9.59929 21.2035 9.99943 21.5142 10.1807C21.5824 10.2211 21.6604 10.2423 21.7397 10.2421C21.8173 10.2422 21.8936 10.222 21.961 10.1836C22.0284 10.1452 22.0846 10.0899 22.124 10.0231C22.2489 9.81119 22.1788 9.53863 21.9662 9.4137C21.929 9.39154 21.3818 9.0754 20.6885 8.95321C20.3035 8.88536 19.9961 8.51476 20.2086 8.18667C20.2308 8.15237 20.2512 8.12323 20.2687 8.10012C20.418 7.90503 20.3804 7.62606 20.1848 7.47687C19.99 7.32772 19.7095 7.36425 19.5603 7.56015C19.5355 7.59181 19.0797 8.19543 18.9716 8.94753C18.9437 9.14173 18.8463 9.32321 18.684 9.43353C17.9183 9.95424 16.4885 11.1416 15.4519 13.2776V13.2776C15.3498 13.4875 15.0851 13.5662 14.9215 13.3998C14.0918 12.5558 14.2522 11.3728 14.2622 11.309C14.2804 11.1925 14.2517 11.0736 14.1822 10.9783C14.1128 10.8829 14.0084 10.819 13.8918 10.8005C13.6492 10.7596 13.4201 10.9273 13.3814 11.1699C13.2638 11.9052 13.4067 13.3498 14.5647 14.2778C14.7721 14.444 14.8768 14.7165 14.8009 14.9712C14.5417 15.8414 14.3496 16.8486 14.281 18.0056C14.2794 18.0327 14.2753 18.0596 14.2723 18.0866C14.2692 18.1156 14.2689 18.1449 14.2716 18.174C14.2402 18.8236 14.2504 19.5211 14.3081 20.2654C14.3437 20.7252 13.8616 21.0146 13.6143 20.6254C13.5971 20.5985 13.5874 20.581 13.5846 20.5758C13.4683 20.3597 13.1999 20.2771 12.9833 20.3914C12.7656 20.5058 12.6815 20.7752 12.7966 20.9928C12.8179 21.0338 13.2606 21.851 14.2669 22.2854C14.4595 22.3686 14.6102 22.533 14.651 22.7388C14.9314 24.154 15.3783 25.709 16.0328 27.4097C16.1263 27.6526 15.9412 27.9134 15.6969 27.8236C15.6065 27.7905 15.5195 27.7483 15.4373 27.6967C15.437 27.6965 15.4369 27.6961 15.437 27.6958V27.6958C15.4371 27.6955 15.437 27.6951 15.4367 27.6949C15.3931 27.6665 15.3508 27.6363 15.3098 27.6043L15.2978 27.5946C15.2531 27.5584 15.2085 27.5222 15.1694 27.4784C15.1672 27.4761 15.1645 27.4739 15.1624 27.4716L14.975 27.2589C12.1836 24.0506 10.7863 21.7038 10.8975 17.7793V17.7793C10.9031 17.586 10.7827 17.4111 10.6002 17.347V17.347C9.8562 17.0839 9.35602 16.3789 9.35602 15.5926C9.35602 15.0331 9.60486 14.5084 10.0381 14.1532V14.1532C10.2067 14.0151 10.25 13.7748 10.1407 13.5864V13.5864C9.90226 13.1747 9.77596 12.7076 9.77596 12.2363C9.77596 10.785 10.9146 9.60124 12.3679 9.54048V9.54048C12.648 9.52873 12.8483 9.26406 12.7827 8.99149V8.99149C12.7391 8.81082 12.7174 8.63139 12.7174 8.45972C12.7174 8.32309 12.7324 8.18996 12.7561 8.05893C12.7596 8.03815 12.7646 8.01797 12.7695 7.99783L12.7695 7.99778C12.7725 7.98554 12.7755 7.97332 12.7782 7.96099C12.8015 7.85914 12.8305 7.75879 12.8669 7.66245C12.8767 7.63567 12.8871 7.60949 12.8982 7.58307C12.9468 7.46871 13.002 7.35745 13.068 7.25325C13.0695 7.25102 13.0708 7.24859 13.072 7.24615L13.0721 7.24613C13.073 7.24431 13.0739 7.24249 13.075 7.24073C13.2187 7.01652 13.402 6.82022 13.6128 6.65717C13.6319 6.64249 13.6518 6.62899 13.6716 6.6155C13.6819 6.60852 13.6921 6.60154 13.7023 6.5944C13.7737 6.54484 13.8478 6.49936 13.9243 6.45817C13.9723 6.43203 14.0212 6.40771 14.0709 6.38525C14.3055 6.27965 14.5586 6.20673 14.8274 6.18681V6.18681C15.0598 6.16916 15.2393 5.97467 15.2393 5.74162V5.74162L15.2385 5.70684C15.2536 4.80676 15.9905 4.0785 16.8954 4.0785C17.2985 4.0785 17.6908 4.23175 17.9996 4.50992V4.50992C18.1751 4.66812 18.4436 4.66208 18.6118 4.49611V4.49611C18.9264 4.1854 19.3585 4.03666 19.8056 4.08981C20.3654 4.15573 20.8513 4.57273 21.0136 5.12732C21.0676 5.31035 21.0837 5.49648 21.0617 5.68026V5.68026C21.0371 5.94668 21.2498 6.17665 21.5174 6.17665V6.17665C22.8222 6.17665 23.9139 7.19519 24.0035 8.49551V8.49551C24.016 8.67291 24.1331 8.82603 24.3009 8.88489V8.88489C25.6663 9.36296 26.5631 10.6535 26.5334 12.0963C26.5065 13.3917 25.6706 14.5735 24.4043 15.1076C23.7668 15.3756 23.12 15.4263 22.4274 15.263C22.4273 15.263 22.4273 15.263 22.4273 15.263V15.263C22.4273 15.263 22.4273 15.263 22.4272 15.263L22.354 15.2508C22.3241 15.2458 22.2934 15.2468 22.2639 15.2536L22.219 15.264C22.0168 15.3107 21.8702 15.4861 21.8602 15.6934L21.8512 15.8802C21.8394 16.1264 22.0286 16.3359 22.2748 16.349V16.349C22.8236 16.3769 23.2317 16.5547 23.5228 16.8907C23.7084 17.105 23.8261 17.362 23.9001 17.6139C23.9966 17.9418 23.7076 18.2293 23.3658 18.2266C22.5773 18.2205 21.4899 18.2923 20.4371 18.627C20.1998 18.7024 20.0878 18.9666 20.1819 19.1971V19.1971C20.2743 19.4233 20.531 19.5321 20.7647 19.4606C22.488 18.9336 24.3722 19.1761 24.399 19.1807V19.1807C24.649 19.2146 24.8781 19.0345 24.9031 18.7834V18.7834C24.9094 18.723 25.0409 17.2886 24.2028 16.3142V16.3142C24.1408 16.242 24.1741 16.124 24.2658 16.0983C24.431 16.0519 24.5931 15.9949 24.7512 15.9277C26.3411 15.2566 27.3911 13.7599 27.425 12.1138Z" fill="black"/>
</svg>
